<?xml version="1.0" encoding="utf-8"?>
<!-- Generator: Adobe Illustrator 17.1.0, SVG Export Plug-In . SVG Version: 6.00 Build 0)  -->
<!DOCTYPE svg PUBLIC "-//W3C//DTD SVG 1.1//EN" "http://www.w3.org/Graphics/SVG/1.1/DTD/svg11.dtd">
<svg version="1.1" xmlns="http://www.w3.org/2000/svg" xmlns:xlink="http://www.w3.org/1999/xlink" x="0px" y="0px"
	 viewBox="0 0 50 50" enable-background="new 0 0 50 50" xml:space="preserve">
<g id="Layer_2">
</g>
<g id="Layer_3">
</g>
<g id="Layer_1">
	<g>
		<g>
			<path fill="#408AC9" d="M49.5,28.9c0-5.6-4.5-10.1-10.1-10.1c-1.1,0-2.1,0.2-3.1,0.5c-0.6-6.5-6.1-11.6-12.8-11.6
				c-7.1,0-12.9,5.8-12.9,12.9c0,0.9,0.1,1.7,0.3,2.5H8.4c-4.4,0-8,3.6-8,8c0,4.4,3.6,8,8,8h31.9c2.3,0,4.4-1,5.9-2.6
				C48.2,34.6,49.5,31.9,49.5,28.9z"/>
		</g>
		<g>
			<polygon fill="#FFFFFF" points="30.9,21.7 29.2,20 26.5,22.5 26.5,31.6 31.5,31.6 31.5,19.4 			"/>
			<path fill="#FFFFFF" d="M21.9,24.9l-1.5-1v7.8h5v-8.1l-1.3,1.2c-0.3,0.3-0.8,0.5-1.2,0.5C22.5,25.1,22.2,25.1,21.9,24.9z"/>
			<polygon fill="#FFFFFF" points="19.3,23.2 18,22.4 14.3,25.6 14.3,31.6 19.3,31.6 			"/>
			<rect x="14.3" y="32.9" fill="#FFFFFF" width="17.2" height="1.8"/>
			<path fill="#FFFFFF" d="M15.4,23.4l2.5-2.2l4.6,2.9c0.1,0.1,0.3,0.1,0.4,0.1c0.2,0,0.4-0.1,0.5-0.2l5.8-5.4l1.1,1.1l1.1-4.1
				l-4.1,1.1l0.8,0.8l-5.4,5l-4.6-2.9c-0.3-0.2-0.6-0.1-0.9,0.1l-2.9,2.5c-0.3,0.3-0.3,0.7-0.1,1C14.7,23.6,15.1,23.6,15.4,23.4z"/>
		</g>
	</g>
</g>
</svg>
