<?xml version="1.0" encoding="utf-8"?>
<!-- Generator: Adobe Illustrator 15.0.0, SVG Export Plug-In . SVG Version: 6.00 Build 0)  -->
<!DOCTYPE svg PUBLIC "-//W3C//DTD SVG 1.1//EN" "http://www.w3.org/Graphics/SVG/1.1/DTD/svg11.dtd">
<svg version="1.1" id="Layer_1" xmlns="http://www.w3.org/2000/svg" xmlns:xlink="http://www.w3.org/1999/xlink" x="0px" y="0px"
	 width="60px" height="60px" viewBox="0 0 60 60" enable-background="new 0 0 60 60" xml:space="preserve">
<path fill="#FFFFFF" d="M43.913,43.982c-0.131-1.291-0.272-2.582-0.425-3.873c-0.131-1.123-1.024-2.477-1.965-2.935
	c-2.619-1.13-5.139-1.888-7.623-2.274c-0.047-0.392-0.1-0.787-0.151-1.18c2.903-0.465,6.14-1.312,5.303-1.617
	c-0.526-0.192-0.989-0.94-1.284-1.993c0.145-0.148,0.262-0.326,0.303-0.546l0.002-0.02c0.633-0.347,1.195-1.039,1.531-1.941
	c0.047,0.036,0.098,0.063,0.147,0.092l0.672,0.015c0.229-0.104,0.404-0.314,0.451-0.578l0.226-1.262
	c0.071-0.427-0.211-0.831-0.64-0.903c-0.203-0.038-0.397,0.01-0.56,0.108c-0.062-0.465-0.2-0.894-0.391-1.246
	c0.229-0.529,0.418-1.074,0.543-1.638c0.473-1.735,0.232-3.536-0.574-5.144c0.07-0.198,0.058-0.425-0.069-0.639
	c-1.638-2.848-5.272-4.838-9.263-4.823c-3.992-0.013-7.627,1.976-9.266,4.823c-0.123,0.214-0.137,0.44-0.07,0.639
	c-0.805,1.607-1.043,3.408-0.572,5.144c0.129,0.564,0.314,1.108,0.545,1.636c-0.193,0.354-0.324,0.783-0.393,1.248
	c-0.16-0.099-0.357-0.146-0.561-0.108c-0.428,0.072-0.715,0.477-0.637,0.903l0.223,1.262c0.078,0.426,0.484,0.708,0.918,0.635
	c0.135-0.024,0.252-0.082,0.354-0.163c0.34,0.899,0.898,1.595,1.535,1.941l0.004,0.02c0.074,0.428,0.396,0.746,0.793,0.847
	c-0.369,1.321-0.941,2.303-1.498,2.571C20.9,33.282,23.4,33.58,26.25,33.729c-0.049,0.39-0.1,0.785-0.146,1.172
	c-2.486,0.393-5.006,1.146-7.625,2.275c-0.938,0.458-1.834,1.811-1.965,2.936c-0.15,1.289-0.293,2.582-0.428,3.871
	c-0.115,1.131,0.539,2.341,1.48,2.65c3.994,1.188,8.215,1.78,12.434,1.78c4.225,0,8.443-0.593,12.436-1.78
	C43.376,46.322,44.034,45.111,43.913,43.982z M32.434,38.902c-0.541,0.527-1.443,0.83-2.432,0.83c-0.988,0-1.891-0.303-2.402-0.808
	c-0.521-0.458-0.502-1.125-0.441-1.768c0.006-0.066,0.01-0.128,0.016-0.179l0.254-2.177c0.148,0.093,0.299,0.177,0.449,0.231
	c0.721,0.238,1.424,0.357,2.125,0.357c0.705,0,1.406-0.119,2.128-0.357c0.146-0.057,0.297-0.141,0.447-0.231l0.25,2.177
	c0.004,0.049,0.01,0.111,0.018,0.179C32.909,37.801,32.927,38.468,32.434,38.902z M21.636,22.002
	c-0.006-0.029-0.018-0.058-0.021-0.089c-0.348-1.498-0.113-3.018,0.584-4.365c0.213-0.083,0.396-0.226,0.516-0.414
	c1.383-2.277,4.279-3.819,7.432-3.811c3.154-0.009,6.048,1.533,7.431,3.811c0.121,0.188,0.307,0.334,0.518,0.417
	c0.693,1.349,0.932,2.867,0.584,4.362c-0.006,0.031-0.012,0.06-0.021,0.089c-0.097-0.053-0.205-0.093-0.318-0.115
	c-0.012-0.002-0.022,0-0.034-0.001c0.11-2.896-1.252-4.938-2.045-5.599c-1.419-1.295-3.679-1.94-5.94-1.94
	c-2.156,0-4.311,0.587-5.742,1.761c-0.035,0.019-0.08,0.034-0.119,0.058c-0.645,0.406-1.109,1.015-1.424,1.751
	c-0.633,1.057-1.076,2.429-1.074,3.971c-0.002,0.001-0.004,0-0.004,0C21.839,21.909,21.734,21.949,21.636,22.002z M25.542,31.979
	c-0.193-0.68-0.361-1.371-0.512-2.075c-0.164-0.057-0.295-0.185-0.336-0.354l-0.635-2.576c-0.062-0.248,0.1-0.5,0.361-0.577
	c-0.076-0.57-0.15-1.146-0.215-1.72c-0.008-0.123-0.025-0.271-0.039-0.442c1.727-0.421,3.197-1.444,4.156-2.809
	c1.646,1.664,4.362,2.81,7.493,2.995c-0.01,0.093-0.019,0.179-0.021,0.256c-0.065,0.573-0.137,1.149-0.213,1.72
	c0.258,0.077,0.422,0.329,0.358,0.577l-0.631,2.576c-0.043,0.169-0.176,0.297-0.338,0.354c-0.008,0.042-0.021,0.082-0.031,0.124
	c-0.012,0.006-0.02,0.015-0.032,0.019c-0.443,0.156-1.834,0.544-2.865,0.831c-0.291-0.312-0.935-0.547-1.654-0.58
	c-0.936-0.046-1.594,0.566-1.469,1.37c0.123,0.8,0.934,1.186,1.812,0.864c0.658-0.243,1.19-0.646,1.39-1.019
	c0.858-0.236,1.991-0.553,2.642-0.752c-0.101,0.406-0.189,0.817-0.302,1.217c-0.094,0.355-0.42,0.812-0.847,1.217
	c-0.065,0.066-0.141,0.128-0.209,0.188c-0.041,0.033-0.079,0.068-0.118,0.103c-0.065,0.052-0.138,0.102-0.203,0.148
	c-0.049,0.032-0.099,0.072-0.146,0.104c-0.088,0.056-0.17,0.102-0.254,0.15c-0.023,0.012-0.05,0.025-0.07,0.041
	c-0.139,0.069-0.279,0.133-0.42,0.176c-0.746,0.205-1.471,0.31-2.193,0.31c-0.723,0-1.445-0.104-2.191-0.31
	c-0.211-0.067-0.418-0.17-0.621-0.295c-0.092-0.051-0.178-0.108-0.262-0.17c-0.016-0.013-0.029-0.021-0.047-0.033
	c-0.178-0.131-0.35-0.271-0.504-0.422c-0.002-0.002-0.004-0.002-0.004-0.002C25.951,32.781,25.632,32.331,25.542,31.979z"/>
</svg>
