<?xml version="1.0" encoding="utf-8"?>
<!-- Generator: Adobe Illustrator 17.1.0, SVG Export Plug-In . SVG Version: 6.00 Build 0)  -->
<!DOCTYPE svg PUBLIC "-//W3C//DTD SVG 1.1//EN" "http://www.w3.org/Graphics/SVG/1.1/DTD/svg11.dtd">
<svg version="1.1" id="Layer_1" xmlns="http://www.w3.org/2000/svg" xmlns:xlink="http://www.w3.org/1999/xlink" x="0px" y="0px"
	 viewBox="0 0 612 792" enable-background="new 0 0 612 792" xml:space="preserve">
<path fill="#408AC9" d="M612,268.9c0-69.8-56.1-125.9-125.9-125.9c-13.8,0-26.2,2.4-38.6,6.2C440,68.1,371.3,4.6,287.9,4.6
	c-88.4,0-160.8,72.4-160.8,160.8c0,11.3,1.2,21.2,3.8,31.1H99.7C44.8,196.6,0,241.5,0,296.3C0,351.2,44.9,396,99.7,396h397.7
	c28.7,0,54.9-12.5,73.6-32.3C595.7,340,612,306.5,612,268.9z"/>
</svg>
