<?xml version="1.0" encoding="utf-8"?>
<!-- Generator: Adobe Illustrator 17.1.0, SVG Export Plug-In . SVG Version: 6.00 Build 0)  -->
<!DOCTYPE svg PUBLIC "-//W3C//DTD SVG 1.1//EN" "http://www.w3.org/Graphics/SVG/1.1/DTD/svg11.dtd">
<svg version="1.1" id="Layer_1" xmlns="http://www.w3.org/2000/svg" xmlns:xlink="http://www.w3.org/1999/xlink" x="0px" y="0px"
	 viewBox="0 0 176.9 33.1" enable-background="new 0 0 176.9 33.1" xml:space="preserve">
<g>
	<g>
		<g>
			<g>
				<path fill="#FFFFFF" d="M97,3.9c-1.5-0.3-3.5-0.6-5.1-0.6c-4.9,0-6.5,2.6-6.5,4.6c0,4.6,6.7,6.4,6.7,8.7c0,1.3-1.6,1.4-2.5,1.4
					c-1.4,0-4.1-0.9-5.7-1.6l3.5,5.1c1.1,0.2,2.3,0.3,3.5,0.3c4.9,0,6.7-2.5,6.7-4.9c0-4.7-6.7-5.9-6.7-8.5c0-0.9,1.5-1.3,2.3-1.3
					c1.3,0,2.7,0.3,3.9,0.9l0-0.4h5.2v13.9h5.6V7.6h5.5V3.9H97z"/>
				<polygon fill="#FFFFFF" points="134.4,21.5 139.3,21.5 139.3,10.2 139.4,10.2 146.2,21.5 152.7,21.5 152.7,3.9 147.8,3.9 
					147.8,15.3 147.8,15.3 141,3.9 134.4,3.9 134.4,21.5 				"/>
				<polygon fill="#FFFFFF" points="160.2,10.7 160.2,7.6 169,7.6 169,3.9 154.6,3.9 154.6,21.5 169,21.5 169,17.7 160.2,17.7 
					160.2,14.5 167.6,14.5 167.6,10.7 160.2,10.7 				"/>
			</g>
			<path fill="#FFFFFF" d="M122.9,3.5c-6.3,0-10.6,3.3-10.6,9.1c0,5.9,4.3,9.2,10.6,9.2c6.3,0,10.6-3.3,10.6-9.2
				C133.4,6.8,129.1,3.5,122.9,3.5z M122.9,18c-3.4,0-5-2.5-5-5.3c0-2.7,1.6-5.3,5-5.3c3.4,0,5,2.6,5,5.3
				C127.9,15.4,126.2,18,122.9,18z"/>
		</g>
		<g>
			<g>
				<path fill="#FFFFFF" d="M16.5,12.5L16.5,12.5c2.2-0.6,3.2-2.2,3.2-4.3c0-3.2-2.8-4.3-4.3-4.3h-11v17.6h9.2
					c3.9,0,6.7-0.8,6.7-4.7C20.3,14.3,18.7,12.7,16.5,12.5z M9.6,7.3h1.9c1.2,0,2.9,0,2.9,1.4c0,2.2-1.8,2.1-3.3,2.1H9.6V7.3z
					 M11.8,18H9.6v-3.8h2.5c1.4,0,2.9,0,2.9,1.8C15,18,13.4,18,11.8,18z"/>
				<path fill="#FFFFFF" d="M40.5,3.9c-2.2,4.6-4.3,9.3-6.5,13.9h-7.2V3.9h-5.6v17.6H32h2.9h3.2l2.1-5.1h6.5l1.9,5.1h5.9
					C52,15.7,49.3,9.7,47.2,3.9H40.5z M41.5,12.7l2.2-5.1h0.1l1.9,5.1H41.5z"/>
				<path fill="#FFFFFF" d="M58.1,12.7c0-2.4,1.6-5.3,5.9-5.3c1.4,0,2.8,0.3,4.2,0.7L67.8,4c-1.5-0.3-3.1-0.5-4.7-0.5
					c-6.3,0-10.6,3.3-10.6,9.1c0,5.9,4.3,9.2,10.6,9.2c1,0,3.2-0.3,4.8-0.4l0.5-4.2c-1.5,0.4-3.1,0.7-5.2,0.7
					C59.8,18,58.1,15.4,58.1,12.7z"/>
				<polygon fill="#FFFFFF" points="81,12.1 87.1,3.9 80.8,3.9 75.3,12.2 86.9,30.1 93.5,30.1 				"/>
				<rect x="69.4" y="3.9" fill="#FFFFFF" width="5.6" height="17.6"/>
			</g>
			<path fill="#FFFFFF" d="M172.4,4c1,0,1.7,0.8,1.7,1.7c0,1-0.8,1.8-1.7,1.8c-1,0-1.7-0.8-1.7-1.8C170.7,4.8,171.5,4,172.4,4
				L172.4,4z M172.4,4.3c-0.8,0-1.4,0.7-1.4,1.5c0,0.8,0.6,1.5,1.4,1.5c0.8,0,1.4-0.7,1.4-1.5C173.8,4.9,173.2,4.3,172.4,4.3
				L172.4,4.3z M172.1,6.8h-0.3V4.8c0.2,0,0.3,0,0.5,0c0.3,0,0.5,0.1,0.6,0.1c0.1,0.1,0.2,0.2,0.2,0.4c0,0.3-0.2,0.4-0.4,0.5v0
				c0.2,0,0.3,0.2,0.3,0.5c0,0.3,0.1,0.4,0.1,0.5h-0.3c0-0.1-0.1-0.2-0.1-0.5c0-0.2-0.2-0.3-0.4-0.3h-0.2V6.8z M172.1,5.7h0.2
				c0.3,0,0.5-0.1,0.5-0.3c0-0.2-0.1-0.3-0.5-0.3c-0.1,0-0.2,0-0.2,0V5.7z"/>
		</g>
	</g>
</g>
</svg>
