<?xml version="1.0" encoding="utf-8"?>
<!-- Generator: Adobe Illustrator 18.0.0, SVG Export Plug-In . SVG Version: 6.00 Build 0)  -->
<!DOCTYPE svg PUBLIC "-//W3C//DTD SVG 1.1//EN" "http://www.w3.org/Graphics/SVG/1.1/DTD/svg11.dtd">
<svg version="1.1" id="Layer_1" xmlns="http://www.w3.org/2000/svg" xmlns:xlink="http://www.w3.org/1999/xlink" x="0px" y="0px"
	 viewBox="0 0 612 792" enable-background="new 0 0 612 792" xml:space="preserve">
<g id="Layer_2">
</g>
<g id="Layer_3">
</g>
<g id="Layer_1_1_">
	<g>
		<g>
			<path fill="#CE0004" d="M605.9,443.7c0-68.5-55.1-123.6-123.6-123.6c-13.5,0-25.7,2.4-37.9,6.1c-7.3-79.6-74.7-142-156.7-142
				c-86.9,0-157.9,71-157.9,157.9c0,11,1.2,20.8,3.7,30.6h-30.6C49,372.7,5,416.8,5,470.6c0,53.9,44.1,97.9,97.9,97.9h390.5
				c28.2,0,53.9-12.2,72.2-31.8C590,513.5,605.9,480.5,605.9,443.7z"/>
		</g>
		<g>
			<polygon fill="#FFFFFF" points="378.2,355.6 357.4,334.8 324.4,365.4 324.4,476.8 385.6,476.8 385.6,327.5 			"/>
			<path fill="#FFFFFF" d="M268.1,394.8l-18.4-12.2V478h61.2v-99.1L295,393.6c-3.7,3.7-9.8,6.1-14.7,6.1
				C275.4,397.2,271.7,397.2,268.1,394.8z"/>
			<polygon fill="#FFFFFF" points="236.2,374 220.3,364.2 175,403.3 175,476.8 236.2,476.8 			"/>
			<rect x="175" y="492.7" fill="#FFFFFF" width="210.5" height="22"/>
			<path fill="#FFFFFF" d="M188.5,376.4l30.6-26.9l56.3,35.5c1.2,1.2,3.7,1.2,4.9,1.2c2.4,0,4.9-1.2,6.1-2.4l71-66.1l13.5,13.5
				l13.5-50.2l-50.2,13.5l9.8,9.8l-66.1,61.2L221.6,330c-3.7-2.4-7.3-1.2-11,1.2L175,361.7c-3.7,3.7-3.7,8.6-1.2,12.2
				C179.9,378.9,184.8,378.9,188.5,376.4z"/>
		</g>
	</g>
</g>
</svg>
