<?xml version="1.0" encoding="utf-8"?>
<!-- Generator: Adobe Illustrator 18.1.1, SVG Export Plug-In . SVG Version: 6.00 Build 0)  -->
<!DOCTYPE svg PUBLIC "-//W3C//DTD SVG 1.1//EN" "http://www.w3.org/Graphics/SVG/1.1/DTD/svg11.dtd">
<svg version="1.1" id="Layer_1" xmlns="http://www.w3.org/2000/svg" xmlns:xlink="http://www.w3.org/1999/xlink" x="0px" y="0px"
	 viewBox="0 249.3 841.9 95" enable-background="new 0 249.3 841.9 95" xml:space="preserve">
<g>
	<g>
		<g>
			<path fill="#408AC9" d="M173.1,323.8c3.5,0.7,7,1.2,10.7,1.2c9.8,0,13.5-4.9,13.5-9.8c0-9.3-13.5-11.6-13.5-17
				c0-1.9,3-2.6,4.6-2.6c2.6,0,5.3,0.7,7.9,1.9l-1.2-8.4c-3-0.7-6.3-0.9-9.3-0.9c-9.8,0-13,5.1-13,9.3c0,9.1,13.5,12.5,13.5,17.2
				c0,2.6-3,2.8-4.9,2.8c-3,0-9.8-2.3-12.5-3.5L173.1,323.8L173.1,323.8z"/>
			<polygon fill="#408AC9" points="194.5,297.1 205.9,297.1 205.9,324.7 217.5,324.7 217.5,297.1 228.7,297.1 228.7,289.4 
				194.5,289.4 			"/>
			<path fill="#408AC9" d="M247.7,324.9c12.5,0,21.1-6.5,21.1-18.4c0-11.6-8.6-18.4-21.1-18.4s-21.1,6.5-21.1,18.4
				C226.6,318.4,235.2,324.9,247.7,324.9L247.7,324.9z M247.7,296.1c6.7,0,10,5.1,10,10.7s-3.3,10.5-10,10.5c-6.7,0-10-5.1-10-10.5
				C237.7,301.2,241,296.1,247.7,296.1L247.7,296.1z"/>
			<path fill="#408AC9" d="M247.7,288.5c-12.5,0-21.1,6.5-21.1,18.4s8.6,18.4,21.1,18.4c12.5,0,21.1-6.5,21.1-18.4
				C268.9,295,260.3,288.5,247.7,288.5z M247.7,317.3c-6.7,0-10-5.1-10-10.5c0-5.6,3.3-10.7,10-10.7c6.7,0,10,5.1,10,10.7
				C257.7,312.2,254.4,317.3,247.7,317.3z"/>
			<polygon fill="#408AC9" points="270.9,324.5 280.7,324.5 280.7,301.7 280.7,301.7 294.4,324.5 307.4,324.5 307.4,288.9 
				297.7,288.9 297.7,311.9 297.7,311.9 284,288.9 270.9,288.9 			"/>
			<polygon fill="#408AC9" points="322.5,302.9 322.5,296.6 340.2,296.6 340.2,288.9 311.4,288.9 311.4,324.5 340.2,324.5 
				340.2,316.8 322.5,316.8 322.5,310.3 337.4,310.3 337.4,302.9 			"/>
			<path fill="#408AC9" d="M9.8,324.5h18.6c7.7,0,13.5-1.6,13.5-9.5c0-4.9-3.3-8.1-7.7-8.6l0,0c4.4-1.2,6.3-4.4,6.3-8.6
				c0-6.3-5.6-8.6-8.6-8.6H9.8V324.5L9.8,324.5z M20.4,309.8h4.9c2.8,0,5.8,0,5.8,3.7s-3,4-6.3,4h-4.4V309.8L20.4,309.8z
				 M20.4,295.9h3.7c2.3,0,5.8,0,5.8,2.8c0,4.4-3.7,4.2-6.7,4.2h-2.8L20.4,295.9L20.4,295.9z"/>
			<polygon fill="#408AC9" points="43.7,324.5 71.1,324.5 71.1,316.8 54.8,316.8 54.8,288.9 43.7,288.9 			"/>
			<path fill="#408AC9" d="M77.6,324.5l4.2-10.2h13l3.7,10.2h11.9c-4.9-11.6-10.5-23.7-14.6-35.3H82.3c-5.6,11.9-10.9,23.9-17,35.3
				H77.6L77.6,324.5z M84.4,306.8l4.4-10.2l0,0l3.7,10.2H84.4L84.4,306.8z"/>
			<path fill="#408AC9" d="M138.3,315.9c-3,0.7-6,1.4-10.5,1.4c-6.7,0-10-5.1-10-10.5c0-4.6,3.3-10.7,11.9-10.7
				c2.8,0,5.6,0.7,8.4,1.4l-0.9-8.1c-3-0.5-6.3-0.9-9.3-0.9c-12.5,0-21.1,6.5-21.1,18.4s8.6,18.4,21.1,18.4c2.1,0,6.3-0.5,9.5-0.7
				L138.3,315.9L138.3,315.9z"/>
			<path fill="#408AC9" d="M140.4,324.5h11.2v-35.6h-11.2V324.5L140.4,324.5z M152.2,305.7l23.2,36h13.2l-24.9-36l12.3-16.5h-12.5
				L152.2,305.7L152.2,305.7z"/>
		</g>
		<path fill="#408AC9" d="M347.2,289.4c1.9,0,3.5,1.6,3.5,3.5c0,1.9-1.6,3.5-3.5,3.5s-3.5-1.6-3.5-3.5
			C343.7,290.8,345.1,289.4,347.2,289.4L347.2,289.4z M346.9,289.9c-1.6,0-2.8,1.4-2.8,3c0,1.6,1.2,3,2.8,3c1.6,0,2.8-1.4,2.8-3
			C350,291.2,348.6,289.9,346.9,289.9L346.9,289.9z M346.5,294.7h-0.7v-4c0.2,0,0.7,0,1.2,0c0.7,0,0.9,0.2,1.2,0.2
			c0.2,0.2,0.5,0.5,0.5,0.7c0,0.5-0.2,0.9-0.7,0.9l0,0c0.2,0,0.5,0.5,0.7,0.9c0,0.7,0.2,0.9,0.2,0.9h-0.7c0-0.2-0.2-0.5-0.2-0.9
			c0-0.5-0.2-0.7-0.9-0.7h-0.5v2H346.5z M346.5,292.6h0.5c0.5,0,0.9-0.2,0.9-0.7c0-0.2-0.2-0.7-0.9-0.7c-0.2,0-0.2,0-0.5,0V292.6z"
			/>
	</g>
</g>
<g enable-background="new    ">
	<path fill="#408AC9" d="M519.3,317.5l-10.4-32h4.5l5,15.8c1.4,4.3,2.6,8.2,3.4,12h0.1c0.9-3.7,2.2-7.7,3.7-11.9l5.4-15.8h4.4
		l-11.4,32h-4.7V317.5z"/>
	<path fill="#408AC9" d="M542.9,285.5v32h-4.1v-32H542.9z"/>
	<path fill="#408AC9" d="M550.1,286c2.1-0.4,5.1-0.7,7.9-0.7c4.4,0,7.3,0.8,9.3,2.6c1.6,1.4,2.5,3.6,2.5,6.1c0,4.2-2.7,7-6,8.2v0.1
		c2.5,0.9,3.9,3.1,4.7,6.5c1,4.5,1.8,7.5,2.5,8.8h-4.3c-0.5-0.9-1.2-3.7-2.1-7.6c-0.9-4.4-2.7-6.1-6.4-6.2h-3.9v13.9h-4.1V286H550.1
		z M554.2,300.5h4.2c4.4,0,7.2-2.4,7.2-6.1c0-4.1-3-5.9-7.4-6c-2,0-3.4,0.2-4.1,0.4L554.2,300.5L554.2,300.5z"/>
	<path fill="#408AC9" d="M582.1,289h-9.7v-3.5h23.7v3.5h-9.8v28.5h-4.2V289z"/>
	<path fill="#408AC9" d="M603.8,285.5v18.9c0,7.2,3.2,10.2,7.5,10.2c4.7,0,7.8-3.1,7.8-10.2v-18.9h4.2v18.6
		c0,9.8-5.2,13.9-12.1,13.9c-6.5,0-11.5-3.7-11.5-13.7v-18.8H603.8z"/>
	<path fill="#408AC9" d="M633.9,307.4l-3.3,10.1h-4.3l10.9-32h5l10.9,32h-4.4l-3.4-10.1H633.9z M644.4,304.2l-3.1-9.2
		c-0.7-2.1-1.2-4-1.7-5.8h-0.1c-0.5,1.9-1,3.8-1.6,5.8l-3.1,9.3L644.4,304.2L644.4,304.2z"/>
	<path fill="#408AC9" d="M657.8,285.5h4.1V314h13.7v3.5h-17.8V285.5z"/>
</g>
<g enable-background="new    ">
	<path fill="#408AC9" d="M720.2,301.2c0,10.5-6.4,16.8-15.7,16.8c-9.5,0-15-7.2-15-16.3c0-9.6,6.1-16.8,15.6-16.8
		C714.9,285,720.2,292.4,720.2,301.2z M697.1,301.6c0,6.3,2.9,10.7,7.8,10.7c4.9,0,7.7-4.7,7.7-10.9c0-5.7-2.8-10.7-7.7-10.7
		C700,290.7,697.1,295.4,697.1,301.6z"/>
	<path fill="#408AC9" d="M725,285.5h19.6v5.9h-12.3v7.3h11.5v5.9h-11.5v12.9H725V285.5z"/>
	<path fill="#408AC9" d="M750,285.5h19.6v5.9h-12.3v7.3h11.5v5.9h-11.5v12.9H750V285.5z"/>
	<path fill="#408AC9" d="M782.3,285.5v32H775v-32H782.3z"/>
	<path fill="#408AC9" d="M812,316.6c-1.3,0.7-4.3,1.4-8.2,1.4c-11.1,0-16.8-6.9-16.8-16c0-10.9,7.8-17,17.5-17
		c3.7,0,6.6,0.8,7.9,1.4l-1.5,5.7c-1.5-0.6-3.5-1.2-6.1-1.2c-5.7,0-10.2,3.5-10.2,10.6c0,6.4,3.8,10.4,10.2,10.4c2.2,0,4.6-0.5,6-1
		L812,316.6z"/>
	<path fill="#408AC9" d="M835.8,304H824v7.6h13.1v5.9h-20.4v-32h19.7v5.9H824v6.6h11.8V304z"/>
</g>
<g>
	<g>
		<path fill="#408AC9" d="M492.6,306.8c0-13.7-11.2-24.9-24.9-24.9c-2.6,0-5.1,0.5-7.7,1.2c-1.6-16-15.1-28.6-31.6-28.6
			c-17.4,0-31.6,14.2-31.6,31.6c0,2.1,0.2,4.2,0.7,6.3h-5.8c-10.9,0-19.5,8.8-19.5,19.5c0,10.9,8.8,19.5,19.5,19.5H470
			c5.8,0,10.9-2.6,14.4-6.5C489.4,320.8,492.6,314.3,492.6,306.8z"/>
	</g>
	<g>
		<polygon fill="#FFFFFF" points="446.6,289.2 442.4,285 435.9,291 435.9,313.6 448.2,313.6 448.2,283.3 		"/>
		<path fill="#FFFFFF" d="M424.5,296.8l-3.7-2.6v19.1h12.3v-19.8l-3.3,3c-0.7,0.7-1.9,1.2-3,1.2
			C426.2,297.5,425.5,297.3,424.5,296.8z"/>
		<polygon fill="#FFFFFF" points="418.3,292.6 415,290.8 406,298.7 406,313.6 418.3,313.6 		"/>
		<rect x="406" y="316.6" fill="#FFFFFF" width="42.3" height="4.4"/>
		<path fill="#FFFFFF" d="M408.7,293.1l6-5.3l11.2,7.2c0.2,0.2,0.7,0.2,0.9,0.2c0.5,0,0.9-0.2,1.2-0.5l14.4-13.2l2.8,2.8l2.8-10
			l-10,2.8l2.1,2.1l-13.2,12.3l-11.2-7.2c-0.7-0.5-1.6-0.5-2.1,0.2l-7,6.3c-0.7,0.7-0.7,1.9-0.2,2.6
			C406.9,293.8,408,293.8,408.7,293.1z"/>
	</g>
</g>
</svg>
