<?xml version="1.0" encoding="utf-8"?>
<!-- Generator: Adobe Illustrator 15.0.0, SVG Export Plug-In . SVG Version: 6.00 Build 0)  -->
<!DOCTYPE svg PUBLIC "-//W3C//DTD SVG 1.1//EN" "http://www.w3.org/Graphics/SVG/1.1/DTD/svg11.dtd">
<svg version="1.1" id="Layer_1" xmlns="http://www.w3.org/2000/svg" xmlns:xlink="http://www.w3.org/1999/xlink" x="0px" y="0px"
	 width="60px" height="60px" viewBox="0 0 60 60" enable-background="new 0 0 60 60" xml:space="preserve">
<path fill="#FFFFFF" d="M43.926,36.374c-3.18-1.515-6.582-2.472-10.049-2.883c0.118-0.821,0.234-1.646,0.352-2.468
	c0.771-0.493,1.324-1.219,1.373-1.825c0.092-0.763,0.181-1.525,0.269-2.29c0.106,0.111,0.25,0.19,0.414,0.209
	c0.366,0.037,0.692-0.229,0.729-0.595l0.365-3.525c0.039-0.365-0.229-0.69-0.593-0.728c-0.14-0.016-0.271,0.015-0.386,0.077
	c0.078-0.67,0.156-1.338,0.229-2.012c0.063-0.918,0.521-3.37-1.252-4.95c-2.562-2.514-8.196-2.514-10.757,0
	c-1.77,1.581-1.316,4.032-1.254,4.95c0.078,0.673,0.158,1.341,0.233,2.012c-0.112-0.062-0.248-0.092-0.387-0.077
	c-0.362,0.037-0.63,0.363-0.592,0.728l0.365,3.525c0.035,0.366,0.361,0.631,0.728,0.595c0.166-0.019,0.309-0.098,0.415-0.209
	c0.088,0.764,0.178,1.526,0.268,2.29c0.053,0.604,0.605,1.332,1.375,1.825c0.116,0.82,0.232,1.645,0.347,2.468
	c-3.462,0.411-6.865,1.368-10.046,2.883c-1.025,0.54-1.745,1.933-1.635,3.013c0.118,1.238,0.242,2.479,0.37,3.715
	c0.11,1.08,1.037,2.147,2.062,2.347c8.709,1.403,17.548,1.403,26.259,0c1.023-0.198,1.95-1.267,2.061-2.347
	c0.129-1.236,0.25-2.477,0.371-3.715C45.667,38.307,44.952,36.911,43.926,36.374z"/>
<g>
	<path fill-rule="evenodd" clip-rule="evenodd" fill="#E5E5E4" d="M745.72-1262.81h69.798v-8.738
		c0-6.722-5.518-12.242-12.239-12.242H767.01l-5.429,5.44c-0.804,0.806-2.138,0.806-2.939,0c-0.807-0.803-0.807-2.133,0-2.946
		l2.495-2.494h-25.763l10.346,10.354V-1262.81z"/>
	<polygon fill-rule="evenodd" clip-rule="evenodd" fill="#E5E5E4" points="773.052,-1252.778 773.052,-1232.805 815.518,-1232.805 
		815.518,-1258.661 778.886,-1258.661 	"/>
	<path fill-rule="evenodd" clip-rule="evenodd" fill="#E5E5E4" d="M769.551-1206.266h-17.274v11.916l16.707,16.714h34.295
		c6.722,0,12.239-5.514,12.239-12.238v-8.74h-38.32L769.551-1206.266z"/>
	<polygon fill-rule="evenodd" clip-rule="evenodd" fill="#E5E5E4" points="773.052,-1208.641 778.886,-1202.765 815.518,-1202.765 
		815.518,-1228.62 773.052,-1228.62 	"/>
	<path fill-rule="evenodd" clip-rule="evenodd" fill="#E5E5E4" d="M741.574-1271.712l-12.078-12.078h-45.436
		c-6.769,0-12.238,5.52-12.238,12.242v8.738h69.752V-1271.712z"/>
	<path fill-rule="evenodd" clip-rule="evenodd" fill="#E5E5E4" d="M830.288-1320.839H614.824l-64.96,64.996v110.505
		c0,11.59,9.494,21.143,21.126,21.143h259.298c11.627,0,21.135-9.553,21.135-21.143v-154.353
		C851.423-1311.331,841.915-1320.839,830.288-1320.839z M667.832-1273.321c0-8.053,6.565-14.613,14.611-14.613h122.405
		c8.05,0,14.61,6.56,14.61,14.613v85.213c0,8.053-6.561,14.623-14.61,14.623H682.443c-8.046,0-14.611-6.57-14.611-14.623V-1273.321z
		 M841.557-1149.429c0,9.152-7.52,16.641-16.672,16.641H576.398c-8.648,0-15.855-6.711-16.591-15.167l0.349-0.039
		c1.468,5.74,6.668,9.969,12.828,9.969h249.343c7.247,0,13.218-5.939,13.218-13.229v-147.808c0-6.24-4.379-11.477-10.195-12.876
		v-0.346c8.958,0.23,16.207,7.643,16.207,16.636V-1149.429z"/>
	<path fill-rule="evenodd" clip-rule="evenodd" fill="#E5E5E4" d="M684.061-1177.636h49.948l6.64-6.603
		c0.803-0.804,2.132-0.804,2.944,0c0.798,0.806,0.798,2.132,0,2.938l-3.711,3.664h23.229l-14.979-14.982c0-5.917,0-11.878,0-17.797
		h20.772v-38.215v-5.882l4.108-4.148H713.96l4.112,4.148v5.882v35.839v5.878l-8.293,8.299h-37.957v8.74
		C671.822-1183.149,677.292-1177.636,684.061-1177.636z"/>
	<polygon fill-rule="evenodd" clip-rule="evenodd" fill="#E5E5E4" points="713.925,-1252.778 708.086,-1258.661 671.822,-1258.661 
		671.822,-1232.805 713.925,-1232.805 	"/>
	<polygon fill-rule="evenodd" clip-rule="evenodd" fill="#E5E5E4" points="713.925,-1208.641 713.925,-1228.62 671.822,-1228.62 
		671.822,-1202.765 708.086,-1202.765 	"/>
</g>
<g>
	<path fill-rule="evenodd" clip-rule="evenodd" fill="#E5E5E4" d="M745.72-1262.81h69.798v-8.738
		c0-6.722-5.518-12.242-12.239-12.242H767.01l-5.429,5.44c-0.804,0.806-2.138,0.806-2.939,0c-0.807-0.803-0.807-2.133,0-2.946
		l2.495-2.494h-25.763l10.346,10.354V-1262.81z"/>
	<polygon fill-rule="evenodd" clip-rule="evenodd" fill="#E5E5E4" points="773.052,-1252.778 773.052,-1232.805 815.518,-1232.805 
		815.518,-1258.661 778.886,-1258.661 	"/>
	<path fill-rule="evenodd" clip-rule="evenodd" fill="#E5E5E4" d="M769.551-1206.266h-17.274v11.916l16.707,16.714h34.295
		c6.722,0,12.239-5.514,12.239-12.238v-8.74h-38.32L769.551-1206.266z"/>
	<polygon fill-rule="evenodd" clip-rule="evenodd" fill="#E5E5E4" points="773.052,-1208.641 778.886,-1202.765 815.518,-1202.765 
		815.518,-1228.62 773.052,-1228.62 	"/>
	<path fill-rule="evenodd" clip-rule="evenodd" fill="#E5E5E4" d="M741.574-1271.712l-12.078-12.078h-45.436
		c-6.769,0-12.238,5.52-12.238,12.242v8.738h69.752V-1271.712z"/>
	<path fill-rule="evenodd" clip-rule="evenodd" fill="#E5E5E4" d="M830.288-1320.839H614.824l-64.96,64.996v110.505
		c0,11.59,9.494,21.143,21.126,21.143h259.298c11.627,0,21.135-9.553,21.135-21.143v-154.353
		C851.423-1311.331,841.915-1320.839,830.288-1320.839z M667.832-1273.321c0-8.053,6.565-14.613,14.611-14.613h122.405
		c8.05,0,14.61,6.56,14.61,14.613v85.213c0,8.053-6.561,14.623-14.61,14.623H682.443c-8.046,0-14.611-6.57-14.611-14.623V-1273.321z
		 M841.557-1149.429c0,9.152-7.52,16.641-16.672,16.641H576.398c-8.648,0-15.855-6.711-16.591-15.167l0.349-0.039
		c1.468,5.74,6.668,9.969,12.828,9.969h249.343c7.247,0,13.218-5.939,13.218-13.229v-147.808c0-6.24-4.379-11.477-10.195-12.876
		v-0.346c8.958,0.23,16.207,7.643,16.207,16.636V-1149.429z"/>
	<path fill-rule="evenodd" clip-rule="evenodd" fill="#E5E5E4" d="M684.061-1177.636h49.948l6.64-6.603
		c0.803-0.804,2.132-0.804,2.944,0c0.798,0.806,0.798,2.132,0,2.938l-3.711,3.664h23.229l-14.979-14.982c0-5.917,0-11.878,0-17.797
		h20.772v-38.215v-5.882l4.108-4.148H713.96l4.112,4.148v5.882v35.839v5.878l-8.293,8.299h-37.957v8.74
		C671.822-1183.149,677.292-1177.636,684.061-1177.636z"/>
	<polygon fill-rule="evenodd" clip-rule="evenodd" fill="#E5E5E4" points="713.925,-1252.778 708.086,-1258.661 671.822,-1258.661 
		671.822,-1232.805 713.925,-1232.805 	"/>
	<polygon fill-rule="evenodd" clip-rule="evenodd" fill="#E5E5E4" points="713.925,-1208.641 713.925,-1228.62 671.822,-1228.62 
		671.822,-1202.765 708.086,-1202.765 	"/>
</g>
</svg>
