<?xml version="1.0" encoding="utf-8"?>
<!-- Generator: Adobe Illustrator 15.0.0, SVG Export Plug-In . SVG Version: 6.00 Build 0)  -->
<!DOCTYPE svg PUBLIC "-//W3C//DTD SVG 1.1//EN" "http://www.w3.org/Graphics/SVG/1.1/DTD/svg11.dtd">
<svg version="1.1" id="Layer_1" xmlns="http://www.w3.org/2000/svg" xmlns:xlink="http://www.w3.org/1999/xlink" x="0px" y="0px"
	 width="60px" height="60px" viewBox="0 0 60 60" enable-background="new 0 0 60 60" xml:space="preserve">
<g>
	<path fill="#FFFFFF" d="M43.65,37.339c-2.865-1.213-5.914-2.01-9.021-2.409l2.148,4.706l-3.172,6.443
		c3.097-0.121,6.185-0.402,9.26-0.84c1.005-0.177,1.908-1.105,2.021-2.046c0.127-1.075,0.244-2.153,0.363-3.231
		C45.357,39.02,44.652,37.809,43.65,37.339z"/>
	<path fill="#FFFFFF" d="M25.197,34.95c-3.046,0.407-6.035,1.196-8.846,2.389c-1.006,0.47-1.71,1.681-1.604,2.623
		c0.119,1.078,0.24,2.156,0.365,3.231c0.108,0.938,1.015,1.869,2.021,2.046c3.019,0.43,6.053,0.704,9.092,0.834l-3.17-6.438
		L25.197,34.95z"/>
	<polygon fill="#FFFFFF" points="31.18,36.439 28.657,36.439 27.399,37.845 28.657,40.807 27.836,46.188 32.002,46.188 
		31.18,40.807 32.439,37.845 	"/>
	<path fill="#FFFFFF" d="M34.145,30.986c0.756-0.483,1.297-1.192,1.349-1.788c0.087-0.748,0.174-1.494,0.261-2.244
		c0.104,0.111,0.244,0.189,0.407,0.207c0.356,0.035,0.677-0.225,0.714-0.582l0.357-3.455c0.037-0.359-0.224-0.68-0.58-0.715
		c-0.139-0.014-0.27,0.014-0.377,0.076c0.074-0.656,0.149-1.314,0.229-1.971c0.062-0.898,0.504-3.301-1.229-4.852
		c-2.512-2.465-8.031-2.465-10.543,0c-1.734,1.551-1.288,3.953-1.229,4.852c0.073,0.656,0.152,1.314,0.229,1.971
		c-0.113-0.061-0.242-0.09-0.379-0.076c-0.358,0.035-0.617,0.355-0.58,0.715l0.357,3.455c0.037,0.357,0.355,0.617,0.714,0.582
		c0.162-0.018,0.304-0.096,0.407-0.207c0.088,0.75,0.174,1.496,0.262,2.244c0.051,0.596,0.593,1.305,1.347,1.786
		c0.153,1.086,0.307,2.171,0.46,3.255c0.051,0.483,0.816,1.108,1.697,1.264c1.314,0.183,2.657,0.183,3.973,0
		c0.881-0.153,1.646-0.778,1.697-1.264C33.838,33.155,33.988,32.07,34.145,30.986z"/>
</g>
</svg>
