<?xml version="1.0" encoding="utf-8"?>
<!-- Generator: Adobe Illustrator 15.0.0, SVG Export Plug-In . SVG Version: 6.00 Build 0)  -->
<!DOCTYPE svg PUBLIC "-//W3C//DTD SVG 1.1//EN" "http://www.w3.org/Graphics/SVG/1.1/DTD/svg11.dtd">
<svg version="1.1" id="Layer_1" xmlns="http://www.w3.org/2000/svg" xmlns:xlink="http://www.w3.org/1999/xlink" x="0px" y="0px"
	 width="60px" height="60px" viewBox="0 0 60 60" enable-background="new 0 0 60 60" xml:space="preserve">
<g>
	<g>
		<g>
			<path fill="#FFFFFF" d="M20.921,22.437h14.763c0.51,0,0.924-0.414,0.924-0.924c0-0.509-0.414-0.923-0.924-0.923H20.921
				c-0.511,0-0.925,0.414-0.925,0.923C19.996,22.022,20.41,22.437,20.921,22.437z"/>
			<path fill="#FFFFFF" d="M28.92,32.277h-7.999c-0.511,0-0.925,0.414-0.925,0.923c0,0.51,0.414,0.924,0.925,0.924h8.335
				C29.068,33.578,28.951,32.965,28.92,32.277z"/>
			<path fill="#FFFFFF" d="M28.85,39.688H18.456V19.538h4.514c0.524,0,0.949-0.425,0.949-0.949v-4.125h13.61v7.371h2.461v-8.602
				c0-0.68-0.551-1.23-1.23-1.23H22.764c-0.319,0-0.625,0.123-0.854,0.345l-5.538,5.33c-0.241,0.232-0.378,0.552-0.378,0.887V40.92
				c0,0.68,0.551,1.23,1.23,1.23h10.095L28.85,39.688z"/>
			<path fill="#FFFFFF" d="M29.77,28.382h-8.849c-0.511,0-0.925,0.414-0.925,0.923c0,0.51,0.414,0.924,0.925,0.924h8.184
				C29.25,29.572,29.459,28.947,29.77,28.382z"/>
			<path fill="#FFFFFF" d="M34.607,24.804l0.05-0.318H20.921c-0.511,0-0.925,0.414-0.925,0.923c0,0.51,0.414,0.924,0.925,0.924
				h10.611C32.385,25.653,33.41,25.123,34.607,24.804z"/>
		</g>
	</g>
	<path fill="#FFFFFF" d="M38.758,33.67c1.777,0.999,3.777,2.389,3.777,5.385c0,2.943-2.11,5.137-5.026,5.94l-0.475,3.003h-4.716
		l0.471-2.751c-1.889-0.306-3.945-1.388-4.609-2.138L30.734,39c1.221,1.029,2.942,1.807,4.19,1.807c0.996,0,1.748-0.277,1.748-1.195
		c0-0.942-0.827-1.497-1.942-2.055c-1.916-0.942-4.469-2.108-4.469-5.498c0-3.191,2.195-5.356,5.359-5.941l0.417-2.666h4.72
		l-0.444,2.751c1.473,0.388,2.664,0.86,3.692,1.636L41.7,31.617c-1.556-1.057-2.974-1.445-3.97-1.445
		c-0.666,0-1.586,0.252-1.586,1.167C36.146,32.309,37.369,32.865,38.758,33.67z"/>
</g>
</svg>
