<?xml version="1.0" encoding="utf-8"?>
<!-- Generator: Adobe Illustrator 15.0.0, SVG Export Plug-In . SVG Version: 6.00 Build 0)  -->
<!DOCTYPE svg PUBLIC "-//W3C//DTD SVG 1.1//EN" "http://www.w3.org/Graphics/SVG/1.1/DTD/svg11.dtd">
<svg version="1.1" id="Layer_1" xmlns="http://www.w3.org/2000/svg" xmlns:xlink="http://www.w3.org/1999/xlink" x="0px" y="0px"
	 width="60px" height="60px" viewBox="0 0 60 60" enable-background="new 0 0 60 60" xml:space="preserve">
<g>
	<g>
		<path fill="#FFFFFF" d="M20.428,20.828h2.379c0.358,0,0.65-0.293,0.65-0.652v-5.234c0-0.359-0.292-0.65-0.65-0.65h-2.379
			c-0.361,0-0.652,0.291-0.652,0.65v5.234C19.776,20.535,20.067,20.828,20.428,20.828z"/>
		<path fill="#FFFFFF" d="M37.197,20.828h2.381c0.359,0,0.65-0.293,0.65-0.652v-5.234c0-0.359-0.291-0.65-0.65-0.65h-2.381
			c-0.361,0-0.652,0.291-0.652,0.65v5.234C36.545,20.535,36.836,20.828,37.197,20.828z"/>
		<path fill="#FFFFFF" d="M42.381,16.793h-0.838v3.383c0,1.084-0.881,1.969-1.965,1.969h-2.381c-1.084,0-1.969-0.885-1.969-1.969
			v-3.383H24.774v3.383c0,1.084-0.883,1.969-1.967,1.969h-2.379c-1.084,0-1.969-0.885-1.969-1.969v-3.383h-0.843
			c-2.089,0-3.786,1.697-3.786,3.787v7.027V41.92c0,2.094,1.697,3.789,3.786,3.789H42.38c2.097,0,3.789-1.695,3.789-3.789V27.607
			V20.58C46.17,18.49,44.477,16.793,42.381,16.793z M43.775,41.92c0,0.768-0.625,1.393-1.396,1.393H17.617
			c-0.766,0-1.388-0.625-1.388-1.393V27.607h27.546V41.92z"/>
	</g>
	<g>
		<path fill="#FFFFFF" d="M22.253,40.322v-1.404l1.268-1.146c2.185-1.955,3.239-3.069,3.255-4.229c0-0.81-0.475-1.451-1.619-1.451
			c-0.855,0-1.604,0.429-2.124,0.812l-0.655-1.65c0.732-0.564,1.907-1.023,3.236-1.023c2.262,0,3.484,1.314,3.484,3.102
			c0,1.68-1.191,3.008-2.643,4.291l-0.919,0.764v0.031h3.759v1.908h-7.042V40.322z"/>
		<path fill="#FFFFFF" d="M37.348,32.305h-3.85l-0.213,1.527c0.213-0.031,0.396-0.031,0.641-0.031c0.947,0,1.928,0.213,2.613,0.719
			c0.748,0.504,1.207,1.328,1.207,2.488c0,1.848-1.59,3.482-4.262,3.482c-1.207,0-2.215-0.273-2.767-0.564l0.429-1.742
			c0.428,0.215,1.332,0.49,2.229,0.49c0.963,0,1.985-0.459,1.985-1.514c0-1.023-0.811-1.648-2.797-1.648
			c-0.547,0-0.932,0.029-1.328,0.092l0.644-5.208h5.468V32.305L37.348,32.305z"/>
	</g>
</g>
</svg>
