<?xml version="1.0" encoding="utf-8"?>
<!-- Generator: Adobe Illustrator 15.0.0, SVG Export Plug-In . SVG Version: 6.00 Build 0)  -->
<!DOCTYPE svg PUBLIC "-//W3C//DTD SVG 1.1//EN" "http://www.w3.org/Graphics/SVG/1.1/DTD/svg11.dtd">
<svg version="1.1" id="Layer_1" xmlns="http://www.w3.org/2000/svg" xmlns:xlink="http://www.w3.org/1999/xlink" x="0px" y="0px"
	 width="60px" height="60px" viewBox="0 0 60 60" enable-background="new 0 0 60 60" xml:space="preserve">
<g>
	<path fill="#FFFFFF" d="M29.458,27.178c-0.254,0.275-0.574,0.547-0.959,0.816c-0.213,0.145-0.57,0.447-1.07,0.908
		c-0.5,0.459-1.062,1.012-1.684,1.657c-0.15,0.159-0.289,0.379-0.416,0.655c-0.125,0.279-0.186,0.502-0.186,0.67
		c0,0.267,0.098,0.49,0.293,0.687c0.197,0.19,0.469,0.289,0.82,0.289h5.16c0.309,0,0.54-0.08,0.691-0.238s0.228-0.352,0.228-0.582
		c0-0.258-0.097-0.459-0.287-0.611c-0.19-0.147-0.471-0.221-0.834-0.221h-3.661c0.117-0.18,0.232-0.332,0.346-0.457
		c0.26-0.318,0.742-0.766,1.445-1.342c0.705-0.574,1.205-0.994,1.503-1.264c0.299-0.268,0.594-0.639,0.881-1.115
		c0.285-0.473,0.433-1,0.433-1.578c0-0.371-0.067-0.727-0.207-1.07c-0.14-0.346-0.332-0.648-0.58-0.91
		c-0.247-0.26-0.534-0.467-0.86-0.613c-0.506-0.227-1.116-0.338-1.833-0.338c-0.59,0-1.107,0.088-1.551,0.264
		c-0.441,0.174-0.807,0.404-1.094,0.688c-0.287,0.287-0.504,0.604-0.646,0.953c-0.146,0.354-0.22,0.691-0.22,1.01
		c0,0.27,0.079,0.479,0.233,0.633c0.152,0.154,0.346,0.232,0.58,0.232c0.268,0,0.471-0.086,0.605-0.252
		c0.139-0.17,0.264-0.41,0.373-0.725c0.109-0.312,0.189-0.502,0.234-0.576c0.352-0.535,0.834-0.803,1.445-0.803
		c0.287,0,0.557,0.064,0.803,0.195c0.246,0.129,0.439,0.314,0.582,0.547c0.141,0.24,0.213,0.508,0.213,0.805
		c0,0.277-0.068,0.559-0.199,0.848C29.906,26.624,29.712,26.905,29.458,27.178z"/>
	<path fill="#FFFFFF" d="M38.598,22.45c-0.221,0-0.408,0.072-0.565,0.221c-0.155,0.148-0.354,0.385-0.599,0.713l-3.716,4.969
		c-0.103,0.135-0.19,0.252-0.259,0.344c-0.07,0.092-0.137,0.193-0.203,0.291c-0.066,0.1-0.115,0.195-0.146,0.287
		c-0.034,0.092-0.053,0.182-0.053,0.27c0,0.346,0.111,0.619,0.336,0.82c0.221,0.201,0.555,0.303,1,0.303h3.517v1.302
		c0,0.353,0.082,0.615,0.241,0.798c0.162,0.178,0.373,0.268,0.638,0.268c0.267,0,0.478-0.086,0.637-0.262
		c0.158-0.179,0.24-0.445,0.24-0.803v-1.303h0.426c0.354,0,0.621-0.064,0.802-0.188c0.178-0.121,0.264-0.32,0.264-0.592
		c0-0.332-0.108-0.549-0.324-0.643c-0.221-0.1-0.508-0.15-0.865-0.15h-0.301V23.67C39.664,22.858,39.307,22.45,38.598,22.45z
		 M37.908,29.094h-3.014l3.014-4.074V29.094z"/>
	<path fill="#FFFFFF" d="M30.292,12.518c-3.431,0-6.736,1.016-9.561,2.949c-0.727,0.494-0.914,1.49-0.417,2.217
		s1.489,0.914,2.216,0.418c2.293-1.57,4.975-2.396,7.762-2.396c7.586,0,13.758,6.174,13.758,13.76c0,3.486-1.305,6.812-3.678,9.365
		c-0.601,0.646-0.562,1.651,0.084,2.25c0.306,0.287,0.694,0.428,1.084,0.428c0.428,0,0.854-0.17,1.17-0.508
		c2.922-3.144,4.531-7.24,4.531-11.535C47.242,20.12,39.639,12.518,30.292,12.518z"/>
	<path fill="#FFFFFF" d="M29.795,36.67c-0.407,0.895,0.015,2.049-1.575,2.023c-0.701-0.01-2.611-1.955-3.912-3.375
		c-1.143-1.359-3.553-4.336-3.443-5.173c0.207-1.576,1.287-0.994,2.23-1.262c0.348-0.104,1.094-5.846-4.338-11.631
		c-0.178-0.189-0.858-0.262-1.387,0.137c-1.6,1.199-3.465,2.562-4.225,5.477c-0.572,2.209-1.361,5.686,4.599,13.755
		c0.484,0.791,1.249,1.762,2.37,2.947c0.214,0.231,0.418,0.442,0.613,0.635c7.539,7.723,11.241,7.439,13.571,7.186
		c2.994-0.328,4.615-1.975,6.035-3.383c0.467-0.465,0.496-1.148,0.334-1.352C35.734,36.438,29.945,36.342,29.795,36.67z
		 M21.3,38.877c-0.172-0.158-0.354-0.324-0.543-0.512c-0.988-0.959-1.672-1.75-2.106-2.396c-5.327-6.583-4.792-9.548-4.39-11.425
		c0.531-2.488,2.053-3.709,3.355-4.777c0.434-0.357,1.008-0.32,1.164-0.168c0.281,0.275,0.541,0.551,0.787,0.824
		c-0.031,0.021-0.07,0.039-0.104,0.066c-1.357,1.002-2.934,2.141-3.59,4.602c-0.496,1.854-1.175,4.791,3.814,11.628
		c0.404,0.674,1.047,1.49,1.986,2.496c0.014,0.02,0.031,0.033,0.045,0.049C21.582,39.139,21.441,39.012,21.3,38.877z"/>
</g>
</svg>
