<?xml version="1.0" encoding="utf-8"?>
<!-- Generator: Adobe Illustrator 15.0.0, SVG Export Plug-In . SVG Version: 6.00 Build 0)  -->
<!DOCTYPE svg PUBLIC "-//W3C//DTD SVG 1.1//EN" "http://www.w3.org/Graphics/SVG/1.1/DTD/svg11.dtd">
<svg version="1.1" id="Layer_1" xmlns="http://www.w3.org/2000/svg" xmlns:xlink="http://www.w3.org/1999/xlink" x="0px" y="0px"
	 width="60px" height="60px" viewBox="0 0 60 60" enable-background="new 0 0 60 60" xml:space="preserve">
<path fill="#FFFFFF" d="M47.158,17.906h-5.965v-0.722c0-3.289-2.674-5.965-5.965-5.965h-8.313c-3.288,0-5.964,2.676-5.964,5.965
	v0.722h-5.962c-2.398,0-4.339,1.944-4.339,4.336v20.604c0,2.234,1.699,4.057,3.872,4.295c-0.043,0.119-0.077,0.246-0.077,0.387
	c0,0.645,0.524,1.174,1.172,1.174h2.081c0.65,0,1.178-0.529,1.178-1.174c0-0.123-0.038-0.232-0.069-0.342h24.532
	c-0.03,0.108-0.067,0.219-0.067,0.342c0,0.645,0.526,1.174,1.174,1.174h2.087c0.644,0,1.168-0.529,1.168-1.174
	c0-0.141-0.033-0.268-0.076-0.387c2.172-0.238,3.874-2.061,3.874-4.295V22.242C51.497,19.85,49.555,17.906,47.158,17.906z
	 M43.613,19.259h2.029v25.942h-2.029V19.259z M24.205,17.184c0-1.495,1.217-2.709,2.71-2.709h8.313c1.496,0,2.713,1.214,2.713,2.709
	v0.722H24.205V17.184z M16.5,19.259h2.035v25.942H16.5V19.259z"/>
<g>
	<g>
		<ellipse display="none" fill="#F89728" cx="29.576" cy="30.161" rx="16.633" ry="16.18"/>
		<g>
			<g>
				<g>
					<path fill="#FFFFFF" d="M27.161,34.971c-0.223,0.488,0.008,1.118-0.859,1.104c-0.383-0.005-1.426-1.067-2.136-1.841
						c-0.623-0.743-1.938-2.367-1.878-2.825c0.113-0.86,0.703-0.542,1.218-0.689c0.189-0.056,0.597-3.189-2.368-6.348
						c-0.097-0.103-0.469-0.142-0.757,0.075c-0.873,0.655-1.892,1.399-2.306,2.989c-0.312,1.206-0.743,3.104,2.509,7.509
						c0.265,0.431,0.682,0.961,1.293,1.608c0.118,0.127,0.229,0.241,0.335,0.346c4.115,4.215,6.136,4.061,7.408,3.923
						c1.633-0.18,2.518-1.078,3.292-1.847c0.256-0.254,0.271-0.627,0.184-0.738C30.402,34.844,27.243,34.791,27.161,34.971z
						 M22.524,36.175c-0.094-0.086-0.193-0.177-0.296-0.278c-0.54-0.524-0.913-0.956-1.149-1.309
						c-2.908-3.594-2.616-5.212-2.396-6.236c0.29-1.358,1.121-2.024,1.832-2.607c0.236-0.195,0.55-0.175,0.635-0.091
						c0.153,0.149,0.295,0.3,0.43,0.449c-0.018,0.012-0.039,0.021-0.056,0.037c-0.741,0.546-1.602,1.167-1.96,2.511
						c-0.271,1.011-0.642,2.615,2.082,6.348c0.221,0.367,0.571,0.812,1.084,1.361c0.008,0.011,0.017,0.019,0.024,0.027
						C22.678,36.318,22.602,36.248,22.524,36.175z"/>
				</g>
				<path fill="#FFFFFF" d="M39.75,26.758L39.75,26.758c0-4.03-3.242-7.309-7.23-7.309c-3.987,0-7.232,3.278-7.232,7.309l0,0l0,0
					v0.001c0,4.03,3.245,7.31,7.232,7.31C36.508,34.068,39.75,30.789,39.75,26.758L39.75,26.758L39.75,26.758z M37.71,29.64
					c-0.659-0.165-1.325-0.299-1.995-0.401c0.095-0.574,0.16-1.183,0.185-1.825h2.504C38.317,28.214,38.075,28.966,37.71,29.64z
					 M32.52,32.573c-0.507,0-1.146-0.807-1.583-2.203c1.054-0.084,2.112-0.084,3.166,0.001
					C33.664,31.767,33.025,32.573,32.52,32.573z M30.627,29.084c-0.089-0.511-0.152-1.069-0.178-1.671h4.142
					c-0.028,0.602-0.091,1.16-0.181,1.671C33.151,28.974,31.888,28.974,30.627,29.084z M27.328,23.876
					c0.661,0.165,1.326,0.301,1.996,0.402c-0.097,0.573-0.16,1.182-0.187,1.825h-2.502C26.722,25.304,26.962,24.551,27.328,23.876z
					 M32.52,20.945c0.506,0,1.145,0.805,1.583,2.201c-1.054,0.083-2.112,0.083-3.166,0C31.373,21.75,32.013,20.945,32.52,20.945z
					 M32.52,24.526c0.631,0,1.262-0.039,1.891-0.093c0.09,0.51,0.152,1.067,0.18,1.671h-4.141c0.025-0.604,0.089-1.161,0.179-1.671
					C31.257,24.487,31.888,24.526,32.52,24.526z M26.636,27.414h2.502c0.026,0.642,0.09,1.251,0.187,1.825
					c-0.67,0.102-1.335,0.236-1.996,0.401C26.962,28.966,26.722,28.214,26.636,27.414z M35.899,26.104
					c-0.024-0.643-0.09-1.252-0.185-1.825c0.67-0.101,1.335-0.237,1.995-0.402c0.365,0.674,0.607,1.427,0.693,2.228H35.899z
					 M36.892,22.726c-0.486,0.108-0.973,0.2-1.462,0.272c-0.199-0.699-0.453-1.314-0.752-1.82
					C35.528,21.518,36.283,22.052,36.892,22.726z M30.361,21.178c-0.301,0.506-0.554,1.121-0.753,1.82
					c-0.489-0.072-0.977-0.164-1.46-0.272C28.756,22.053,29.509,21.518,30.361,21.178z M28.148,30.791
					c0.483-0.108,0.971-0.2,1.46-0.271c0.199,0.698,0.452,1.314,0.753,1.82C29.509,31.998,28.756,31.466,28.148,30.791z
					 M34.678,32.34c0.299-0.506,0.553-1.122,0.752-1.82c0.489,0.071,0.976,0.163,1.462,0.271
					C36.283,31.466,35.529,31.998,34.678,32.34z"/>
			</g>
		</g>
	</g>
</g>
</svg>
