<?xml version="1.0" encoding="utf-8"?>
<!-- Generator: Adobe Illustrator 15.0.0, SVG Export Plug-In . SVG Version: 6.00 Build 0)  -->
<!DOCTYPE svg PUBLIC "-//W3C//DTD SVG 1.1//EN" "http://www.w3.org/Graphics/SVG/1.1/DTD/svg11.dtd">
<svg version="1.1" id="Layer_1" xmlns="http://www.w3.org/2000/svg" xmlns:xlink="http://www.w3.org/1999/xlink" x="0px" y="0px"
	 width="60px" height="60px" viewBox="0 0 60 60" enable-background="new 0 0 60 60" xml:space="preserve">
<g>
	<g>
		<path fill="#FFFFFF" d="M26.312,40.134c-1.479-0.707-3.061-1.149-4.672-1.34c0.055-0.386,0.107-0.767,0.162-1.147
			c0.359-0.229,0.615-0.567,0.639-0.851c0.043-0.354,0.082-0.708,0.125-1.063c0.047,0.053,0.115,0.091,0.191,0.097
			c0.172,0.019,0.322-0.104,0.34-0.274l0.17-1.639c0.018-0.171-0.105-0.323-0.275-0.341c-0.064-0.009-0.127,0.008-0.182,0.036
			c0.037-0.312,0.072-0.622,0.113-0.936c0.027-0.428,0.236-1.566-0.586-2.303c-1.189-1.167-3.811-1.167-5.002,0
			c-0.822,0.736-0.611,1.875-0.582,2.303c0.035,0.312,0.072,0.623,0.109,0.936c-0.053-0.028-0.117-0.045-0.182-0.036
			c-0.17,0.018-0.293,0.17-0.277,0.341l0.172,1.639c0.018,0.17,0.168,0.293,0.338,0.274c0.078-0.006,0.145-0.044,0.193-0.097
			c0.041,0.355,0.084,0.709,0.123,1.063c0.025,0.282,0.283,0.619,0.643,0.851c0.053,0.381,0.105,0.763,0.158,1.147
			c-1.609,0.188-3.191,0.633-4.67,1.34c-0.477,0.251-0.811,0.896-0.76,1.397c0.055,0.576,0.113,1.15,0.174,1.729
			c0.051,0.5,0.48,0.996,0.957,1.092c4.047,0.65,8.16,0.65,12.209,0c0.479-0.096,0.906-0.592,0.961-1.092
			c0.057-0.578,0.115-1.152,0.172-1.729C27.121,41.029,26.789,40.383,26.312,40.134z"/>
		<path fill="#FFFFFF" d="M46.639,40.134c-1.479-0.707-3.062-1.149-4.672-1.34c0.055-0.386,0.107-0.767,0.164-1.147
			c0.357-0.229,0.615-0.567,0.639-0.851c0.041-0.354,0.082-0.708,0.123-1.063c0.051,0.053,0.117,0.091,0.191,0.097
			c0.172,0.019,0.322-0.104,0.342-0.274l0.17-1.639c0.016-0.171-0.104-0.323-0.277-0.341c-0.063-0.009-0.127,0.008-0.178,0.036
			c0.035-0.312,0.072-0.622,0.107-0.936c0.029-0.428,0.24-1.566-0.58-2.303c-1.195-1.167-3.814-1.167-5.004,0
			c-0.824,0.736-0.611,1.875-0.584,2.303c0.037,0.312,0.072,0.623,0.109,0.936c-0.053-0.028-0.115-0.045-0.183-0.036
			c-0.17,0.018-0.291,0.17-0.274,0.341l0.17,1.639c0.018,0.17,0.17,0.293,0.338,0.274c0.078-0.006,0.146-0.044,0.195-0.097
			c0.041,0.355,0.082,0.709,0.123,1.063c0.024,0.282,0.282,0.619,0.641,0.851c0.053,0.381,0.105,0.763,0.162,1.147
			c-1.613,0.188-3.193,0.633-4.672,1.34c-0.478,0.251-0.812,0.896-0.765,1.397c0.06,0.576,0.115,1.15,0.177,1.729
			c0.053,0.5,0.479,0.996,0.957,1.092c4.051,0.65,8.162,0.65,12.209,0c0.479-0.096,0.907-0.592,0.961-1.092
			c0.057-0.578,0.114-1.152,0.17-1.729C47.451,41.029,47.117,40.383,46.639,40.134z"/>
	</g>
	<path fill="#FFFFFF" d="M36.475,21.794c-1.477-0.704-3.059-1.147-4.67-1.341c0.053-0.381,0.105-0.766,0.162-1.147
		c0.359-0.229,0.615-0.565,0.639-0.847c0.041-0.356,0.082-0.71,0.123-1.064c0.051,0.051,0.119,0.087,0.193,0.096
		c0.17,0.017,0.322-0.106,0.34-0.276l0.168-1.639c0.021-0.171-0.104-0.32-0.272-0.339c-0.064-0.007-0.128,0.009-0.183,0.037
		c0.035-0.314,0.074-0.624,0.109-0.938c0.029-0.425,0.242-1.566-0.582-2.3c-1.191-1.169-3.812-1.169-5.002,0
		c-0.822,0.733-0.611,1.875-0.582,2.3c0.035,0.313,0.072,0.623,0.107,0.938c-0.053-0.028-0.113-0.044-0.18-0.037
		c-0.168,0.019-0.295,0.168-0.277,0.339l0.172,1.639c0.016,0.17,0.17,0.293,0.338,0.276c0.076-0.009,0.145-0.045,0.193-0.096
		c0.041,0.354,0.082,0.708,0.123,1.064c0.025,0.281,0.281,0.618,0.641,0.847c0.053,0.382,0.107,0.766,0.16,1.147
		c-1.609,0.193-3.191,0.637-4.67,1.341c-0.477,0.25-0.811,0.898-0.762,1.399c0.055,0.577,0.113,1.153,0.174,1.729
		c0.051,0.503,0.48,0.999,0.957,1.091c4.051,0.65,8.161,0.65,12.209,0c0.479-0.092,0.908-0.588,0.961-1.091
		c0.061-0.575,0.115-1.151,0.17-1.729C37.285,22.692,36.953,22.044,36.475,21.794z"/>
	<path fill="#FFFFFF" d="M34.842,35.816l-3.959-2.286v-4.57c0-0.488-0.395-0.882-0.883-0.882s-0.881,0.394-0.881,0.882v4.57
		l-3.961,2.286c-0.424,0.244-0.568,0.787-0.324,1.207c0.164,0.283,0.461,0.443,0.768,0.443c0.148,0,0.303-0.039,0.439-0.119
		L30,35.062l3.959,2.285c0.139,0.08,0.291,0.119,0.443,0.119c0.305,0,0.602-0.16,0.766-0.443
		C35.408,36.604,35.266,36.062,34.842,35.816z"/>
</g>
</svg>
