<?xml version="1.0" encoding="utf-8"?>
<!-- Generator: Adobe Illustrator 15.0.0, SVG Export Plug-In . SVG Version: 6.00 Build 0)  -->
<!DOCTYPE svg PUBLIC "-//W3C//DTD SVG 1.1//EN" "http://www.w3.org/Graphics/SVG/1.1/DTD/svg11.dtd">
<svg version="1.1" id="Layer_1" xmlns="http://www.w3.org/2000/svg" xmlns:xlink="http://www.w3.org/1999/xlink" x="0px" y="0px"
	 width="60px" height="60px" viewBox="0 0 60 60" enable-background="new 0 0 60 60" xml:space="preserve">
<g>
	<g>
		<path fill="#FFFFFF" d="M37.359,34.27l-0.043,7.238H22.46V19.492h5.125c0.194-2.253,1.402-4.065,3.365-5.138h-7.023
			c-1.444,0-2.614,1.172-2.614,2.614v28.53c0,1.443,1.17,2.613,2.614,2.613H35.85c1.444,0,2.615-1.17,2.615-2.613V33.789
			C38.116,33.971,37.748,34.133,37.359,34.27z M29.887,46.188c-0.833,0-1.514-0.68-1.514-1.516s0.681-1.512,1.514-1.512
			c0.835,0,1.515,0.676,1.515,1.512S30.723,46.188,29.887,46.188z"/>
		<path fill="#FFFFFF" d="M37.665,21.667c1.701,0.956,3.614,2.284,3.614,5.151c0,2.817-2.021,4.917-4.811,5.684l-0.455,2.873h-4.513
			l0.451-2.631c-1.806-0.293-3.773-1.328-4.41-2.046l2.444-3.932c1.168,0.985,2.815,1.729,4.012,1.729
			c0.953,0,1.671-0.266,1.671-1.144c0-0.902-0.792-1.434-1.856-1.966c-1.836-0.902-4.276-2.019-4.276-5.261
			c0-3.055,2.099-5.126,5.127-5.686l0.399-2.551h4.517l-0.429,2.632c1.412,0.371,2.551,0.823,3.537,1.565L40.48,19.7
			c-1.487-1.012-2.844-1.383-3.799-1.383c-0.636,0-1.516,0.24-1.516,1.116C35.167,20.364,36.337,20.896,37.665,21.667z"/>
	</g>
</g>
</svg>
