<?xml version="1.0" encoding="utf-8"?>
<!-- Generator: Adobe Illustrator 15.0.0, SVG Export Plug-In . SVG Version: 6.00 Build 0)  -->
<!DOCTYPE svg PUBLIC "-//W3C//DTD SVG 1.1//EN" "http://www.w3.org/Graphics/SVG/1.1/DTD/svg11.dtd">
<svg version="1.1" id="Layer_1" xmlns="http://www.w3.org/2000/svg" xmlns:xlink="http://www.w3.org/1999/xlink" x="0px" y="0px"
	 width="60px" height="60px" viewBox="0 0 60 60" enable-background="new 0 0 60 60" xml:space="preserve">
<g>
	<path fill="#FFFFFF" d="M44.042,21.306H15.954c-0.376,0-0.718,0.146-0.973,0.382l13.99,11.544c0.566,0.465,1.486,0.465,2.056,0
		L45.02,21.688C44.762,21.453,44.42,21.306,44.042,21.306z"/>
	<path fill="#FFFFFF" d="M31.1,35.092c-0.607,0.502-1.593,0.502-2.199,0L14.5,23.214V39.24c0,0.801,0.652,1.453,1.454,1.453h28.088
		c0.806,0,1.458-0.652,1.458-1.453V23.214L31.1,35.092z M23.44,32.984l-6.783,6.455c-0.115,0.112-0.271,0.17-0.421,0.17
		c-0.163,0-0.321-0.062-0.444-0.189c-0.229-0.246-0.22-0.633,0.023-0.863l6.781-6.457c0.242-0.231,0.629-0.225,0.864,0.021
		C23.692,32.363,23.685,32.75,23.44,32.984z M44.205,39.42c-0.119,0.127-0.28,0.189-0.443,0.189c-0.15,0-0.302-0.058-0.421-0.17
		l-6.78-6.455c-0.244-0.234-0.252-0.621-0.021-0.863c0.236-0.246,0.622-0.252,0.863-0.021l6.781,6.457
		C44.428,38.787,44.438,39.174,44.205,39.42z"/>
</g>
</svg>
