<?xml version="1.0" encoding="utf-8"?>
<!-- Generator: Adobe Illustrator 15.0.0, SVG Export Plug-In . SVG Version: 6.00 Build 0)  -->
<!DOCTYPE svg PUBLIC "-//W3C//DTD SVG 1.1//EN" "http://www.w3.org/Graphics/SVG/1.1/DTD/svg11.dtd">
<svg version="1.1" id="Layer_1" xmlns="http://www.w3.org/2000/svg" xmlns:xlink="http://www.w3.org/1999/xlink" x="0px" y="0px"
	 width="60px" height="60px" viewBox="0 0 60 60" enable-background="new 0 0 60 60" xml:space="preserve">
<g>
	<path fill="#FFFFFF" d="M39.961,20.726c0.575,0,1.092,0.223,1.487,0.58h1.188v-2.391c0-2.309-1.871-4.177-4.18-4.177H23.021
		c-2.309,0-4.179,1.868-4.179,4.177v22.167c0,2.309,1.87,4.18,4.179,4.18h15.437c2.31,0,4.179-1.871,4.179-4.18v-2.391h-1.188
		c-0.396,0.357-0.915,0.578-1.487,0.578c-1.233,0-2.235-1-2.235-2.234c0-1.233,1.002-2.235,2.235-2.235
		c0.575,0,1.093,0.226,1.487,0.579h1.188v-3.525H41.45c-0.394,0.356-0.913,0.578-1.488,0.578c-1.233,0-2.235-1-2.235-2.234
		c0-1.233,1.002-2.236,2.235-2.236c0.575,0,1.093,0.225,1.487,0.579h1.188v-3.92h-1.188c-0.396,0.355-0.915,0.579-1.487,0.579
		c-1.233,0-2.235-1.001-2.235-2.236C37.725,21.726,38.727,20.726,39.961,20.726z M24.334,20.643l0.795-0.337l-0.006-0.017
		l0.951-0.402c0.881-0.373,1.893,0.035,2.264,0.914l1.195,2.808c0.373,0.88-0.039,1.892-0.914,2.266l-0.799,0.339l0.008,0.015
		l-0.954,0.403l-0.001,0.002c-0.646,0.274-0.951,1.025-0.676,1.673l2.014,4.743c0.275,0.651,1.027,0.951,1.678,0.679l0.796-0.34
		l-0.006-0.014l0.951-0.406c0.879-0.373,1.891,0.035,2.264,0.915l1.192,2.81c0.372,0.88-0.036,1.892-0.913,2.265l-0.797,0.338
		l0.006,0.017l-0.953,0.402c-1.424,0.604-5.652-1.935-6.84-4.734l-2.6-6.125C21.801,26.055,22.909,21.249,24.334,20.643z"/>
	<g>
		<path fill="#FFFFFF" d="M17.547,40.848V18.915c0-1.231,1.207-4.177,3.514-4.177h-0.925c-2.306,0-4.177,1.868-4.177,4.177v22.167
			c0,2.309,1.871,4.18,4.177,4.18h0.805C18.633,45.262,17.547,42.116,17.547,40.848z"/>
	</g>
	<path fill="#FFFFFF" d="M43.066,23.681c0.539,0,0.975-0.438,0.975-0.975l0,0c0-0.54-0.436-0.977-0.975-0.977h-3.453
		c-0.537,0-0.973,0.437-0.973,0.977l0,0c0,0.537,0.434,0.975,0.973,0.975H43.066z"/>
	<path fill="#FFFFFF" d="M43.066,30.975c0.539,0,0.975-0.436,0.975-0.973l0,0c0-0.541-0.436-0.977-0.975-0.977h-3.453
		c-0.537,0-0.973,0.436-0.973,0.977l0,0c0,0.537,0.434,0.973,0.973,0.973H43.066z"/>
	<path fill="#FFFFFF" d="M43.066,37.975c0.539,0,0.975-0.438,0.975-0.975l0,0c0-0.537-0.436-0.975-0.975-0.975h-3.453
		c-0.537,0-0.973,0.438-0.973,0.975l0,0c0,0.537,0.434,0.975,0.973,0.975H43.066z"/>
</g>
</svg>
