<?xml version="1.0" encoding="utf-8"?>
<!-- Generator: Adobe Illustrator 15.0.0, SVG Export Plug-In . SVG Version: 6.00 Build 0)  -->
<!DOCTYPE svg PUBLIC "-//W3C//DTD SVG 1.1//EN" "http://www.w3.org/Graphics/SVG/1.1/DTD/svg11.dtd">
<svg version="1.1" id="Layer_1" xmlns="http://www.w3.org/2000/svg" xmlns:xlink="http://www.w3.org/1999/xlink" x="0px" y="0px"
	 width="792px" height="1224px" viewBox="0 0 792 1224" enable-background="new 0 0 792 1224" xml:space="preserve">
<g>
	<g>
		<path fill="#FFFFFF" d="M456.72,709.68H262.68c-7.92,0-14.52,6.601-14.52,14.521s6.6,14.52,14.52,14.52h194.04
			c7.92,0,14.521-6.6,14.521-14.52S464.64,709.68,456.72,709.68z"/>
		<circle fill="#FFFFFF" cx="514.8" cy="728.16" r="18.48"/>
		<circle fill="#FFFFFF" cx="564.96" cy="728.16" r="18.48"/>
		<path fill="#FFFFFF" d="M636.24,651.6H155.76c-9.24,0-17.16,7.92-17.16,18.48v112.2c0,10.56,7.92,18.479,17.16,18.479h25.08
			c1.32,9.24,7.92,17.16,15.84,17.16h39.6c7.92,0,15.84-7.92,15.84-17.16h287.76c1.32,9.24,7.92,17.16,15.84,17.16H594
			c7.92,0,15.84-7.92,15.84-17.16h25.08c9.24,0,17.16-7.92,17.16-18.479v-112.2C653.4,660.84,645.48,651.6,636.24,651.6z
			 M171.6,763.8c0-21.12,0-56.76,0-73.92c27.72,0,368.28,0,447.48,0c0,22.44,0,56.76,0,73.92C592.68,763.8,252.12,763.8,171.6,763.8
			z"/>
	</g>
	<g>
		<path fill="#FFFFFF" d="M290.4,433.8l14.52,25.08c3.96,7.92,7.92,15.84,13.2,22.44l0,0c3.96-7.92,7.92-15.84,11.88-23.761
			l13.2-25.079H396l-50.16,73.92l51.48,80.52H343.2l-15.84-27.72c-3.96-7.92-7.92-15.84-11.88-23.76h-1.32
			c-3.96,7.92-7.92,15.84-11.88,23.76l-14.52,27.72h-52.8l52.8-79.2l-51.48-75.239L290.4,433.8L290.4,433.8z"/>
		<path fill="#FFFFFF" d="M411.84,588.24V559.2l26.4-23.76c44.88-39.601,67.319-63.36,67.319-87.12
			c0-17.16-10.56-30.36-34.319-30.36c-17.16,0-33,9.24-43.561,17.16L414.48,400.8c15.84-11.88,39.6-21.12,67.319-21.12
			c46.2,0,72.601,27.72,72.601,64.68c0,34.319-25.08,62.04-54.12,88.439l-18.48,15.84l0,0h77.88v39.601H411.84L411.84,588.24z"/>
	</g>
</g>
</svg>
