<?xml version="1.0" encoding="utf-8"?>
<!-- Generator: Adobe Illustrator 15.0.0, SVG Export Plug-In . SVG Version: 6.00 Build 0)  -->
<!DOCTYPE svg PUBLIC "-//W3C//DTD SVG 1.1//EN" "http://www.w3.org/Graphics/SVG/1.1/DTD/svg11.dtd">
<svg version="1.1" id="Layer_1" xmlns="http://www.w3.org/2000/svg" xmlns:xlink="http://www.w3.org/1999/xlink" x="0px" y="0px"
	 width="792px" height="1224px" viewBox="0 0 792 1224" enable-background="new 0 0 792 1224" xml:space="preserve">
<g>
	<g>
		<path fill="#FFFFFF" d="M421.08,742.68l-19.8-34.319c-2.641-3.96-5.28-6.601-9.24-7.92c-15.84-5.28-30.36-11.881-44.88-19.801
			c-3.96-2.64-9.24-2.64-13.2-1.319c-3.96,1.319-7.92,3.96-10.56,7.92L240.24,829.8l0,0c0,0,0,0,0,1.32l0,0c0,0,0,0,0,1.32
			c0,0,0,0,0,1.319c0,0,0,0,0,1.32c0,0,0,0,0,1.32c0,0,0,0,0,1.319c0,0,0,0,0,1.32l0,0v1.319l0,0l0,0c0,0,0,0,0,1.32s0,0,0,1.32
			c0,0,0,0,0,1.32v1.319l0,0v1.32l0,0v1.319l0,0c0,0,0,0,0,1.32l0,0c0,0,0,0,0,1.32l0,0c0,0,0,0,1.32,1.319l0,0c0,0,0,0,1.32,1.32
			l0,0c0,0,1.32,0,1.32,1.32l0,0c1.32,1.319,3.96,2.64,6.6,2.64l0,0h1.32l0,0h1.32l0,0l0,0H455.4c6.6,0,11.88-2.64,14.52-7.92
			c2.641-5.28,2.641-11.88,0-17.16L421.08,742.68z M285.12,821.88c19.8-34.319,54.12-93.72,60.72-104.28
			c9.24,5.28,19.8,9.24,29.04,13.2c3.96,6.601,17.16,29.04,17.16,29.04s21.12,35.641,35.64,62.04
			C406.56,821.88,328.68,821.88,285.12,821.88z"/>
		<path fill="#FFFFFF" d="M646.8,646.32V645v-1.32v-1.319c0,0,0-1.32-1.319-1.32c0,0,0,0,0-1.32l0,0l-1.32-1.319l-1.32-1.32
			l-1.319-1.32l-1.32-1.319l0,0L567.6,592.2l-84.479-48.84l1.319-63.36c6.601-1.32,11.881-5.28,15.841-11.88
			c6.6-11.88,2.64-27.72-9.24-34.32c-11.88-6.6-27.72-2.64-35.64,9.24c-3.961,5.28-3.961,11.88-2.641,18.479l-54.12,33
			L241.56,403.44c-5.28-2.641-11.88-2.641-17.16,0c-5.28,2.64-7.92,7.92-9.24,14.52c-2.64,101.64,50.16,198,138.6,248.16
			c25.08,14.52,51.48,25.08,80.521,30.359c69.96,15.841,142.56,2.641,203.279-34.319l0,0c0,0,1.32,0,1.32-1.32l0,0l1.32-1.32
			l1.319-1.319l1.32-1.32l1.32-1.319l0,0c0,0,0,0,0-1.32c0,0,0-1.32,1.319-1.32v-1.319v-1.32v-1.32v-1.319
			C648.12,647.64,646.8,647.64,646.8,646.32z M450.12,503.76c0,6.601,0,14.521,0,21.12l-17.16-10.56
			C436.92,510.36,443.52,506.4,450.12,503.76z M578.16,654.24l-36.96-21.12L319.44,506.4c-7.921-5.28-18.48-1.32-23.76,6.6
			c-5.28,7.92-1.32,18.48,6.6,23.76L524.04,664.8l0,0l6.6,3.96c-29.04,3.96-59.399,3.96-89.76-2.64
			c-25.08-5.28-47.52-14.521-69.96-27.72C302.28,598.8,257.4,528.84,250.8,450.96c44.88,26.4,299.641,172.92,299.641,172.92
			l44.88,26.4C590.04,650.28,583.44,652.92,578.16,654.24z"/>
	</g>
</g>
</svg>
