<?xml version="1.0" encoding="utf-8"?>
<!-- Generator: Adobe Illustrator 15.0.0, SVG Export Plug-In . SVG Version: 6.00 Build 0)  -->
<!DOCTYPE svg PUBLIC "-//W3C//DTD SVG 1.1//EN" "http://www.w3.org/Graphics/SVG/1.1/DTD/svg11.dtd">
<svg version="1.1" id="Layer_1" xmlns="http://www.w3.org/2000/svg" xmlns:xlink="http://www.w3.org/1999/xlink" x="0px" y="0px"
	 width="792px" height="1224px" viewBox="0 0 792 1224" enable-background="new 0 0 792 1224" xml:space="preserve">
<g>
	<g>
		<path fill="#FFFFFF" d="M592.68,597.48v-1.32v-1.32v-1.32V592.2l0,0l0,0c0,0,0-1.32-1.319-1.32c0,0,0,0-1.32-1.32
			c0,0,0,0-1.32-1.319c-1.319-1.32-1.319,0-1.319-1.32l0,0L526.68,552.6l-69.96-40.92l1.32-52.8c5.28-1.32,10.56-5.28,13.2-10.56
			c5.28-10.561,2.64-23.761-7.92-29.04c-10.561-5.28-23.76-2.641-29.04,7.92c-2.64,5.28-3.96,10.56-2.64,15.84l-46.2,27.72
			l-130.68-75.24c-3.96-2.64-9.24-2.64-14.52,0c-3.96,2.64-6.6,6.6-7.92,11.88c-2.64,85.8,42.24,165,116.16,208.56
			c21.12,11.88,43.56,21.12,67.319,26.4c58.08,13.199,118.8,2.64,170.28-27.721l0,0h1.32l0,0c0,0,1.319,0,1.319-1.319
			c0,0,1.32,0,1.32-1.32c0,0,0-1.32,1.32-1.32c0,0,0-1.319,1.319-1.319l0,0l0,0v-1.32v-1.32V605.4v-1.32v-1.32
			C592.68,598.8,592.68,598.8,592.68,597.48z M427.68,478.68c0,5.28,0,11.88,0,17.16l-14.52-7.92
			C417.12,483.96,422.4,481.32,427.68,478.68z M534.6,605.4l-30.359-17.16L318.12,480c-6.601-3.96-15.84-1.32-19.8,5.28
			c-3.96,6.6-1.32,15.84,5.28,19.8L489.72,612l0,0l5.28,2.64c-25.08,3.96-50.16,2.641-75.24-2.64
			c-21.12-3.96-40.92-11.88-58.08-22.44c-58.08-33-95.04-92.399-100.32-157.079c38.28,22.439,250.8,143.88,250.8,143.88l38.28,21.12
			C543.84,601.44,539.88,602.76,534.6,605.4z"/>
	</g>
	<g>
		<path fill="#FFFFFF" d="M450.12,745.32h-151.8c-6.6,0-11.88,5.279-11.88,11.88c0,6.6,5.28,11.88,11.88,11.88H451.44
			c6.6,0,11.88-5.28,11.88-11.88C462,750.6,456.72,745.32,450.12,745.32z"/>
		<circle fill="#FFFFFF" cx="496.32" cy="759.84" r="14.52"/>
		<circle fill="#FFFFFF" cx="535.92" cy="759.84" r="14.52"/>
		<path fill="#FFFFFF" d="M592.68,699.12H212.52c-6.6,0-13.2,6.6-13.2,14.52v88.44c0,7.92,5.28,14.52,13.2,14.52h19.8
			c1.32,7.92,6.6,13.2,13.2,13.2h31.68c6.6,0,11.88-5.28,13.2-13.2H517.44c1.319,7.92,6.6,13.2,13.199,13.2H561
			c6.6,0,11.88-5.28,13.2-13.2H594c6.6,0,13.2-6.6,13.2-14.52v-88.44C605.88,705.72,599.28,699.12,592.68,699.12z M225.72,787.56
			c0-17.159,0-44.88,0-58.079c21.12,0,290.4,0,352.44,0c0,17.159,0,44.88,0,58.079C557.04,787.56,289.08,787.56,225.72,787.56z"/>
	</g>
</g>
</svg>
