<?xml version="1.0" encoding="utf-8"?>
<!-- Generator: Adobe Illustrator 15.0.0, SVG Export Plug-In . SVG Version: 6.00 Build 0)  -->
<!DOCTYPE svg PUBLIC "-//W3C//DTD SVG 1.1//EN" "http://www.w3.org/Graphics/SVG/1.1/DTD/svg11.dtd">
<svg version="1.1" id="Layer_1" xmlns="http://www.w3.org/2000/svg" xmlns:xlink="http://www.w3.org/1999/xlink" x="0px" y="0px"
	 width="60px" height="60px" viewBox="0 0 60 60" enable-background="new 0 0 60 60" xml:space="preserve">
<g>
	<path fill="#FFFFFF" d="M47.564,43.695c0-0.105-0.06-0.152-0.176-0.152h-0.197v0.516h0.088V43.85h0.051l0.148,0.209h0.104
		l-0.148-0.211C47.504,43.838,47.564,43.799,47.564,43.695z M47.279,43.768v-0.145h0.08c0.059,0,0.117,0.014,0.117,0.072
		c0,0.068-0.064,0.072-0.136,0.072H47.279L47.279,43.768z"/>
	<path fill="#FFFFFF" d="M47.359,43.369c-0.244,0-0.443,0.199-0.443,0.443s0.199,0.44,0.443,0.44c0.246,0,0.442-0.196,0.442-0.44
		S47.605,43.369,47.359,43.369z M47.359,44.166c-0.199,0-0.348-0.146-0.348-0.354c0-0.209,0.147-0.354,0.348-0.354
		c0.199,0,0.346,0.146,0.346,0.354C47.705,44.02,47.559,44.166,47.359,44.166z"/>
	<path fill="#FFFFFF" d="M16.349,38.25c-0.438-0.438-1.064-0.633-1.754-0.633h-2.399v6.645h2.399c0.689,0,1.316-0.197,1.754-0.637
		c0.746-0.744,0.672-1.715,0.672-2.715C17.021,39.912,17.095,38.996,16.349,38.25z M15.443,42.693
		c-0.223,0.27-0.521,0.41-0.971,0.41h-0.979v-4.33h0.979c0.449,0,0.748,0.141,0.971,0.41c0.242,0.299,0.281,0.719,0.281,1.727
		S15.685,42.395,15.443,42.693z"/>
	<rect x="18.22" y="37.619" fill="#FFFFFF" width="1.297" height="6.643"/>
	<path fill="#FFFFFF" d="M25.582,39.654c0-1.111-0.801-2.035-2.154-2.035h-2.602v6.643h1.297v-2.65h0.932l1.297,2.65h1.5
		l-1.482-2.865C25.013,41.164,25.582,40.586,25.582,39.654z M23.343,40.529h-1.221v-1.754h1.221c0.568,0,0.941,0.365,0.941,0.879
		C24.285,40.166,23.912,40.529,23.343,40.529z"/>
	<polygon fill="#FFFFFF" points="26.689,44.262 31.062,44.262 31.062,43.104 27.986,43.104 27.986,41.49 30.605,41.49 
		30.605,40.334 27.986,40.334 27.986,38.775 31.062,38.775 31.062,37.619 26.689,37.619 	"/>
	<path fill="#FFFFFF" d="M34.244,38.721c0.625,0,0.977,0.373,1.117,0.941h1.313c-0.223-1.352-1.163-2.098-2.442-2.098
		c-0.709,0-1.306,0.242-1.789,0.727c-0.291,0.289-0.467,0.615-0.541,0.998c-0.074,0.373-0.113,0.924-0.113,1.65
		c0,0.729,0.039,1.276,0.113,1.651c0.074,0.371,0.25,0.709,0.541,0.998c0.483,0.484,1.08,0.728,1.789,0.728
		c1.27,0,2.221-0.746,2.442-2.101h-1.313c-0.141,0.57-0.492,0.943-1.117,0.943c-0.355,0-0.637-0.113-0.832-0.347
		c-0.27-0.289-0.326-0.586-0.326-1.875c0-1.285,0.057-1.584,0.326-1.875C33.607,38.832,33.889,38.721,34.244,38.721z"/>
	<polygon fill="#FFFFFF" points="37.031,38.775 38.766,38.775 38.766,44.262 40.062,44.262 40.062,38.775 41.799,38.775 
		41.799,37.619 37.031,37.619 	"/>
	<polygon fill="#FFFFFF" points="46.447,37.619 45.113,41.947 43.779,37.619 42.438,37.619 44.629,44.262 45.6,44.262 
		47.799,37.619 	"/>
	<path fill="#FFFFFF" d="M46.174,15.683h-4.961c3.303,3.432,3.979,7.738,1.572,11.482c-2.725,3.928-10.346,7.5-19.512,8.547h23.149
		c0.861,0,1.383-0.555,1.383-1.293c0,0,0-17.242,0-17.545C47.805,16.443,47.5,15.683,46.174,15.683z"/>
	<path fill="#FFFFFF" d="M13.533,35.713h3.146c13.324-0.654,19.864-5.188,20.211-9.784c0.012-0.164,0.02-0.33,0.016-0.494
		c-0.096-4.572-6.043-9.796-18.016-9.734h-5.289c-0.846,0-1.389,0.619-1.389,1.459v17.158
		C12.212,34.844,12.617,35.713,13.533,35.713z"/>
</g>
</svg>
