<?xml version="1.0" encoding="utf-8"?>
<!-- Generator: Adobe Illustrator 15.0.0, SVG Export Plug-In . SVG Version: 6.00 Build 0)  -->
<!DOCTYPE svg PUBLIC "-//W3C//DTD SVG 1.1//EN" "http://www.w3.org/Graphics/SVG/1.1/DTD/svg11.dtd">
<svg version="1.1" id="Layer_1" xmlns="http://www.w3.org/2000/svg" xmlns:xlink="http://www.w3.org/1999/xlink" x="0px" y="0px"
	 width="60px" height="60px" viewBox="0 0 60 60" enable-background="new 0 0 60 60" xml:space="preserve">
<g>
	<g>
		<g>
			<g>
				<g>
					<path fill="#DB2E2E" d="M57.385,23.135H2.628c0.013-0.079,0.033-0.161,0.056-0.243c0.01-0.045,0.023-0.085,0.03-0.125
						c0.063-0.248,0.134-0.488,0.206-0.735c0.057-0.21,0.117-0.416,0.184-0.624c0.064-0.211,0.133-0.414,0.206-0.625v-0.008
						c0.028-0.096,0.066-0.197,0.679-0.66l-0.202-0.561l-0.021-0.015l0,0c0.025-0.081,0.057-0.167,0.095-0.248
						c0.011-0.023,0.021-0.052,0.026-0.075c0-0.007,0.012-0.014,0.012-0.024c0.008-0.003,0.008-0.016,0.013-0.027
						c0.039-0.089,0.077-0.181,0.12-0.272c0.035-0.1,0.084-0.195,0.123-0.293c0-0.002,0-0.002,0-0.002h51.701
						c0,0,0.011,0,0.011,0.002c0.081,0.184,0.159,0.375,0.231,0.565c0.01,0.012,0.01,0.024,0.018,0.027
						c0,0.011,0.007,0.018,0.007,0.024c0.127,0.311,0.241,0.611,0.354,0.929c0.338,0.911,0.625,1.843,0.864,2.798
						C57.357,23.011,57.373,23.069,57.385,23.135z"/>
				</g>
				<g>
					<path fill="#DB2E2E" d="M53.369,14.065H6.652c0-0.01,0-0.01,0-0.01c1.121-1.645,2.404-3.168,3.834-4.52
						c0-0.008,0.007-0.008,0.007-0.014h39.041c0,0,0.006,0.006,0.017,0.014c1.426,1.369,2.706,2.88,3.817,4.52L53.369,14.065z"/>
				</g>
				<g>
					<path fill="#DB2E2E" d="M43.327,4.999H16.731c0-0.005,0.012-0.005,0.012-0.005h0.005c0.128-0.084,0.263-0.147,0.404-0.222
						h0.007c0.073-0.034,0.139-0.072,0.217-0.109c0.335-0.168,0.673-0.332,1.018-0.485c0.141-0.075,0.285-0.14,0.427-0.197
						c0.269-0.119,0.55-0.237,0.828-0.349c0.461-0.188,0.943-0.365,1.42-0.513l0.021-0.007c1.557-0.521,3.178-0.91,4.836-1.156
						l0.102-0.358l0.114,0.331c1.122-0.153,2.264-0.242,3.432-0.255c0.146-0.012,0.293-0.012,0.438-0.012
						c4.81,0,9.333,1.208,13.3,3.332C43.32,4.994,43.32,4.999,43.327,4.999z"/>
				</g>
				<g>
					<path fill="#DB2E2E" d="M58.211,29.62v0.247c0,0.243,0,0.485-0.009,0.729v0.133c0,0.229-0.009,0.446-0.021,0.677
						c-0.014,0.256-0.029,0.521-0.043,0.78v0.027H1.89c-0.005-0.006-0.005-0.014,0-0.027c-0.043-0.479-0.066-0.966-0.075-1.457
						v-0.133c-0.006-0.243-0.006-0.485-0.006-0.729v-0.126c0-0.006,0-0.006,0-0.014V29.62c0-0.053,0-0.104,0.006-0.148v-0.201
						c0.009-0.218,0.017-0.447,0.024-0.67c0.008-0.18,0.015-0.365,0.032-0.548c0.007-0.126,0.019-0.251,0.027-0.376
						c0-0.006,0-0.006,0-0.014h56.217c0.006,0.008,0.006,0.008,0,0.014c0.029,0.273,0.039,0.543,0.058,0.809
						c0.017,0.264,0.021,0.521,0.029,0.785v0.201C58.211,29.523,58.211,29.567,58.211,29.62z"/>
				</g>
				<g>
					<path fill="#DB2E2E" d="M57.436,36.725v0.01c-0.188,0.824-0.424,1.623-0.689,2.41c-0.008,0.015-0.008,0.021-0.014,0.035
						c-0.014,0.068-0.039,0.127-0.06,0.191c-0.065,0.207-0.139,0.412-0.22,0.617c-0.113,0.324-0.236,0.647-0.365,0.967
						c-0.045,0.102-0.09,0.203-0.136,0.307c0,0.008-0.007,0.008-0.007,0.008H4.075c-0.009,0-0.009,0-0.009-0.008
						c-0.014-0.029-0.022-0.059-0.035-0.09c-0.171-0.389-0.324-0.785-0.474-1.184C3.55,39.982,3.55,39.982,3.55,39.975
						c-0.071-0.197-0.146-0.396-0.206-0.604c-0.02-0.063-0.041-0.123-0.058-0.19c-0.006-0.015-0.006-0.021-0.014-0.035
						c-0.266-0.787-0.501-1.597-0.682-2.41l-0.01-0.01H57.436L57.436,36.725z"/>
				</g>
				<g>
					<path fill="#DB2E2E" d="M53.497,45.795l-0.007,0.01c-1.079,1.639-2.338,3.154-3.733,4.525l-0.012,0.012H10.284l-0.007-0.012
						c-1.402-1.367-2.671-2.887-3.758-4.525l-0.009-0.01H53.497z"/>
				</g>
				<g>
					<path fill="#DB2E2E" d="M43.702,54.852c-0.015,0.017-0.025,0.021-0.039,0.021c-4.043,2.252-8.696,3.529-13.652,3.529
						c-3.866,0-7.546-0.779-10.896-2.185c-0.242-0.102-0.487-0.204-0.722-0.315c-0.691-0.312-1.368-0.654-2.031-1.029
						c-0.012,0-0.021-0.006-0.037-0.021H43.702z"/>
				</g>
			</g>
		</g>
		<g>
			<path fill="#FFFFFF" d="M55.865,18.599H4.154c0-0.002,0-0.002,0-0.002c0.012-0.036,0.019-0.057,0.036-0.088
				c0.221-0.505,0.458-1,0.715-1.487c0.081-0.17,0.167-0.342,0.271-0.513c0.061-0.122,0.125-0.248,0.2-0.372l0.006-0.007
				l0.193-0.682l0.069,0.229c0.312-0.554,0.647-1.088,1.008-1.611c0-0.01,0-0.01,0-0.01h46.716l0.001,0.01
				c0.746,1.103,1.422,2.263,2.012,3.468c0.168,0.351,0.327,0.7,0.475,1.063C55.855,18.597,55.865,18.597,55.865,18.599z"/>
		</g>
		<g>
			<path fill="#FFFFFF" d="M49.551,9.536H10.486c0-0.008,0.007-0.008,0.007-0.014h0.005c1.622-1.573,3.441-2.941,5.403-4.064
				l-0.054-0.037h0.112c0.257-0.146,0.514-0.288,0.771-0.422c0-0.005,0.012-0.005,0.012-0.005h26.568
				c0.008,0,0.008,0.005,0.008,0.005c2.281,1.223,4.371,2.752,6.215,4.523C49.534,9.522,49.54,9.528,49.551,9.536z"/>
		</g>
		<g>
			<path fill="#FFFFFF" d="M58.115,27.663c0.006,0.008,0.006,0.008,0,0.014H1.898c0-0.006,0-0.006,0-0.014
				c0.006-0.057,0.006-0.113,0.018-0.17V27.44c0.006-0.051,0.006-0.108,0.012-0.16c0.028-0.306,0.059-0.617,0.104-0.924l-0.242,0.18
				l0.37-1.026l0.002-0.032c-0.002-0.006-0.002-0.013,0-0.02c0.016-0.12,0.029-0.236,0.054-0.354
				c0.013-0.087,0.028-0.178,0.053-0.267c0.042-0.291,0.102-0.576,0.16-0.856c0.065-0.287,0.126-0.567,0.2-0.846h54.758
				c0.029,0.112,0.059,0.222,0.084,0.329c0.122,0.517,0.225,1.032,0.314,1.553c0.025,0.168,0.057,0.346,0.085,0.523
				c0.042,0.263,0.083,0.537,0.112,0.798c0.043,0.312,0.069,0.62,0.103,0.93C58.098,27.397,58.105,27.53,58.115,27.663z"/>
		</g>
		<g>
			<path fill="#FFFFFF" d="M58.139,32.186v0.027c-0.113,1.543-0.35,3.051-0.703,4.512v0.01H2.592l-0.01-0.01
				c-0.354-1.461-0.589-2.969-0.692-4.512c-0.005-0.006-0.005-0.014,0-0.027H58.139z"/>
		</g>
		<g>
			<path fill="#FFFFFF" d="M55.952,41.262c0,0.008-0.007,0.008-0.007,0.008c-0.676,1.588-1.492,3.103-2.448,4.525l-0.007,0.01H6.52
				l-0.009-0.01c-0.936-1.424-1.759-2.938-2.436-4.525c-0.009,0-0.009,0-0.009-0.008H55.952z"/>
		</g>
		<g>
			<path fill="#FFFFFF" d="M49.757,50.33l-0.012,0.012c-1.804,1.762-3.832,3.281-6.043,4.51c-0.015,0.017-0.025,0.021-0.039,0.021
				H16.362c-0.012,0-0.021-0.006-0.037-0.021c-2.207-1.221-4.246-2.748-6.041-4.51l-0.007-0.012H49.757z"/>
		</g>
	</g>
	<g>
		<path fill="#2E4593" d="M29.572,1.674v26.379H1.871c0.007-0.126,0.019-0.251,0.027-0.376c0-0.006,0-0.006,0-0.014
			c0.006-0.057,0.006-0.113,0.018-0.17V27.44c0.006-0.051,0.006-0.108,0.012-0.16c0.028-0.306,0.059-0.617,0.104-0.924l-0.242,0.18
			l0.37-1.026l0.002-0.032c-0.002-0.006-0.002-0.013,0-0.02c0.016-0.12,0.029-0.236,0.054-0.354
			c0.013-0.087,0.028-0.178,0.053-0.267c0.042-0.291,0.102-0.576,0.16-0.856c0.065-0.287,0.126-0.567,0.2-0.846
			c0.013-0.079,0.033-0.161,0.056-0.243c0.01-0.045,0.023-0.085,0.03-0.125c0.063-0.248,0.134-0.488,0.206-0.735
			c0.057-0.21,0.117-0.416,0.184-0.624c0.064-0.211,0.133-0.414,0.206-0.625v-0.008c0.028-0.096,0.066-0.197,0.104-0.292
			l0.312-0.868l0.061-0.061l-0.021-0.015c0.025-0.081,0.057-0.167,0.095-0.248c0.011-0.023,0.021-0.052,0.026-0.075
			c0-0.007,0.012-0.014,0.012-0.024c0.008-0.003,0.008-0.016,0.013-0.027c0.039-0.089,0.077-0.181,0.12-0.272
			c0.035-0.1,0.084-0.195,0.123-0.293c0-0.002,0-0.002,0-0.002c0.012-0.036,0.019-0.057,0.036-0.088
			c0.221-0.505,0.458-1,0.715-1.487c0.081-0.17,0.167-0.342,0.271-0.513c0.061-0.122,0.125-0.248,0.2-0.372l0.006-0.007l0.193-0.682
			l0.069,0.229c0.312-0.554,0.647-1.088,1.008-1.611c0-0.01,0-0.01,0-0.01c1.121-1.645,2.404-3.168,3.834-4.52
			c0-0.008,0.007-0.008,0.007-0.014H10.5c1.622-1.573,3.441-2.941,5.403-4.064l-0.054-0.037h0.112
			C16.218,5.276,16.475,5.134,16.732,5c0-0.005,0.012-0.005,0.012-0.005h0.005c0.128-0.084,0.263-0.147,0.404-0.222h0.007
			c0.073-0.034,0.139-0.072,0.217-0.109c0.335-0.168,0.673-0.332,1.018-0.485c0.141-0.075,0.285-0.14,0.427-0.197
			c0.269-0.119,0.55-0.237,0.828-0.349c0.461-0.188,0.943-0.365,1.42-0.513l0.021-0.007c1.557-0.521,3.178-0.91,4.836-1.156
			l0.102-0.358l0.114,0.331C27.263,1.775,28.404,1.687,29.572,1.674z"/>
	</g>
	<g>
		<g>
			<g>
				<g>
					<polygon fill="#FFFFFF" points="23.723,6.056 24.095,7.12 23.194,6.45 23.19,6.447 23.19,6.45 22.294,7.12 22.673,6.056 
						22.682,6.05 22.673,6.05 21.745,5.421 22.86,5.421 23.172,4.352 23.517,5.421 23.517,5.421 23.517,5.421 24.646,5.421 
						23.715,6.05 23.708,6.05 					"/>
				</g>
			</g>
			<g>
				<g>
					<polygon fill="#FFFFFF" points="23.723,11.601 24.095,12.663 23.194,11.997 23.19,11.99 23.19,11.997 22.294,12.663 
						22.673,11.601 22.682,11.595 22.673,11.595 21.745,10.966 22.86,10.966 23.172,9.899 23.517,10.966 23.517,10.97 
						23.517,10.966 24.646,10.966 23.715,11.595 23.708,11.595 					"/>
				</g>
			</g>
			<g>
				<g>
					<polygon fill="#FFFFFF" points="23.723,17.148 24.095,18.209 23.194,17.54 23.19,17.536 23.19,17.54 22.294,18.209 
						22.673,17.148 22.682,17.137 22.673,17.137 21.745,16.513 22.86,16.513 23.172,15.444 23.517,16.513 23.517,16.517 
						23.517,16.513 24.646,16.513 23.715,17.137 23.708,17.137 					"/>
				</g>
			</g>
			<g>
				<g>
					<polygon fill="#FFFFFF" points="23.723,22.69 24.095,23.751 23.194,23.087 23.19,23.083 23.19,23.087 22.294,23.751 
						22.673,22.69 22.682,22.683 22.673,22.683 21.745,22.056 22.86,22.058 23.172,20.987 23.517,22.056 23.517,22.058 
						23.517,22.058 24.646,22.056 23.715,22.683 23.708,22.683 					"/>
				</g>
			</g>
		</g>
		<g>
			<g>
				<g>
					<path fill="#FFFFFF" d="M18.123,6.882l0.08,0.234L17.988,6.96l-0.053-0.041L17.84,6.847l-0.27-0.198L17.306,6.45h-0.008
						l-0.905,0.666l0.072-0.205l0.283-0.777l0.026-0.082l0.01-0.008h-0.01l-0.61-0.412L16.1,5.591l-0.096-0.067l-0.103-0.065
						l-0.054-0.037h1.119l0.07-0.268h0.007l0.025-0.102h0.006l0.018-0.053V4.994l0.014-0.065l0.046-0.156h0.007
						c0.073-0.034,0.139-0.072,0.217-0.109l0.042,0.109l0.02,0.088l0.029,0.083l0.013,0.051L17.489,5l0.131,0.422h1.126L17.82,6.044
						l0.007,0.008l0.014,0.037l0.121,0.352l0.096,0.29l0.049,0.109L18.123,6.882z"/>
				</g>
			</g>
			<g>
				<g>
					<polygon fill="#FFFFFF" points="17.825,11.601 18.203,12.663 17.301,11.997 17.298,11.99 17.294,11.997 16.396,12.663 
						16.773,11.601 16.784,11.595 16.778,11.595 15.85,10.966 16.967,10.966 17.273,9.899 17.619,10.966 17.615,10.97 
						17.619,10.966 18.745,10.966 17.82,11.595 17.814,11.595 					"/>
				</g>
			</g>
			<g>
				<g>
					<polygon fill="#FFFFFF" points="17.825,17.148 18.203,18.209 17.301,17.54 17.298,17.536 17.294,17.54 16.396,18.209 
						16.773,17.148 16.784,17.137 16.778,17.137 15.85,16.513 16.967,16.513 17.273,15.444 17.619,16.513 17.615,16.517 
						17.619,16.513 18.745,16.513 17.82,17.137 17.814,17.137 					"/>
				</g>
			</g>
			<g>
				<g>
					<polygon fill="#FFFFFF" points="17.825,22.69 18.203,23.751 17.301,23.087 17.298,23.083 17.294,23.087 16.396,23.751 
						16.773,22.69 16.784,22.683 16.778,22.683 15.85,22.056 16.967,22.058 17.273,20.987 17.619,22.056 17.615,22.058 
						17.619,22.058 18.745,22.056 17.82,22.683 17.814,22.683 					"/>
				</g>
			</g>
		</g>
		<g>
			<g>
				<g>
					<polygon fill="#FFFFFF" points="11.925,11.601 12.309,12.663 11.403,11.997 11.399,11.99 11.399,11.997 10.495,12.663 
						10.875,11.601 10.885,11.595 10.876,11.595 9.949,10.966 11.07,10.966 11.376,9.899 11.721,10.966 11.717,10.97 11.725,10.966 
						12.848,10.966 11.92,11.595 11.916,11.595 					"/>
				</g>
			</g>
			<g>
				<g>
					<polygon fill="#FFFFFF" points="11.925,17.148 12.309,18.209 11.403,17.54 11.399,17.536 11.399,17.54 10.495,18.209 
						10.875,17.148 10.885,17.137 10.876,17.137 9.949,16.513 11.07,16.513 11.376,15.444 11.721,16.513 11.717,16.517 
						11.725,16.513 12.848,16.513 11.92,17.137 11.916,17.137 					"/>
				</g>
			</g>
			<g>
				<g>
					<polygon fill="#FFFFFF" points="11.925,22.69 12.309,23.751 11.403,23.087 11.399,23.083 11.399,23.087 10.495,23.751 
						10.875,22.69 10.885,22.683 10.876,22.683 9.949,22.056 11.07,22.058 11.376,20.987 11.721,22.056 11.717,22.058 
						11.725,22.058 12.848,22.056 11.92,22.683 11.916,22.683 					"/>
				</g>
			</g>
		</g>
		<g>
			<g>
				<g>
					<path fill="#FFFFFF" d="M6.383,17.87l0.123,0.339l-0.222-0.161L5.602,17.54l-0.078,0.061l-0.761,0.557v0.007L4.702,18.21
						l0.37-1.059l0.018-0.014H5.084L5.038,17.11l-0.081-0.054l-0.052-0.035c0.081-0.17,0.167-0.342,0.271-0.513h0.095l0.03-0.098
						l0.075-0.274l0.006-0.007l0.193-0.682l0.069,0.229l0.032,0.086l0.035,0.125l0.074,0.223l0.134,0.398v0.011l0.005-0.011h1.128
						L6.12,17.136l0.003,0.014L6.383,17.87z"/>
				</g>
			</g>
			<g>
				<g>
					<polygon fill="#FFFFFF" points="6.124,22.69 6.506,23.751 5.602,23.087 5.602,23.083 5.602,23.087 4.696,23.751 5.077,22.69 
						5.086,22.683 5.077,22.683 4.15,22.056 5.267,22.058 5.575,20.987 5.92,22.056 5.92,22.058 5.922,22.058 7.053,22.056 
						6.121,22.683 6.118,22.683 					"/>
				</g>
			</g>
		</g>
		<g>
			<g>
				<g>
					<polygon fill="#FFFFFF" points="26.582,8.827 26.957,9.886 26.056,9.22 26.056,9.216 26.052,9.22 25.151,9.886 25.526,8.827 
						25.54,8.816 25.534,8.816 24.605,8.188 25.725,8.192 26.026,7.12 26.369,8.188 26.369,8.194 26.376,8.192 27.502,8.188 
						26.577,8.816 26.572,8.816 					"/>
				</g>
			</g>
			<g>
				<g>
					<polygon fill="#FFFFFF" points="26.582,14.373 26.957,15.431 26.056,14.765 26.056,14.765 26.052,14.765 25.151,15.431 
						25.526,14.373 25.54,14.358 25.534,14.358 24.605,13.735 25.725,13.735 26.026,12.666 26.369,13.735 26.369,13.735 
						26.376,13.735 27.502,13.735 26.577,14.358 26.572,14.358 					"/>
				</g>
			</g>
			<g>
				<g>
					<polygon fill="#FFFFFF" points="26.582,19.923 26.957,20.984 26.056,20.319 26.056,20.315 26.052,20.319 25.151,20.984 
						25.526,19.923 25.54,19.916 25.534,19.916 24.605,19.286 25.725,19.291 26.026,18.22 26.369,19.286 26.369,19.291 
						26.376,19.291 27.502,19.286 26.577,19.916 26.572,19.916 					"/>
				</g>
			</g>
			<g>
				<g>
					<polygon fill="#FFFFFF" points="26.582,25.476 26.957,26.536 26.056,25.874 26.056,25.868 26.052,25.874 25.151,26.536 
						25.526,25.476 25.54,25.47 25.534,25.47 24.605,24.845 25.725,24.845 26.026,23.772 26.369,24.845 26.369,24.851 
						26.376,24.845 27.502,24.845 26.577,25.47 26.572,25.47 					"/>
				</g>
			</g>
			<g>
				<g>
					<polygon fill="#FFFFFF" points="27.509,2.674 27.168,2.897 27.066,2.967 26.577,3.293 26.582,3.305 26.736,3.751 26.745,3.751 
						26.823,3.986 26.868,4.113 26.868,4.126 26.957,4.368 26.668,4.157 26.654,4.14 26.5,4.031 26.229,3.827 26.058,3.7 
						26.052,3.7 25.794,3.895 25.365,4.216 25.353,4.216 25.148,4.368 25.19,4.246 25.284,3.973 25.526,3.305 25.543,3.293 
						25.526,3.293 25.456,3.253 25.309,3.149 24.602,2.674 25.723,2.674 25.825,2.317 25.868,2.172 25.882,2.099 25.889,2.099 
						25.925,1.956 26.026,1.598 26.141,1.929 26.179,2.052 26.199,2.12 26.245,2.253 26.376,2.674 					"/>
				</g>
			</g>
		</g>
		<g>
			<g>
				<g>
					<polygon fill="#FFFFFF" points="20.814,8.827 21.19,9.886 20.291,9.22 20.291,9.216 20.287,9.22 19.387,9.886 19.766,8.827 
						19.774,8.816 19.766,8.816 18.84,8.188 19.957,8.192 20.265,7.12 20.606,8.188 20.606,8.194 20.606,8.192 21.738,8.188 
						20.805,8.816 20.805,8.816 					"/>
				</g>
			</g>
			<g>
				<g>
					<polygon fill="#FFFFFF" points="20.814,14.373 21.19,15.431 20.291,14.765 20.291,14.765 20.287,14.765 19.387,15.431 
						19.766,14.373 19.774,14.358 19.766,14.358 18.84,13.735 19.957,13.735 20.265,12.666 20.606,13.735 20.606,13.735 
						20.606,13.735 21.738,13.735 20.805,14.358 20.805,14.358 					"/>
				</g>
			</g>
			<g>
				<g>
					<polygon fill="#FFFFFF" points="20.814,19.923 21.19,20.984 20.291,20.319 20.291,20.315 20.287,20.319 19.387,20.984 
						19.766,19.923 19.774,19.916 19.766,19.916 18.84,19.286 19.957,19.291 20.265,18.22 20.606,19.286 20.606,19.291 
						20.606,19.291 21.738,19.286 20.805,19.916 20.805,19.916 					"/>
				</g>
			</g>
			<g>
				<g>
					<polygon fill="#FFFFFF" points="20.814,25.476 21.19,26.536 20.291,25.874 20.291,25.868 20.287,25.874 19.387,26.536 
						19.766,25.476 19.774,25.47 19.766,25.47 18.84,24.845 19.957,24.845 20.265,23.772 20.606,24.845 20.606,24.851 
						20.606,24.845 21.738,24.845 20.805,25.47 20.805,25.47 					"/>
				</g>
			</g>
			<g>
				<g>
					<path fill="#FFFFFF" d="M21.19,4.368l-0.173-0.132l-0.7-0.511L20.291,3.7l-0.089,0.064l-0.818,0.604l0.118-0.337h0.007
						l0.045-0.137l0.036-0.105l0.059-0.157c0.461-0.188,0.943-0.365,1.42-0.513L20.81,3.293h-0.007l0.007,0.012l0.011,0.026
						l0.027,0.075l0.039,0.108h0.006l0.243,0.685L21.19,4.368z"/>
				</g>
			</g>
		</g>
		<g>
			<g>
				<g>
					<polygon fill="#FFFFFF" points="14.817,8.827 15.193,9.886 14.292,9.22 14.292,9.216 14.287,9.22 13.393,9.886 13.771,8.827 
						13.774,8.816 13.772,8.816 12.844,8.188 13.96,8.192 14.268,7.12 14.612,8.188 14.612,8.194 14.615,8.192 15.745,8.188 
						14.813,8.816 14.81,8.816 					"/>
				</g>
			</g>
			<g>
				<g>
					<polygon fill="#FFFFFF" points="14.817,14.373 15.193,15.431 14.292,14.765 14.292,14.765 14.287,14.765 13.393,15.431 
						13.771,14.373 13.774,14.358 13.772,14.358 12.844,13.735 13.96,13.735 14.268,12.666 14.612,13.735 14.612,13.735 
						14.615,13.735 15.745,13.735 14.813,14.358 14.81,14.358 					"/>
				</g>
			</g>
			<g>
				<g>
					<polygon fill="#FFFFFF" points="14.817,19.923 15.193,20.984 14.292,20.319 14.292,20.315 14.287,20.319 13.393,20.984 
						13.771,19.923 13.774,19.916 13.772,19.916 12.844,19.286 13.96,19.291 14.268,18.22 14.612,19.286 14.612,19.291 
						14.615,19.291 15.745,19.286 14.813,19.916 14.81,19.916 					"/>
				</g>
			</g>
			<g>
				<g>
					<polygon fill="#FFFFFF" points="14.817,25.476 15.193,26.536 14.292,25.874 14.292,25.868 14.287,25.874 13.393,26.536 
						13.771,25.476 13.774,25.47 13.772,25.47 12.844,24.845 13.96,24.845 14.268,23.772 14.612,24.845 14.612,24.851 
						14.615,24.845 15.745,24.845 14.813,25.47 14.81,25.47 					"/>
				</g>
			</g>
		</g>
		<g>
			<g>
				<g>
					<polygon fill="#FFFFFF" points="8.957,14.373 9.327,15.431 8.429,14.765 8.429,14.765 8.424,14.765 7.523,15.431 7.9,14.373 
						7.915,14.358 7.909,14.358 6.979,13.735 8.095,13.735 8.4,12.666 8.748,13.735 8.748,13.735 8.748,13.735 9.876,13.735 
						8.944,14.358 8.944,14.358 					"/>
				</g>
			</g>
			<g>
				<g>
					<polygon fill="#FFFFFF" points="8.957,19.923 9.327,20.984 8.429,20.319 8.429,20.315 8.424,20.319 7.523,20.984 7.9,19.923 
						7.915,19.916 7.909,19.916 6.979,19.286 8.095,19.291 8.4,18.22 8.748,19.286 8.748,19.291 8.748,19.291 9.876,19.286 
						8.944,19.916 8.944,19.916 					"/>
				</g>
			</g>
			<g>
				<g>
					<polygon fill="#FFFFFF" points="8.957,25.476 9.327,26.536 8.429,25.874 8.429,25.868 8.424,25.874 7.523,26.536 7.9,25.476 
						7.915,25.47 7.909,25.47 6.979,24.845 8.095,24.845 8.4,23.772 8.748,24.845 8.748,24.851 8.748,24.845 9.876,24.845 
						8.944,25.47 8.944,25.47 					"/>
				</g>
			</g>
		</g>
		<g>
			<g>
				<g>
					<path fill="#FFFFFF" d="M3.471,20.663l0.117,0.324L3.404,20.85l-0.06-0.047L3.31,20.782v-0.008
						c0.028-0.096,0.066-0.197,0.104-0.292l0.02,0.069l0.037,0.107V20.663z"/>
					<path fill="#FFFFFF" d="M4.141,19.291l-0.19,0.126v0.006l-0.116,0.073l-0.068,0.043c0.025-0.081,0.057-0.167,0.095-0.248H4.141
						z"/>
				</g>
			</g>
			<g>
				<g>
					<path fill="#FFFFFF" d="M3.205,25.465H3.196l0.015,0.013l0.377,1.052v0.007H3.582l-0.805-0.6l-0.084-0.064h-0.01l-0.115,0.084
						l-0.493,0.369l-0.031,0.021l-0.013,0.011l-0.242,0.18l0.37-1.026l0.002-0.032l0.005-0.013L2.161,25.46
						c0.016-0.12,0.029-0.236,0.054-0.354c0.013-0.087,0.028-0.178,0.053-0.267h0.088l0.306-1.064l0.18,0.537v0.009l0.146,0.446
						l0.021,0.072h1.133l-0.3,0.202L3.205,25.465z"/>
				</g>
			</g>
		</g>
	</g>
</g>
</svg>
