<?xml version="1.0" encoding="utf-8"?>
<!-- Generator: Adobe Illustrator 15.0.0, SVG Export Plug-In . SVG Version: 6.00 Build 0)  -->
<!DOCTYPE svg PUBLIC "-//W3C//DTD SVG 1.1//EN" "http://www.w3.org/Graphics/SVG/1.1/DTD/svg11.dtd">
<svg version="1.1" id="Layer_1" xmlns="http://www.w3.org/2000/svg" xmlns:xlink="http://www.w3.org/1999/xlink" x="0px" y="0px"
	 width="60px" height="60px" viewBox="0 0 60 60" enable-background="new 0 0 60 60" xml:space="preserve">
<g>
	<g>
		<g>
			<path fill="#E83434" d="M58.199,29.699v0.139c0,0.243,0,0.481-0.01,0.729v0.132c0,0.226-0.012,0.45-0.023,0.678
				c-0.114,2.701-0.607,5.317-1.445,7.772c-0.014,0.064-0.033,0.123-0.06,0.191c-0.177,0.537-0.37,1.062-0.589,1.58
				c-0.271,0.662-0.563,1.299-0.889,1.932c-4.641,9.205-14.179,15.517-25.182,15.517c-3.866,0-7.546-0.773-10.901-2.181
				c-0.243-0.104-0.483-0.209-0.721-0.317c-5.879-2.662-10.679-7.283-13.566-13.019c-0.479-0.938-0.909-1.908-1.271-2.906
				c-0.076-0.202-0.149-0.396-0.205-0.604c-0.028-0.067-0.046-0.127-0.063-0.19c-0.899-2.656-1.416-5.498-1.468-8.452v-0.132
				c-0.006-0.247-0.006-0.484-0.006-0.729V29.71c0-0.01,0-0.01,0-0.012c0-0.087,0-0.183,0.006-0.26V29.24
				c0.008-0.218,0.015-0.449,0.021-0.668c0.014-0.393,0.045-0.778,0.077-1.16c0.005-0.055,0.005-0.113,0.014-0.164
				c0.035-0.365,0.075-0.736,0.125-1.103c0.008-0.071,0.014-0.142,0.027-0.202c0.036-0.29,0.084-0.584,0.133-0.867
				c0.064-0.385,0.133-0.76,0.215-1.131c0.08-0.364,0.159-0.725,0.252-1.084c0.009-0.047,0.028-0.091,0.033-0.127
				c0.066-0.247,0.132-0.494,0.206-0.732c0.06-0.216,0.116-0.42,0.186-0.627c0.232-0.748,0.49-1.479,0.785-2.193
				c0.006-0.009,0.016-0.029,0.02-0.051c0.094-0.219,0.19-0.439,0.284-0.65c0.394-0.906,0.832-1.779,1.329-2.625
				c2.929-5.146,7.442-9.27,12.868-11.707c0.141-0.076,0.287-0.144,0.428-0.202c3.435-1.491,7.218-2.313,11.194-2.313
				c10.48,0,19.637,5.724,24.492,14.223c0.311,0.535,0.598,1.09,0.874,1.648c0.258,0.535,0.499,1.067,0.72,1.627
				c0.006,0.021,0.014,0.042,0.023,0.051c1.027,2.523,1.703,5.234,1.963,8.053c0.033,0.402,0.064,0.816,0.088,1.222
				c0.01,0.263,0.016,0.521,0.027,0.784v0.199C58.199,29.527,58.199,29.605,58.199,29.699z"/>
		</g>
		<g>
			<path fill="#FFF915" d="M58.199,29.699v0.139c0,0.243,0,0.481-0.01,0.729v0.132c0,0.226-0.012,0.45-0.023,0.678
				c-0.114,2.701-0.607,5.317-1.445,7.772c-0.014,0.064-0.033,0.123-0.06,0.191c-0.177,0.537-0.37,1.062-0.589,1.58
				c-0.271,0.662-0.563,1.299-0.889,1.932H4.814c-0.479-0.938-0.909-1.908-1.271-2.906c-0.076-0.202-0.149-0.396-0.205-0.604
				c-0.028-0.067-0.046-0.127-0.063-0.19c-0.899-2.656-1.416-5.498-1.468-8.452v-0.132c-0.006-0.247-0.006-0.484-0.006-0.729V29.71
				c0-0.01,0-0.01,0-0.012c0-0.087,0-0.183,0.006-0.26V29.24c0.008-0.218,0.015-0.449,0.021-0.668
				c0.014-0.393,0.045-0.778,0.077-1.16c0.005-0.055,0.005-0.113,0.014-0.164c0.035-0.365,0.075-0.736,0.125-1.103
				c0.008-0.071,0.014-0.142,0.027-0.202c0.036-0.29,0.084-0.584,0.133-0.867c0.064-0.385,0.133-0.76,0.215-1.131
				c0.08-0.364,0.159-0.725,0.252-1.084c0.009-0.047,0.028-0.091,0.033-0.127c0.066-0.247,0.132-0.494,0.206-0.732
				c0.06-0.216,0.116-0.42,0.186-0.627c0.232-0.748,0.49-1.479,0.785-2.193c0.006-0.009,0.016-0.029,0.02-0.051
				c0.094-0.219,0.19-0.439,0.284-0.65c0.394-0.906,0.832-1.779,1.329-2.625h48.982c0.311,0.535,0.598,1.09,0.874,1.648
				c0.258,0.535,0.499,1.067,0.72,1.627c0.006,0.021,0.014,0.042,0.023,0.051c1.027,2.523,1.703,5.234,1.963,8.053
				c0.033,0.402,0.064,0.816,0.088,1.222c0.01,0.263,0.016,0.521,0.027,0.784v0.199C58.199,29.527,58.199,29.605,58.199,29.699z"/>
		</g>
	</g>
</g>
</svg>
