<?xml version="1.0" encoding="utf-8"?>
<!-- Generator: Adobe Illustrator 15.0.0, SVG Export Plug-In . SVG Version: 6.00 Build 0)  -->
<!DOCTYPE svg PUBLIC "-//W3C//DTD SVG 1.1//EN" "http://www.w3.org/Graphics/SVG/1.1/DTD/svg11.dtd">
<svg version="1.1" id="Layer_1" xmlns="http://www.w3.org/2000/svg" xmlns:xlink="http://www.w3.org/1999/xlink" x="0px" y="0px"
	 width="60px" height="60px" viewBox="0 0 60 60" enable-background="new 0 0 60 60" xml:space="preserve">
<g>
	<g>
		<polygon fill="#FFFFFF" points="28.379,26.739 27.215,32.268 30.011,32.268 31.18,26.739 		"/>
		<polygon fill="#FFFFFF" points="32.354,32.268 47.852,32.268 31.34,11.348 14.865,32.268 24.873,32.268 27.531,19.629 
			28.105,19.629 29.873,19.629 35.113,19.629 36.934,21.972 29.382,21.972 28.871,24.397 38.791,24.397 40.544,26.739 
			33.521,26.739 		"/>
	</g>
	<polygon fill="#FFFFFF" points="12.83,34.473 18.229,34.473 17.927,35.998 14.645,35.998 14.24,37.766 17.407,37.766 
		17.096,39.291 13.975,39.291 13.293,42.539 11.119,42.539 	"/>
	<path fill="#FFFFFF" d="M19.093,35.986l-3.896,6.553h1.896l0.778-1.398h2.543l0.181,1.398h1.766l-1.071-6.553H19.093z
		 M18.555,39.902l1.391-2.564h0.021l0.279,2.564H18.555z"/>
	<path fill="#FFFFFF" d="M36.967,40.523c-0.096-0.424-0.264-1.119-0.779-1.164v-0.019c1.004-0.123,1.908-0.526,1.908-1.682
		c0-1.625-1.506-1.664-2.753-1.673h-2.094l-1.382,6.556h1.757l0.526-2.592h0.186c0.791,0,0.846,0.065,1.018,0.918l0.336,1.674h0.838
		l0.654-1.103L36.967,40.523z M34.996,38.711h-0.594l0.301-1.484h0.837c0.524,0.01,0.808,0.207,0.808,0.676
		C36.348,38.523,35.754,38.711,34.996,38.711z"/>
	<path fill="#FFFFFF" d="M42.617,35.988h-2.195l-3.24,5.453l0.256,1.102h0.984l0.777-1.4h2.546l0.18,1.4h1.767L42.617,35.988z
		 M39.887,39.904l1.391-2.564h0.021l0.28,2.564H39.887z"/>
	<polygon fill="#FFFFFF" points="36.525,42.543 37.438,42.543 37.182,41.441 	"/>
	<polygon fill="#FFFFFF" points="45.031,35.988 46.797,35.988 46.232,38.664 46.25,38.664 48.617,35.988 50.881,35.988 
		47.764,39.17 49.697,42.543 47.68,42.543 46.062,39.566 46.047,39.566 45.414,42.543 43.648,42.543 	"/>
	<polygon fill="#FFFFFF" points="29.064,35.996 27.195,35.996 27.521,34.475 33.584,34.475 33.256,35.996 31.246,35.996 
		29.854,42.531 27.672,42.531 	"/>
	<path fill="#FFFFFF" d="M25.475,37.289c-0.694,0-1.229-0.018-1.229,0.51c0,0.93,2.545,0.582,2.545,2.57
		c0,1.814-1.682,2.283-3.203,2.283c-0.676,0-1.455-0.16-2.027-0.338l0.413-1.332c0.347,0.223,1.042,0.373,1.614,0.373
		c0.545,0,1.398-0.104,1.398-0.777c0-1.053-2.544-0.658-2.544-2.508c0-1.691,1.454-2.078,2.892-2.078l1.862,0.004l-0.278,1.295
		L25.475,37.289L25.475,37.289z"/>
</g>
</svg>
