<?xml version="1.0" encoding="utf-8"?>
<!-- Generator: Adobe Illustrator 15.0.0, SVG Export Plug-In . SVG Version: 6.00 Build 0)  -->
<!DOCTYPE svg PUBLIC "-//W3C//DTD SVG 1.1//EN" "http://www.w3.org/Graphics/SVG/1.1/DTD/svg11.dtd">
<svg version="1.1" id="Layer_1" xmlns="http://www.w3.org/2000/svg" xmlns:xlink="http://www.w3.org/1999/xlink" x="0px" y="0px"
	 width="32px" height="32px" viewBox="0 0 32 32" enable-background="new 0 0 32 32" xml:space="preserve">
<g>
	<circle fill="none" cx="16" cy="15.75" r="14.75"/>
	<path fill="#E31B23" d="M24.331,22.29l-3.217-3.401c-0.383-0.404-0.936-0.537-1.438-0.407l-0.516-0.545
		c1.08-1.195,1.744-2.773,1.744-4.507c0-3.715-3.021-6.737-6.737-6.737s-6.737,3.021-6.737,6.737c0,3.714,3.021,6.737,6.737,6.737
		c1.472,0,2.832-0.48,3.942-1.285l0.541,0.571c-0.157,0.494-0.056,1.056,0.326,1.459l3.217,3.4c0.291,0.305,0.679,0.46,1.068,0.46
		c0.363,0,0.727-0.134,1.012-0.402C24.862,23.811,24.889,22.879,24.331,22.29z M14.167,17.745c-2.384,0-4.316-1.933-4.316-4.316
		c0-2.384,1.932-4.317,4.316-4.317c2.382,0,4.316,1.933,4.316,4.317C18.483,15.812,16.55,17.745,14.167,17.745z"/>
</g>
</svg>
