<?xml version="1.0" encoding="utf-8"?>
<!-- Generator: Adobe Illustrator 15.0.0, SVG Export Plug-In . SVG Version: 6.00 Build 0)  -->
<!DOCTYPE svg PUBLIC "-//W3C//DTD SVG 1.1//EN" "http://www.w3.org/Graphics/SVG/1.1/DTD/svg11.dtd">
<svg version="1.1" id="Layer_1" xmlns="http://www.w3.org/2000/svg" xmlns:xlink="http://www.w3.org/1999/xlink" x="0px" y="0px"
	 width="60px" height="60px" viewBox="0 0 60 60" enable-background="new 0 0 60 60" xml:space="preserve">
<g>
	<path fill="#FFFFFF" d="M38.458,13.171c-0.873-0.787-2.217-0.717-3.002,0.152c-0.787,0.872-0.719,2.217,0.152,3.004
		c1.78,1.606,2.801,3.903,2.801,6.299c0,4.678-3.805,8.483-8.483,8.483c-4.678,0-8.483-3.806-8.483-8.483
		c0-2.221,0.853-4.319,2.399-5.912c0.818-0.842,0.799-2.188-0.043-3.006c-0.843-0.817-2.188-0.8-3.007,0.043
		c-2.323,2.391-3.602,5.542-3.602,8.875c0,7.022,5.713,12.735,12.735,12.735c7.023,0,12.735-5.713,12.735-12.735
		C42.661,19.029,41.13,15.583,38.458,13.171z"/>
	<path fill="#FFFFFF" d="M30.034,22.502c1.174,0,2.126-0.952,2.126-2.126v-9.688c0-1.174-0.952-2.126-2.126-2.126
		s-2.126,0.952-2.126,2.126v9.688C27.908,21.55,28.86,22.502,30.034,22.502z"/>
</g>
<g>
	<path fill="#FFFFFF" d="M15.65,40.106h5.821v1.767h-3.659v2.176h3.419v1.752h-3.419v3.829H15.65V40.106z"/>
	<path fill="#FFFFFF" d="M23.093,40.233c0.692-0.112,1.724-0.197,2.868-0.197c1.413,0,2.402,0.212,3.08,0.749
		c0.565,0.452,0.876,1.116,0.876,1.992c0,1.215-0.861,2.049-1.681,2.345v0.043c0.664,0.269,1.031,0.904,1.271,1.78
		c0.297,1.074,0.593,2.317,0.777,2.685H28.08c-0.155-0.269-0.381-1.046-0.664-2.219c-0.254-1.187-0.664-1.512-1.54-1.525h-0.649
		v3.744h-2.134V40.233z M25.227,44.331h0.848c1.073,0,1.71-0.537,1.71-1.37c0-0.876-0.594-1.314-1.583-1.328
		c-0.522,0-0.819,0.042-0.975,0.07V44.331z"/>
	<path fill="#FFFFFF" d="M37.133,45.603h-3.504v2.261h3.913v1.767h-6.075v-9.523h5.878v1.767h-3.716v1.978h3.504V45.603z"/>
	<path fill="#FFFFFF" d="M44.674,45.603H41.17v2.261h3.913v1.767h-6.075v-9.523h5.878v1.767H41.17v1.978h3.504V45.603z"/>
</g>
</svg>
