<?xml version="1.0" encoding="utf-8"?>
<!-- Generator: Adobe Illustrator 15.0.0, SVG Export Plug-In . SVG Version: 6.00 Build 0)  -->
<!DOCTYPE svg PUBLIC "-//W3C//DTD SVG 1.1//EN" "http://www.w3.org/Graphics/SVG/1.1/DTD/svg11.dtd">
<svg version="1.1" id="Layer_1" xmlns="http://www.w3.org/2000/svg" xmlns:xlink="http://www.w3.org/1999/xlink" x="0px" y="0px"
	 width="60px" height="60px" viewBox="0 0 60 60" enable-background="new 0 0 60 60" xml:space="preserve">
<g>
	<g>
		<g>
			<g>
				<g>
					<path fill="#FFFFFF" d="M27.852,38.456c-0.389,0.852,0.014,1.948-1.498,1.925c-0.667-0.009-2.485-1.86-3.722-3.208
						c-1.086-1.294-3.377-4.125-3.273-4.922c0.197-1.5,1.226-0.945,2.122-1.203c0.33-0.097,1.04-5.556-4.126-11.06
						c-0.168-0.18-0.817-0.248-1.319,0.13c-1.521,1.141-3.295,2.438-4.018,5.208c-0.544,2.102-1.295,5.407,4.373,13.084
						c0.462,0.751,1.188,1.674,2.253,2.803c0.205,0.222,0.399,0.421,0.584,0.603c7.171,7.345,10.692,7.076,12.91,6.836
						c2.846-0.314,4.386-1.879,5.735-3.218c0.446-0.443,0.474-1.093,0.321-1.287C33.5,38.234,27.995,38.143,27.852,38.456z
						 M19.771,40.555c-0.163-0.15-0.336-0.309-0.516-0.485c-0.941-0.914-1.591-1.665-2.003-2.28
						c-5.068-6.262-4.559-9.083-4.176-10.867c0.505-2.367,1.953-3.528,3.192-4.544c0.411-0.34,0.958-0.304,1.106-0.158
						c0.268,0.261,0.514,0.522,0.749,0.783c-0.03,0.021-0.067,0.037-0.097,0.064c-1.291,0.952-2.791,2.035-3.415,4.375
						C14.14,29.204,13.494,32,18.24,38.504c0.385,0.64,0.996,1.416,1.889,2.372c0.013,0.019,0.029,0.032,0.042,0.047
						C20.039,40.805,19.906,40.682,19.771,40.555z"/>
				</g>
				<path fill="#FFFFFF" d="M49.788,24.145L49.788,24.145c0-7.023-5.649-12.736-12.6-12.736c-6.949,0-12.603,5.713-12.603,12.736
					l0,0l0,0v0.001c0,7.022,5.654,12.738,12.603,12.738c6.95,0,12.6-5.716,12.6-12.738V24.145L49.788,24.145z M46.233,29.167
					c-1.148-0.288-2.31-0.521-3.478-0.698c0.166-1.001,0.28-2.062,0.322-3.181h4.362C47.291,26.683,46.869,27.993,46.233,29.167z
					 M37.188,34.278c-0.884,0-1.997-1.405-2.758-3.839c1.836-0.146,3.681-0.146,5.517,0.002
					C39.183,32.873,38.07,34.278,37.188,34.278z M33.891,28.199c-0.154-0.891-0.266-1.863-0.311-2.912h7.218
					c-0.05,1.048-0.158,2.021-0.314,2.912C38.289,28.006,36.087,28.006,33.891,28.199z M28.143,19.124
					c1.151,0.288,2.31,0.524,3.478,0.701c-0.168,0.998-0.278,2.06-0.325,3.181h-4.359C27.085,21.611,27.504,20.299,28.143,19.124z
					 M37.188,14.016c0.882,0,1.994,1.403,2.759,3.836c-1.836,0.146-3.681,0.146-5.517,0C35.191,15.419,36.305,14.016,37.188,14.016z
					 M37.188,20.257c1.1,0,2.198-0.069,3.295-0.163c0.156,0.889,0.265,1.86,0.312,2.912H33.58c0.045-1.052,0.156-2.022,0.312-2.912
					C34.988,20.188,36.087,20.257,37.188,20.257z M26.936,25.288h4.359c0.047,1.118,0.157,2.18,0.325,3.181
					c-1.167,0.177-2.326,0.411-3.478,0.698C27.504,27.993,27.085,26.683,26.936,25.288z M43.078,23.005
					c-0.042-1.121-0.156-2.183-0.322-3.181c1.168-0.176,2.326-0.413,3.478-0.701c0.636,1.175,1.058,2.487,1.207,3.881H43.078z
					 M44.807,17.118c-0.848,0.188-1.694,0.349-2.547,0.474c-0.348-1.218-0.789-2.29-1.312-3.171
					C42.431,15.014,43.747,15.945,44.807,17.118z M33.428,14.421c-0.524,0.881-0.965,1.953-1.312,3.171
					c-0.852-0.125-1.701-0.286-2.543-0.474C30.631,15.946,31.942,15.014,33.428,14.421z M29.572,31.173
					c0.842-0.189,1.692-0.349,2.543-0.474c0.348,1.218,0.788,2.291,1.312,3.173C31.942,33.276,30.631,32.349,29.572,31.173z
					 M40.948,33.872c0.522-0.882,0.964-1.955,1.312-3.173c0.853,0.125,1.699,0.284,2.547,0.474
					C43.747,32.349,42.434,33.276,40.948,33.872z"/>
			</g>
		</g>
	</g>
</g>
</svg>
