<?xml version="1.0" encoding="utf-8"?>
<!-- Generator: Adobe Illustrator 15.0.0, SVG Export Plug-In . SVG Version: 6.00 Build 0)  -->
<!DOCTYPE svg PUBLIC "-//W3C//DTD SVG 1.1//EN" "http://www.w3.org/Graphics/SVG/1.1/DTD/svg11.dtd">
<svg version="1.1" id="Layer_1" xmlns="http://www.w3.org/2000/svg" xmlns:xlink="http://www.w3.org/1999/xlink" x="0px" y="0px"
	 width="60px" height="60px" viewBox="0 0 60 60" enable-background="new 0 0 60 60" xml:space="preserve">
<path fill="#FFFFFF" d="M45.889,27.543l-4.91-3.658v-7.201h-5.992v2.736l-4.078-3.037c-0.27-0.201-0.589-0.303-0.908-0.303
	c-0.321,0-0.64,0.102-0.91,0.303l-14.978,11.16c-0.525,0.393-0.74,1.078-0.534,1.699c0.206,0.623,0.789,1.043,1.444,1.043h2.231
	V43.92h9.058V32.766h7.376V43.92h9.06V30.285h2.231c0.654,0,1.237-0.42,1.442-1.043C46.629,28.621,46.415,27.936,45.889,27.543z"/>
</svg>
