<?xml version="1.0" encoding="utf-8"?>
<!-- Generator: Adobe Illustrator 15.0.0, SVG Export Plug-In . SVG Version: 6.00 Build 0)  -->
<!DOCTYPE svg PUBLIC "-//W3C//DTD SVG 1.1//EN" "http://www.w3.org/Graphics/SVG/1.1/DTD/svg11.dtd">
<svg version="1.1" id="Layer_1" xmlns="http://www.w3.org/2000/svg" xmlns:xlink="http://www.w3.org/1999/xlink" x="0px" y="0px"
	 width="60px" height="60px" viewBox="0 0 60 60" enable-background="new 0 0 60 60" xml:space="preserve">
<g>
	<g>
		<path fill="#FFFFFF" d="M26.985,38.812c-0.407,0.896,0.015,2.049-1.575,2.023c-0.701-0.01-2.611-1.955-3.912-3.375
			c-1.143-1.359-3.553-4.336-3.442-5.174c0.206-1.576,1.288-0.994,2.229-1.262c0.348-0.104,1.094-5.845-4.338-11.63
			c-0.178-0.189-0.858-0.262-1.387,0.137c-1.6,1.199-3.465,2.562-4.225,5.477c-0.572,2.209-1.361,5.687,4.599,13.755
			c0.484,0.791,1.249,1.762,2.37,2.947c0.214,0.232,0.418,0.443,0.613,0.635c7.539,7.723,11.24,7.439,13.571,7.187
			c2.994-0.328,4.615-1.976,6.035-3.384c0.467-0.465,0.496-1.147,0.334-1.352C32.926,38.581,27.134,38.484,26.985,38.812z
			 M18.49,41.021c-0.172-0.158-0.354-0.324-0.542-0.513c-0.989-0.959-1.673-1.75-2.106-2.396c-5.327-6.584-4.793-9.548-4.391-11.425
			c0.531-2.488,2.053-3.709,3.355-4.777c0.434-0.357,1.008-0.32,1.164-0.168c0.281,0.275,0.541,0.551,0.787,0.824
			c-0.031,0.021-0.07,0.039-0.104,0.066c-1.356,1.002-2.934,2.141-3.59,4.602c-0.496,1.854-1.175,4.791,3.814,11.628
			c0.404,0.674,1.047,1.49,1.986,2.496c0.014,0.02,0.031,0.033,0.045,0.049C18.771,41.282,18.631,41.155,18.49,41.021z"/>
	</g>
	<path fill="#FFFFFF" d="M50.053,23.767L50.053,23.767c-0.002-7.384-5.943-13.393-13.25-13.393c-7.306,0-13.25,6.009-13.25,13.393
		l0,0l0,0v0.002c0,7.383,5.944,13.391,13.25,13.391c7.307,0,13.25-6.008,13.25-13.391V23.767L50.053,23.767z M46.312,29.046
		c-1.209-0.303-2.429-0.549-3.656-0.734c0.176-1.051,0.295-2.168,0.34-3.344h4.587C47.426,26.433,46.982,27.812,46.312,29.046z
		 M36.803,34.421c-0.928,0-2.1-1.478-2.9-4.037c1.932-0.152,3.871-0.152,5.802,0.002C38.902,32.943,37.73,34.421,36.803,34.421z
		 M33.336,28.03c-0.162-0.938-0.279-1.959-0.326-3.062h7.588c-0.051,1.103-0.166,2.125-0.33,3.062
		C37.961,27.826,35.645,27.826,33.336,28.03z M27.291,18.488c1.211,0.303,2.43,0.551,3.656,0.735
		c-0.176,1.051-0.293,2.167-0.34,3.344h-4.586C26.179,21.102,26.62,19.724,27.291,18.488z M36.803,13.115
		c0.928,0,2.1,1.477,2.9,4.035c-1.93,0.152-3.87,0.152-5.801,0C34.703,14.591,35.875,13.115,36.803,13.115z M36.803,19.678
		c1.156,0,2.312-0.071,3.465-0.173c0.164,0.938,0.279,1.959,0.328,3.062H33.01c0.047-1.103,0.164-2.124,0.328-3.062
		C34.49,19.607,35.645,19.678,36.803,19.678z M26.021,24.968h4.586c0.047,1.176,0.164,2.293,0.34,3.344
		c-1.227,0.186-2.445,0.432-3.656,0.734C26.62,27.812,26.179,26.433,26.021,24.968z M42.996,22.567
		c-0.045-1.177-0.164-2.293-0.34-3.344c1.229-0.185,2.447-0.433,3.656-0.735c0.67,1.236,1.112,2.614,1.271,4.079H42.996z
		 M44.812,16.379c-0.891,0.197-1.781,0.366-2.679,0.497c-0.364-1.281-0.829-2.41-1.378-3.334
		C42.316,14.164,43.699,15.142,44.812,16.379z M32.85,13.542c-0.552,0.926-1.016,2.053-1.379,3.334
		c-0.898-0.131-1.791-0.3-2.678-0.497C29.906,15.143,31.287,14.164,32.85,13.542z M28.792,31.155
		c0.888-0.197,1.778-0.366,2.677-0.497c0.364,1.279,0.828,2.408,1.381,3.334C31.287,33.37,29.906,32.393,28.792,31.155z
		 M40.757,33.993c0.55-0.927,1.013-2.056,1.378-3.334c0.896,0.131,1.788,0.3,2.678,0.497C43.7,32.393,42.318,33.37,40.757,33.993z"
		/>
</g>
</svg>
