<?xml version="1.0" encoding="utf-8"?>
<!-- Generator: Adobe Illustrator 15.0.0, SVG Export Plug-In . SVG Version: 6.00 Build 0)  -->
<!DOCTYPE svg PUBLIC "-//W3C//DTD SVG 1.1//EN" "http://www.w3.org/Graphics/SVG/1.1/DTD/svg11.dtd">
<svg version="1.1" id="Layer_1" xmlns="http://www.w3.org/2000/svg" xmlns:xlink="http://www.w3.org/1999/xlink" x="0px" y="0px"
	 width="60px" height="60px" viewBox="0 0 60 60" enable-background="new 0 0 60 60" xml:space="preserve">
<path fill="#FFFFFF" d="M49.715,20.681L26.703,14.59c-0.324-0.087-0.656-0.129-0.988-0.129c-1.738,0-3.266,1.174-3.713,2.859
	l-1.443,5.451h-5.295c-2.117,0-3.842,1.726-3.842,3.845v15.077c0,2.119,1.725,3.846,3.842,3.846h23.811
	c1.873,0,3.434-1.352,3.771-3.13l1.049,0.278c0.319,0.086,0.651,0.127,0.982,0.127c1.743,0,3.271-1.176,3.716-2.86l3.859-14.579
	C52.99,23.326,51.762,21.22,49.715,20.681z M27.246,43.714c-5.211,0-9.451-4.28-9.451-9.547c0-5.266,4.24-9.547,9.451-9.547
	c5.207,0,9.439,4.281,9.439,9.547C36.686,39.434,32.453,43.714,27.246,43.714z M45.766,39.205c-0.129,0.48-0.641,0.777-1.127,0.656
	l-1.723-0.457v-9.675l5.006,1.326L45.766,39.205z M49.623,24.629l-0.787,2.975l-5.98-1.581c-0.287-1.836-1.867-3.251-3.78-3.251
	h-8.5l-6.531-1.728l0.785-2.974c0.107-0.403,0.473-0.685,0.887-0.685c0.08,0,0.158,0.011,0.239,0.031l23.016,6.091
	C49.459,23.637,49.752,24.143,49.623,24.629z"/>
<path fill="#FFFFFF" d="M34.285,30.969c0.322,0.729,0.514,1.521,0.604,2.346h-3.25c-0.033-0.824-0.106-1.606-0.229-2.346H34.285z
	 M33.217,29.257h-2.186c-0.262-0.92-0.602-1.711-0.998-2.373C31.293,27.378,32.377,28.207,33.217,29.257z M27.246,26.579
	c0.631,0,1.422,0.988,1.986,2.678H25.25C25.818,27.567,26.609,26.579,27.246,26.579z M20.199,30.969h2.874
	c-0.122,0.738-0.198,1.521-0.229,2.346h-3.252C19.684,32.489,19.877,31.697,20.199,30.969z M20.199,37.369
	c-0.322-0.729-0.516-1.52-0.607-2.344h3.252c0.031,0.824,0.107,1.606,0.229,2.344H20.199z M21.27,39.08h2.183
	c0.261,0.922,0.6,1.712,0.999,2.373C23.19,40.956,22.105,40.127,21.27,39.08z M23.452,29.257H21.27
	c0.838-1.05,1.921-1.874,3.182-2.373C24.055,27.546,23.713,28.337,23.452,29.257z M27.246,41.759c-0.637,0-1.428-0.985-1.996-2.679
	h3.982C28.668,40.771,27.877,41.759,27.246,41.759z M29.682,37.369h-4.883c-0.13-0.708-0.207-1.503-0.245-2.344h5.376
	C29.891,35.866,29.814,36.661,29.682,37.369z M24.554,33.314c0.038-0.848,0.115-1.643,0.247-2.347h4.881
	c0.133,0.704,0.209,1.499,0.248,2.347H24.554z M30.033,41.453c0.396-0.661,0.736-1.451,0.998-2.373h2.186
	C32.377,40.127,31.293,40.956,30.033,41.453z M34.285,37.369H31.41c0.121-0.736,0.195-1.52,0.229-2.344h3.25
	C34.799,35.85,34.607,36.641,34.285,37.369z"/>
</svg>
