<?xml version="1.0" encoding="utf-8"?>
<!-- Generator: Adobe Illustrator 15.0.0, SVG Export Plug-In . SVG Version: 6.00 Build 0)  -->
<!DOCTYPE svg PUBLIC "-//W3C//DTD SVG 1.1//EN" "http://www.w3.org/Graphics/SVG/1.1/DTD/svg11.dtd">
<svg version="1.1" id="Layer_1" xmlns="http://www.w3.org/2000/svg" xmlns:xlink="http://www.w3.org/1999/xlink" x="0px" y="0px"
	 width="60px" height="60px" viewBox="0 0 60 60" enable-background="new 0 0 60 60" xml:space="preserve">
<g>
	<circle fill="#FFFFFF" cx="25.293" cy="44.743" r="3.343"/>
	<circle fill="#FFFFFF" cx="37.864" cy="44.743" r="3.343"/>
	<path fill="#FFFFFF" d="M41.86,23.595c-0.767,4.19-4.43,7.366-8.837,7.366c-4.97,0-8.993-4.023-8.993-8.992
		c0-0.074,0.01-0.146,0.012-0.222l-3.472-0.359c-0.032,0-0.062,0.006-0.093,0.009l-0.936-4.346c-0.1-0.463-0.446-0.834-0.901-0.963
		l-4.493-1.285c-0.684-0.195-1.393,0.2-1.588,0.881c-0.193,0.682,0.2,1.393,0.882,1.588l3.753,1.073l4.331,20.106
		c0.127,0.592,0.648,1.014,1.251,1.014l17.848,0.053h0.004c0.707,0,1.281-0.572,1.283-1.279c0.002-0.709-0.57-1.285-1.28-1.287
		l-16.813-0.049l-0.538-2.5h18.507c0.59,0,1.069-0.479,1.069-1.068l1.784-9.451L41.86,23.595z"/>
	<path fill="#FFFFFF" d="M33.023,28.77c3.754,0,6.801-3.042,6.801-6.801s-3.047-6.801-6.801-6.801c-3.759,0-6.803,3.042-6.803,6.801
		S29.265,28.77,33.023,28.77z M30.107,20.524h1.642v-1.639c0-0.829,0.671-1.497,1.498-1.497c0.826,0,1.496,0.668,1.496,1.497v1.639
		h1.643c0.826,0,1.496,0.674,1.496,1.496c0,0.83-0.67,1.499-1.496,1.499h-1.643v1.644c0,0.825-0.67,1.496-1.496,1.496
		c-0.827,0-1.498-0.671-1.498-1.496v-1.644h-1.642c-0.827,0-1.497-0.669-1.497-1.499C28.61,21.198,29.28,20.524,30.107,20.524z"/>
</g>
</svg>
