<?xml version="1.0" encoding="utf-8"?>
<!-- Generator: Adobe Illustrator 15.0.0, SVG Export Plug-In . SVG Version: 6.00 Build 0)  -->
<!DOCTYPE svg PUBLIC "-//W3C//DTD SVG 1.1//EN" "http://www.w3.org/Graphics/SVG/1.1/DTD/svg11.dtd">
<svg version="1.1" id="Layer_1" xmlns="http://www.w3.org/2000/svg" xmlns:xlink="http://www.w3.org/1999/xlink" x="0px" y="0px"
	 width="60px" height="60px" viewBox="0 0 60 60" enable-background="new 0 0 60 60" xml:space="preserve">
<path fill="#FFFFFF" d="M48.277,29.198h3.193v-4.663l-9.166-0.118c-2.316-4.344-6.851-7.298-12.067-7.298
	c-5.216,0-9.75,2.954-12.064,7.298h-0.01v0.049l-5.316,0.069c-2.531,0-4.592,2.058-4.592,4.591c0,2.007,1.334,3.759,3.18,4.363
	l-2.902,0.01v4.617h8.045c0.576,0,1.125-0.109,1.635-0.304l0.213,0.013c2.395,4.047,6.818,7.057,11.812,7.057
	s9.363-2.707,11.758-6.754l5.157-0.012c2.531,0,4.591-2.029,4.591-4.527C51.744,31.473,50.268,29.693,48.277,29.198z M30.23,19.496
	c4.633,0,8.727,1.947,11.195,4.921h-3.321c-1.918-2.165-4.729-3.535-7.866-3.535c-3.135,0-5.947,1.37-7.863,3.535h-3.34
	C21.502,21.443,25.596,19.496,30.23,19.496z M33.605,28.281h-2.051v8.49h-2.804l-0.006-8.49h-3.76v8.49h-2.799l-0.012-11.067
	l6.566,0.003v-0.003l6.293,0.004c1.854,0,2.873,1.409,2.873,2.761v8.393h-2.725v-6.966C35.184,28.129,33.605,28.281,33.605,28.281z
	 M16.578,36.941H9.707v-2.273l6.424-0.025c0.549-0.053,0.98-0.502,0.98-1.055s-0.432-1.002-0.98-1.055l-3.568-0.008
	c-1.75-0.146-3.133-1.614-3.133-3.4c0-1.884,1.535-3.415,3.418-3.415h6.869v2.313h-3.639l-2.785,0.025
	c-0.547,0.054-0.98,0.513-0.98,1.076c0,0.562,0.434,1.021,0.98,1.075c0,0,3.158,0.034,3.285,0.034c1.883,0,3.414,1.503,3.414,3.353
	S18.461,36.941,16.578,36.941z M30.23,42.504c-4.346,0-8.215-1.711-10.715-4.377h2.918c1.916,2.129,4.701,3.469,7.805,3.469
	s5.891-1.34,7.805-3.469h2.902C38.441,40.793,34.576,42.504,30.23,42.504z M47.154,36.941h-6.871v-2.273l6.426-0.025
	c0.549-0.053,0.98-0.502,0.98-1.055s-0.433-1.002-0.98-1.055l-3.57-0.008c-1.75-0.146-3.131-1.614-3.131-3.4
	c0-1.884,1.533-3.415,3.416-3.415h6.869v2.313h-3.637l-2.785,0.025c-0.549,0.054-0.98,0.513-0.98,1.076
	c0,0.562,0.433,1.021,0.98,1.075c0,0,3.156,0.034,3.283,0.034c1.885,0,3.418,1.503,3.418,3.353S49.039,36.941,47.154,36.941z"/>
</svg>
