<?xml version="1.0" encoding="utf-8"?>
<!-- Generator: Adobe Illustrator 15.0.0, SVG Export Plug-In . SVG Version: 6.00 Build 0)  -->
<!DOCTYPE svg PUBLIC "-//W3C//DTD SVG 1.1//EN" "http://www.w3.org/Graphics/SVG/1.1/DTD/svg11.dtd">
<svg version="1.1" id="Layer_1" xmlns="http://www.w3.org/2000/svg" xmlns:xlink="http://www.w3.org/1999/xlink" x="0px" y="0px"
	 width="60px" height="60px" viewBox="0 0 60 60" enable-background="new 0 0 60 60" xml:space="preserve">
<g>
	<rect x="31.867" y="26.887" fill="#FFFFFF" width="6.365" height="2.093"/>
	<rect x="23.737" y="30.854" fill="#FFFFFF" width="5.648" height="6.9"/>
	<rect x="31.867" y="30.854" fill="#FFFFFF" width="5.041" height="6.9"/>
	<path fill="#FFFFFF" d="M44.641,23.256c-1.021,0-2,0.168-2.924,0.475c-0.605-6.37-5.789-11.345-12.097-11.345
		c-6.711,0-12.156,5.643-12.156,12.599c0,0.846,0.084,1.675,0.236,2.472h-2.261c-4.147,0-7.508,3.483-7.508,7.782
		c0,4.297,3.36,7.781,7.508,7.781h30.034c2.209,0,4.191-0.994,5.564-2.572c1.922-1.807,3.137-4.406,3.137-7.309
		C54.174,27.679,49.904,23.256,44.641,23.256z M40.105,25.95v3.967v0.937h-0.938h-0.385v8.906H21.862v-8.906h-0.384H20.54v-0.937
		V25.95v-0.913h19.566V25.95z"/>
	<rect x="22.415" y="26.887" fill="#FFFFFF" width="6.971" height="2.093"/>
</g>
</svg>
