<?xml version="1.0" encoding="utf-8"?>
<!-- Generator: Adobe Illustrator 15.0.0, SVG Export Plug-In . SVG Version: 6.00 Build 0)  -->
<!DOCTYPE svg PUBLIC "-//W3C//DTD SVG 1.1//EN" "http://www.w3.org/Graphics/SVG/1.1/DTD/svg11.dtd">
<svg version="1.1" id="Layer_1" xmlns="http://www.w3.org/2000/svg" xmlns:xlink="http://www.w3.org/1999/xlink" x="0px" y="0px"
	 width="60px" height="60px" viewBox="0 0 60 60" enable-background="new 0 0 60 60" xml:space="preserve">
<g>
	<path fill="#FFFFFF" d="M46.786,26.222c-0.069-1.237-0.644-2.456-1.752-3.399l-9.748-8.267c-2.377-2.017-6.237-2.017-8.615,0
		l-9.748,8.267c-1.188,1.009-1.782,2.329-1.782,3.651h0.028c-0.009,0.09-0.024,0.177-0.024,0.271v15.778
		c0,0.349,0.082,0.678,0.224,0.975l11.474-7.706c-0.049-0.042-0.104-0.085-0.152-0.129l-9.761-8.991
		c-0.178-0.163-0.323-0.343-0.472-0.52c0.268-0.69,0.711-1.343,1.358-1.888l9.132-7.957c2.225-1.888,5.837-1.888,8.063,0
		l9.127,7.957c0.659,0.554,1.109,1.217,1.377,1.921c-0.141,0.165-0.277,0.333-0.442,0.486l-9.759,8.991
		c-0.051,0.044-0.106,0.087-0.157,0.129l11.477,7.706c0.144-0.297,0.228-0.626,0.228-0.976V26.745
		C46.859,26.563,46.83,26.388,46.786,26.222z"/>
	<path fill="#FFFFFF" d="M28.765,36.914l-11.787,7.915c0.257,0.078,0.523,0.128,0.807,0.128h26.432c0.283,0,0.551-0.05,0.809-0.128
		l-11.789-7.912C31.802,37.438,30.202,37.436,28.765,36.914z"/>
	<path fill="#FFFFFF" d="M26.767,21.648c-2.677,0-3.986,2.181-3.986,4.7c0,2.535,1.075,4.755,3.825,4.755
		c2.299,0,3.917-1.414,3.917-4.893C30.523,24.102,29.695,21.648,26.767,21.648z M26.695,29.543c-0.952,0-1.475-1.07-1.475-3.166
		c0-1.987,0.522-3.167,1.457-3.167c1.058,0,1.383,1.467,1.383,3.084C28.061,28.172,27.683,29.543,26.695,29.543z"/>
	<path fill="#FFFFFF" d="M31.814,21.758v9.237h2.354v-3.07l0.539-0.753l1.759,3.823h2.568l-2.748-5.221l2.711-4.017h-2.585
		l-1.616,2.96c-0.198,0.397-0.396,0.809-0.594,1.193h-0.034v-4.153L31.814,21.758L31.814,21.758z"/>
</g>
</svg>
