<?xml version="1.0" encoding="utf-8"?>
<!-- Generator: Adobe Illustrator 15.0.0, SVG Export Plug-In . SVG Version: 6.00 Build 0)  -->
<!DOCTYPE svg PUBLIC "-//W3C//DTD SVG 1.1//EN" "http://www.w3.org/Graphics/SVG/1.1/DTD/svg11.dtd">
<svg version="1.1" id="Layer_1" xmlns="http://www.w3.org/2000/svg" xmlns:xlink="http://www.w3.org/1999/xlink" x="0px" y="0px"
	 width="60px" height="60px" viewBox="0 0 60 60" enable-background="new 0 0 60 60" xml:space="preserve">
<g>
	<path fill="#FFFFFF" d="M43.099,31.425c0.012-0.308,0-0.618-0.022-0.914v-6.633c0-1.23-1-2.23-2.226-2.23
		c-1.231,0-2.234,1-2.234,2.23v0.51c-0.193-0.07-0.392-0.134-0.594-0.194v-3.353c0-1.226-1.002-2.231-2.231-2.231
		c-1.23,0-2.23,1.006-2.23,2.231v1.924c-0.196-0.066-0.395-0.141-0.595-0.21v-3.674c0-1.231-1-2.228-2.227-2.228
		c-1.232,0-2.233,0.996-2.233,2.228v2.845c-0.209,0.037-0.412,0.083-0.609,0.146V11.539c0-1.227-1-2.226-2.227-2.226
		c-1.233,0-2.233,0.999-2.233,2.226v18.419c-0.489-1.061-0.503-2.403-0.717-3.397c-0.82-3.769-2.91-5.303-4.191-4.899
		c-0.296,0.09-2.575,0.954-2.092,1.987c0.296,0.635,1.845,4.223,2.024,8.106c0.131,2.776,1.875,5.547,3.651,7.673
		c0.158,0.311,0.347,0.598,0.606,0.848l3.187,3.13v7.71h14.989v-7.908c1.163-1.768,1.905-3.951,1.991-5.926
		c0.071-1.923,0.142-3.842,0.21-5.768c0.003-0.02-0.001-0.034,0-0.055C43.096,31.45,43.099,31.437,43.099,31.425z"/>
</g>
</svg>
