<?xml version="1.0" encoding="utf-8"?>
<!-- Generator: Adobe Illustrator 15.0.0, SVG Export Plug-In . SVG Version: 6.00 Build 0)  -->
<!DOCTYPE svg PUBLIC "-//W3C//DTD SVG 1.1//EN" "http://www.w3.org/Graphics/SVG/1.1/DTD/svg11.dtd">
<svg version="1.1" id="Layer_1" xmlns="http://www.w3.org/2000/svg" xmlns:xlink="http://www.w3.org/1999/xlink" x="0px" y="0px"
	 width="60px" height="60px" viewBox="0 0 60 60" enable-background="new 0 0 60 60" xml:space="preserve">
<path fill="#FFFFFF" d="M46.784,26.625l-16.396-0.269c-0.112-0.251-0.602-1.167-0.602-1.167c-1.96-3.349-5.557-5.63-9.72-5.698
	c-6.359-0.103-11.599,4.963-11.7,11.319c-0.104,6.356,4.963,11.594,11.318,11.697c4.298,0.072,8.07-2.227,10.102-5.683
	c0,0,0.201-0.249,0.284-0.524c0.017-0.025,0.033-0.053,0.046-0.08l4.87,0.081l1.238-1.944c0.221-0.215,0.512-0.311,0.805-0.289
	c0.285-0.01,0.574,0.092,0.785,0.312l1.172,1.986l1.99,0.033l1.226-1.943c0.229-0.218,0.522-0.312,0.81-0.291
	c0.288-0.01,0.575,0.092,0.793,0.312l1.168,1.986l1.647,0.028c2.729,0.044,4.972-2.128,5.015-4.854
	C51.682,28.918,49.506,26.669,46.784,26.625z M17.747,24c2.026,0.034,3.64,1.698,3.604,3.724c-0.016,1.188-0.613,2.226-1.504,2.879
	c0.475-0.606,0.773-1.357,0.789-2.188c0.035-2.021-1.579-3.687-3.602-3.722c-0.832-0.014-1.593,0.262-2.213,0.717
	C15.503,24.541,16.561,23.981,17.747,24z M16.763,26.018c1.471,0.026,2.641,1.235,2.617,2.705c-0.022,1.47-1.234,2.64-2.704,2.616
	c-1.469-0.026-2.642-1.234-2.614-2.704C14.085,27.167,15.296,25.994,16.763,26.018z M19.712,41.025
	c-5.541-0.09-9.954-4.65-9.863-10.189c0.044-2.8,1.236-5.311,3.117-7.098c-1.305,1.66-2.106,3.739-2.145,6.016
	c-0.085,5.535,4.327,10.1,9.863,10.189c2.735,0.043,5.235-1.016,7.076-2.764C25.893,39.562,22.975,41.081,19.712,41.025z
	 M46.352,34.316l-1.647-0.024l-1.169-1.983c-0.215-0.224-0.504-0.324-0.793-0.31c-0.287-0.024-0.584,0.067-0.805,0.282l-1.233,1.943
	l-1.989-0.029l-1.167-1.986c-0.214-0.223-0.509-0.324-0.791-0.311c-0.289-0.021-0.585,0.069-0.807,0.281l-1.233,1.948l-3.395-0.056
	c0.068-0.528,0.066-1.071-0.034-1.62l2.862,0.051l1.236-1.946c0.221-0.215,0.518-0.31,0.801-0.285
	c0.289-0.013,0.578,0.086,0.791,0.311l1.172,1.985l1.984,0.029l1.231-1.941c0.225-0.214,0.518-0.309,0.809-0.288
	c0.287-0.01,0.578,0.091,0.793,0.312l1.169,1.988l1.647,0.029c1.563,0.023,2.972-0.684,3.892-1.809
	c0.688-0.83,1.465,0.157,1.104,0.828C49.934,33.29,48.258,34.352,46.352,34.316z"/>
</svg>
