<?xml version="1.0" encoding="utf-8"?>
<!-- Generator: Adobe Illustrator 15.0.0, SVG Export Plug-In . SVG Version: 6.00 Build 0)  -->
<!DOCTYPE svg PUBLIC "-//W3C//DTD SVG 1.1//EN" "http://www.w3.org/Graphics/SVG/1.1/DTD/svg11.dtd">
<svg version="1.1" id="Layer_1" xmlns="http://www.w3.org/2000/svg" xmlns:xlink="http://www.w3.org/1999/xlink" x="0px" y="0px"
	 width="60px" height="60px" viewBox="0 0 60 60" enable-background="new 0 0 60 60" xml:space="preserve">
<g>
	<path fill="#FFFFFF" d="M46.361,21.393l-21.253-5.625c-0.299-0.08-0.605-0.119-0.912-0.119c-1.605,0-3.018,1.084-3.43,2.641
		l-1.332,5.035h-4.891c-1.957,0-3.549,1.594-3.549,3.551v13.926c0,1.957,1.592,3.552,3.549,3.552h21.991
		c1.729,0,3.17-1.248,3.481-2.892l0.969,0.258c0.297,0.078,0.603,0.117,0.908,0.117c1.609,0,3.021-1.086,3.433-2.644l3.563-13.464
		C49.387,23.836,48.253,21.891,46.361,21.393z M12.114,28.633h27v3.817h-27V28.633z M20.711,39.111h-7.525v-1.506h7.525V39.111z
		 M25.715,39.111h-4.363v-1.506h4.363V39.111z M32.645,39.111h-5.903v-1.506h5.903V39.111z M42.714,38.502
		c-0.118,0.443-0.592,0.719-1.041,0.605l-1.59-0.422V29.75l4.623,1.225L42.714,38.502z M46.275,25.039l-0.727,2.748l-5.521-1.461
		c-0.268-1.695-1.727-3.002-3.493-3.002h-7.85l-6.033-1.596l0.727-2.746c0.1-0.373,0.436-0.633,0.818-0.633
		c0.074,0,0.146,0.01,0.221,0.029l21.256,5.625C46.125,24.123,46.396,24.59,46.275,25.039z"/>
</g>
</svg>
