<?xml version="1.0" encoding="utf-8"?>
<!-- Generator: Adobe Illustrator 15.0.0, SVG Export Plug-In . SVG Version: 6.00 Build 0)  -->
<!DOCTYPE svg PUBLIC "-//W3C//DTD SVG 1.1//EN" "http://www.w3.org/Graphics/SVG/1.1/DTD/svg11.dtd">
<svg version="1.1" id="Layer_1" xmlns="http://www.w3.org/2000/svg" xmlns:xlink="http://www.w3.org/1999/xlink" x="0px" y="0px"
	 width="60px" height="60px" viewBox="0 0 60 60" enable-background="new 0 0 60 60" xml:space="preserve">
<g>
	<path fill="#FFFFFF" d="M38.307,25.814c0.377,0,0.75-0.101,1.08-0.292c1.022-0.595,1.369-1.912,0.774-2.937
		c-0.571-0.983-1.946-1.354-2.938-0.775c-0.494,0.289-0.85,0.753-0.994,1.309c-0.146,0.555-0.066,1.133,0.222,1.628
		C36.832,25.405,37.542,25.814,38.307,25.814z M36.926,23.302c0.098-0.368,0.33-0.677,0.664-0.869
		c0.215-0.126,0.463-0.193,0.713-0.193c0.508,0,0.981,0.271,1.234,0.709c0.396,0.68,0.165,1.555-0.516,1.95
		c-0.66,0.383-1.568,0.138-1.948-0.516C36.882,24.054,36.83,23.67,36.926,23.302z"/>
	<path fill="#FFFFFF" d="M49.927,27.206l-8.961-15.394c-0.331-0.568-1.062-0.763-1.626-0.43l-19.52,11.36h-0.51
		c-0.26-0.009-2.576-0.063-4.123,1.421c-0.836,0.802-1.278,1.911-1.278,3.206v18.219c0,0.658,0.534,1.191,1.191,1.191h23.77
		c0.976,0,1.832-0.477,2.38-1.199c2.484-0.544,4.227-2.51,4.227-4.999v-0.229v-9.18l4.021-2.339c0.271-0.159,0.471-0.42,0.553-0.726
		C50.132,27.804,50.087,27.479,49.927,27.206z M24.182,24.757l13.011-7.574c0.605,0.812,1.81,1.095,2.711,0.626l4.285,7.357
		c-0.887,0.575-1.217,1.714-0.795,2.669l-1.576,0.917c0.021,0.138,0.043,0.274,0.043,0.417c0-1.649-1.342-2.991-2.99-2.991h-2.977
		c-0.107-0.298-0.232-0.593-0.398-0.876c-1.434-2.464-4.594-3.3-7.058-1.864c-1.098,0.639-1.852,1.629-2.245,2.74h-1.906
		C24.411,25.716,24.385,25.214,24.182,24.757z M36.789,30.422h-0.168c-0.197,0-0.359-0.162-0.359-0.361
		c0-0.199,0.162-0.361,0.359-0.361h0.168c0.47,0,0.854,0.383,0.854,0.854v0.25c0,0.198-0.162,0.36-0.36,0.36
		c-0.199,0-0.361-0.162-0.361-0.36v-0.25C36.92,30.48,36.859,30.422,36.789,30.422z M36.895,42.482l0.025-0.959
		c0-0.198,0.162-0.36,0.361-0.36s0.361,0.162,0.361,0.36v0.881c0,0.183-0.059,0.355-0.168,0.504
		c-0.07,0.097-0.178,0.148-0.289,0.148c-0.076,0-0.148-0.023-0.215-0.07C36.812,42.869,36.775,42.643,36.895,42.482z M18.488,31.814
		c0.199,0,0.361,0.162,0.361,0.361v1.191c0,0.199-0.162,0.361-0.361,0.361c-0.199,0-0.362-0.162-0.362-0.361v-1.191
		C18.126,31.979,18.289,31.814,18.488,31.814z M18.126,30.984V30.06c0-0.199,0.163-0.361,0.362-0.361h0.266
		c0.199,0,0.361,0.162,0.361,0.361c0,0.167-0.113,0.307-0.266,0.349v0.575c0,0.199-0.162,0.361-0.361,0.361
		C18.289,31.346,18.126,31.186,18.126,30.984z M18.488,34.198c0.199,0,0.361,0.161,0.361,0.36v1.19c0,0.199-0.162,0.36-0.361,0.36
		c-0.199,0-0.362-0.161-0.362-0.36v-1.19C18.126,34.359,18.289,34.198,18.488,34.198z M18.488,36.58
		c0.199,0,0.361,0.162,0.361,0.361v1.19c0,0.199-0.162,0.361-0.361,0.361c-0.199,0-0.362-0.162-0.362-0.361v-1.19
		C18.126,36.742,18.289,36.58,18.488,36.58z M18.488,38.963c0.199,0,0.361,0.162,0.361,0.361v1.189c0,0.199-0.162,0.361-0.361,0.361
		c-0.199,0-0.362-0.162-0.362-0.361v-1.189C18.126,39.125,18.289,38.963,18.488,38.963z M18.488,41.345
		c0.199,0,0.361,0.162,0.361,0.361v0.83h0.535c0.199,0,0.36,0.162,0.36,0.36c0,0.199-0.161,0.361-0.36,0.361h-0.896
		c-0.199,0-0.362-0.162-0.362-0.361v-1.19C18.126,41.507,18.289,41.345,18.488,41.345z M33.049,30.422h-1.191
		c-0.197,0-0.36-0.162-0.36-0.361c0-0.199,0.163-0.361,0.36-0.361h1.191c0.199,0,0.36,0.162,0.36,0.361
		C33.409,30.26,33.248,30.422,33.049,30.422z M33.677,42.536c0.2,0,0.361,0.162,0.361,0.36c0,0.199-0.161,0.361-0.361,0.361h-1.19
		c-0.198,0-0.359-0.162-0.359-0.361c0-0.198,0.161-0.36,0.359-0.36H33.677z M31.656,42.896c0,0.199-0.161,0.361-0.359,0.361h-1.192
		c-0.199,0-0.361-0.162-0.361-0.361c0-0.198,0.162-0.36,0.361-0.36h1.192C31.495,42.536,31.656,42.698,31.656,42.896z
		 M30.666,30.422h-1.193c-0.199,0-0.359-0.162-0.359-0.361c0-0.199,0.16-0.361,0.359-0.361h1.193c0.199,0,0.359,0.162,0.359,0.361
		C31.025,30.26,30.865,30.422,30.666,30.422z M29.273,42.896c0,0.199-0.16,0.361-0.359,0.361h-1.191
		c-0.199,0-0.362-0.162-0.362-0.361c0-0.198,0.163-0.36,0.362-0.36h1.191C29.113,42.536,29.273,42.698,29.273,42.896z
		 M28.284,30.422H27.09c-0.199,0-0.358-0.162-0.358-0.361c0-0.199,0.159-0.361,0.358-0.361h1.194c0.198,0,0.359,0.162,0.359,0.361
		C28.644,30.26,28.482,30.422,28.284,30.422z M26.891,42.896c0,0.199-0.16,0.361-0.359,0.361H25.34c-0.2,0-0.36-0.162-0.36-0.361
		c0-0.198,0.16-0.36,0.36-0.36h1.191C26.73,42.536,26.891,42.698,26.891,42.896z M25.901,30.422H24.71
		c-0.199,0-0.36-0.162-0.36-0.361c0-0.199,0.161-0.361,0.36-0.361h1.191c0.199,0,0.359,0.162,0.359,0.361
		C26.261,30.26,26.101,30.422,25.901,30.422z M24.51,42.896c0,0.199-0.162,0.361-0.361,0.361h-1.191
		c-0.198,0-0.359-0.162-0.359-0.361c0-0.198,0.161-0.36,0.359-0.36h1.191C24.348,42.536,24.51,42.698,24.51,42.896z M36.061,43.259
		h-1.19c-0.199,0-0.36-0.161-0.36-0.36s0.161-0.361,0.36-0.361h1.19c0.198,0,0.363,0.162,0.363,0.361S36.259,43.259,36.061,43.259z
		 M34.238,30.422c-0.199,0-0.36-0.162-0.36-0.361c0-0.199,0.161-0.361,0.36-0.361h1.191c0.2,0,0.358,0.162,0.358,0.361
		c0,0.199-0.158,0.361-0.358,0.361H34.238z M28.535,26.178c0.131-0.238,0.312-0.47,0.558-0.683l-0.465-0.802l0.826-0.479l0.433,0.74
		c0.565-0.305,1.019-0.4,1.392-0.437l0.302,1.099c-0.271,0.024-0.779,0.059-1.386,0.412c-0.087,0.049-0.138,0.1-0.198,0.149
		L28.535,26.178L28.535,26.178z M23.881,30.061c0,0.199-0.162,0.361-0.361,0.361h-1.192c-0.199,0-0.36-0.162-0.36-0.361
		c0-0.199,0.161-0.361,0.36-0.361h1.192C23.719,29.7,23.881,29.862,23.881,30.061z M22.126,42.896c0,0.199-0.16,0.361-0.359,0.361
		h-1.189c-0.2,0-0.362-0.162-0.362-0.361c0-0.198,0.162-0.36,0.362-0.36h1.189C21.966,42.536,22.126,42.698,22.126,42.896z
		 M21.136,30.422h-1.191c-0.198,0-0.36-0.162-0.36-0.361c0-0.199,0.162-0.361,0.36-0.361h1.191c0.2,0,0.362,0.162,0.362,0.361
		C21.498,30.26,21.336,30.422,21.136,30.422z M17.656,25.405l0.449,0.772h-1.513c0.068-0.104,0.146-0.201,0.237-0.289
		C17.057,25.668,17.353,25.519,17.656,25.405z M43.094,40.582c0,0.936-0.475,1.713-1.232,2.206V39.02
		c-0.19,0.065-0.396,0.111-0.629,0.111h-3.592c0,0.003,0.002,0.006,0.002,0.01v1.191c0,0.199-0.162,0.361-0.36,0.361
		c-0.199,0-0.361-0.162-0.361-0.361v-1.191c0-0.033,0.013-0.062,0.021-0.094c-1.101-0.311-1.92-1.49-1.92-2.904v-1.574
		c0-0.955,0.381-1.799,0.961-2.348c0.108-0.103,0.226-0.193,0.35-0.275l-0.003,0.002c-0.122,0.08-0.237,0.171-0.347,0.273
		c0.42-0.397,0.944-0.646,1.521-0.646h3.729c0.506,0,0.506-0.062,0.506-0.556h0.123h1.513l-0.278,0.164v1.525
		c-0.186,0.036-0.38,0.057-0.586,0.057h-4.498c-0.992,0-1.799,0.808-1.799,1.803v1.574c0,0.991,0.807,1.797,1.799,1.797h4.498
		c0.206,0,0.402-0.037,0.586-0.121v2.535v0.229H43.094z M39.641,35.324c0,0.492-0.399,0.895-0.894,0.895s-0.896-0.4-0.896-0.895
		s0.401-0.895,0.896-0.895S39.641,34.831,39.641,35.324z M41.859,30.521v-0.958l2.207-1.285c0.086-0.05,0.117-0.174,0.14-0.27
		c0.021-0.097-0.024-0.239-0.08-0.322c-0.396-0.68-0.164-1.554,0.511-1.948c0.062-0.035,0.127-0.06,0.19-0.084
		c0.097-0.039,0.174-0.118,0.208-0.218c0.033-0.1,0.021-0.209-0.029-0.3l-4.67-8.021c-0.052-0.091-0.154-0.146-0.259-0.164
		c-0.104-0.017-0.222,0.018-0.304,0.083c-0.043,0.034-0.086,0.07-0.141,0.102c-0.66,0.383-1.57,0.138-1.947-0.51l-0.312,0.16v-0.003
		l0.27-0.256c-0.045-0.088-0.125-0.153-0.219-0.182c-0.097-0.028-0.201-0.016-0.283,0.035l-13.638,7.938
		c-0.087,0.052-0.12,0.173-0.141,0.271c-0.022,0.099,0.026,0.237,0.085,0.319c0.234,0.402,0.242,0.871,0.076,1.271h-2.659
		l-0.561-0.961L39.505,14.04l7.763,13.334L41.859,30.521z"/>
</g>
</svg>
