<?xml version="1.0" encoding="utf-8"?>
<!-- Generator: Adobe Illustrator 15.0.0, SVG Export Plug-In . SVG Version: 6.00 Build 0)  -->
<!DOCTYPE svg PUBLIC "-//W3C//DTD SVG 1.1//EN" "http://www.w3.org/Graphics/SVG/1.1/DTD/svg11.dtd">
<svg version="1.1" id="Layer_1" xmlns="http://www.w3.org/2000/svg" xmlns:xlink="http://www.w3.org/1999/xlink" x="0px" y="0px"
	 width="60px" height="60px" viewBox="0 0 60 60" enable-background="new 0 0 60 60" xml:space="preserve">
<g>
	<g>
		<path fill="#FFFFFF" d="M30.602,35.818c-0.42,0.927,0.016,2.121-1.629,2.095c-0.727-0.009-2.707-2.022-4.051-3.495
			c-1.184-1.407-3.68-4.489-3.564-5.356c0.213-1.631,1.332-1.027,2.307-1.305c0.361-0.106,1.133-6.053-4.488-12.041
			c-0.185-0.195-0.891-0.271-1.438,0.143c-1.655,1.241-3.586,2.651-4.373,5.669c-0.592,2.286-1.41,5.886,4.762,14.24
			c0.5,0.819,1.293,1.823,2.453,3.053c0.221,0.24,0.432,0.46,0.635,0.658c7.807,7.99,11.637,7.701,14.049,7.438
			c3.1-0.342,4.776-2.047,6.246-3.503c0.486-0.482,0.516-1.188,0.35-1.4C36.749,35.581,30.755,35.48,30.602,35.818z M21.806,38.104
			c-0.176-0.162-0.365-0.338-0.56-0.527c-1.026-0.996-1.733-1.812-2.184-2.482c-5.513-6.816-4.96-9.883-4.544-11.83
			c0.551-2.574,2.125-3.838,3.475-4.945c0.448-0.367,1.043-0.331,1.207-0.172c0.289,0.283,0.559,0.568,0.813,0.851
			c-0.034,0.021-0.072,0.04-0.108,0.07c-1.402,1.037-3.037,2.217-3.717,4.763c-0.514,1.92-1.217,4.961,3.949,12.039
			c0.419,0.694,1.084,1.546,2.057,2.586c0.016,0.019,0.033,0.036,0.047,0.051C22.097,38.374,21.953,38.241,21.806,38.104z"/>
	</g>
	<g>
		<path fill="#FFFFFF" d="M44.818,33.391c-1.228,0-2.221-0.992-2.221-2.218c0-7.582-6.166-13.749-13.75-13.749
			c-1.222,0-2.217-0.995-2.217-2.22c0-1.224,0.995-2.217,2.217-2.217c10.028,0,18.188,8.158,18.188,18.186
			C47.036,32.396,46.04,33.391,44.818,33.391L44.818,33.391z"/>
	</g>
	<g>
		<path fill="#FFFFFF" d="M37.961,33.283c-1.165,0-2.111-0.946-2.111-2.11c0-3.861-3.139-7.002-7-7.002
			c-1.163,0-2.108-0.945-2.108-2.109c0-1.165,0.945-2.109,2.108-2.109c6.188,0,11.223,5.035,11.223,11.221
			C40.07,32.337,39.126,33.283,37.961,33.283L37.961,33.283z"/>
	</g>
</g>
</svg>
