<?xml version="1.0" encoding="utf-8"?>
<!-- Generator: Adobe Illustrator 15.0.0, SVG Export Plug-In . SVG Version: 6.00 Build 0)  -->
<!DOCTYPE svg PUBLIC "-//W3C//DTD SVG 1.1//EN" "http://www.w3.org/Graphics/SVG/1.1/DTD/svg11.dtd">
<svg version="1.1" id="Layer_1" xmlns="http://www.w3.org/2000/svg" xmlns:xlink="http://www.w3.org/1999/xlink" x="0px" y="0px"
	 width="792px" height="1224px" viewBox="0 0 792 1224" enable-background="new 0 0 792 1224" xml:space="preserve">
<g>
	<circle fill="none" cx="163.706" cy="553.894" r="31.706"/>
	<path fill="#FFFFFF" d="M506.906,642.412c-19.801-4.012-33,17.211-39.601,44.905c-6.6,28.988-1.294,52.8,18.506,56.812
		c18.506,4.012,31.706-13.2,38.306-44.906C530.588,670.105,528,646.294,506.906,642.412z"/>
	<path fill="#FFFFFF" d="M344.494,539.4c5.306-28.988,2.588-52.801-18.506-56.812c-19.8-4.012-33,17.212-39.6,44.906
		c-6.6,28.988,0,52.8,18.506,56.812C324.694,589.611,337.895,572.4,344.494,539.4z"/>
	<path fill="#FFFFFF" d="M211.2,381L84.506,539.4l51.506,203.306L605.906,843l75.188-361.706L211.2,381z M193.988,560.494
		c-4.012,17.212-19.8,27.694-37.012,23.812c-17.212-4.012-27.694-19.8-23.812-37.012c4.012-17.212,19.8-27.694,37.012-23.812
		C187.388,527.494,198,543.412,193.988,560.494z M237.6,519.6c10.612-50.211,48.788-83.211,97.706-72.6
		c48.918,10.611,68.589,51.506,59.4,100.294c-11.906,59.4-55.389,83.212-96.412,73.895C254.812,612,226.988,573.694,237.6,519.6z
		 M277.2,739.988L499.012,480l35.588,7.895L311.494,748.012L277.2,739.988z M574.2,705.694
		c-11.906,59.399-55.389,83.212-96.412,73.894C435.6,770.4,407.776,732.094,418.389,678c10.611-50.212,48.788-83.212,97.705-72.6
		C563.588,616.012,584.812,658.2,574.2,705.694z"/>
</g>
</svg>
