<?xml version="1.0" encoding="utf-8"?>
<!-- Generator: Adobe Illustrator 15.0.0, SVG Export Plug-In  -->
<!DOCTYPE svg PUBLIC "-//W3C//DTD SVG 1.1//EN" "http://www.w3.org/Graphics/SVG/1.1/DTD/svg11.dtd" [
	<!ENTITY ns_flows "http://ns.adobe.com/Flows/1.0/">
]>
<svg version="1.1"
	 xmlns="http://www.w3.org/2000/svg" xmlns:xlink="http://www.w3.org/1999/xlink" xmlns:a="http://ns.adobe.com/AdobeSVGViewerExtensions/3.0/"
	 x="0px" y="0px" width="60px" height="60px" viewBox="171.5 63.5 60 60"
	 overflow="visible" enable-background="new 171.5 63.5 60 60" xml:space="preserve">
<defs>
</defs>
<rect display="none" fill="#20BF00" width="403" height="186"/>
<path fill="#FFFFFF" d="M216.42,81.584h-32.926c-1.24,0-2.244,1.004-2.244,2.246v19.453c0,1.24,1.004,2.245,2.244,2.245h6.671v-2.54
	h3.117v2.54h13.345v-2.54h3.118v2.54h6.675c1.238,0,2.242-1.005,2.242-2.245V83.83C218.662,82.588,217.658,81.584,216.42,81.584z
	 M198.042,100.622c0,0.247-0.208,0.452-0.457,0.452h-13.47c-0.25,0-0.452-0.205-0.452-0.452V84.906c0-0.25,0.202-0.453,0.452-0.453
	h13.47c0.249,0,0.457,0.203,0.457,0.453V100.622z M213.676,95.756h-12.723c-0.412,0-0.748-0.336-0.748-0.748
	s0.336-0.748,0.748-0.748h12.723c0.413,0,0.748,0.336,0.748,0.748S214.089,95.756,213.676,95.756z M213.676,92.015h-12.723
	c-0.412,0-0.748-0.336-0.748-0.747c0-0.413,0.336-0.751,0.748-0.751h12.723c0.413,0,0.748,0.338,0.748,0.751
	C214.424,91.679,214.089,92.015,213.676,92.015z"/>
<path fill="#FFFFFF" d="M184.572,97.966c0.121-0.217,0.288-0.406,0.493-0.508c1.323-0.634,2.738-1.03,4.181-1.202
	c-0.05-0.34-0.098-0.684-0.147-1.026c-0.319-0.207-0.548-0.509-0.57-0.758c-0.039-0.318-0.076-0.637-0.114-0.953
	c-0.04,0.047-0.099,0.079-0.17,0.085c-0.153,0.018-0.287-0.094-0.303-0.247l-0.151-1.463c-0.016-0.152,0.094-0.288,0.248-0.304
	c0.057-0.006,0.112,0.006,0.162,0.029c-0.033-0.276-0.068-0.556-0.103-0.834c-0.022-0.384-0.211-1.403,0.524-2.06
	c1.068-1.047,3.412-1.047,4.475,0c0.738,0.657,0.548,1.676,0.521,2.06c-0.033,0.278-0.065,0.558-0.096,0.834
	c0.047-0.023,0.102-0.035,0.162-0.029c0.151,0.016,0.262,0.151,0.245,0.304l-0.153,1.463c-0.012,0.153-0.149,0.265-0.303,0.247
	c-0.065-0.006-0.13-0.038-0.172-0.085c-0.036,0.316-0.075,0.635-0.109,0.953c-0.023,0.249-0.254,0.554-0.572,0.758
	c-0.047,0.343-0.097,0.687-0.144,1.026c1.439,0.172,2.854,0.568,4.176,1.202c0.197,0.098,0.362,0.282,0.484,0.49V85.36h-12.561
	V97.966z"/>
<path display="none" fill="#FFFFFF" d="M215.15,100.839c-2.865-1.213-5.914-2.01-9.021-2.409l2.148,4.706l-3.172,6.443
	c3.097-0.121,6.185-0.402,9.26-0.84c1.005-0.177,1.908-1.105,2.021-2.046c0.127-1.075,0.243-2.153,0.362-3.231
	C216.857,102.52,216.152,101.309,215.15,100.839z"/>
<path display="none" fill="#FFFFFF" d="M196.697,98.45c-3.046,0.407-6.035,1.196-8.846,2.389c-1.006,0.47-1.71,1.681-1.604,2.623
	c0.119,1.078,0.24,2.156,0.365,3.231c0.108,0.938,1.015,1.869,2.021,2.046c3.019,0.43,6.053,0.704,9.092,0.834l-3.17-6.438
	L196.697,98.45z"/>
<polygon display="none" fill="#FFFFFF" points="202.68,99.939 200.157,99.939 198.899,101.345 200.157,104.307 199.336,109.688 
	203.502,109.688 202.68,104.307 203.939,101.345 "/>
<path display="none" fill="#FFFFFF" d="M205.645,94.486c0.756-0.483,1.297-1.192,1.35-1.788c0.087-0.748,0.174-1.494,0.261-2.244
	c0.104,0.111,0.244,0.189,0.407,0.207c0.355,0.035,0.677-0.225,0.714-0.582l0.356-3.455c0.037-0.359-0.224-0.68-0.58-0.715
	c-0.139-0.014-0.27,0.014-0.377,0.076c0.074-0.656,0.149-1.314,0.229-1.971c0.062-0.898,0.504-3.301-1.229-4.852
	c-2.512-2.465-8.03-2.465-10.542,0c-1.734,1.551-1.288,3.953-1.229,4.852c0.073,0.656,0.152,1.314,0.229,1.971
	c-0.113-0.061-0.242-0.09-0.379-0.076c-0.358,0.035-0.617,0.355-0.58,0.715l0.357,3.455c0.037,0.357,0.355,0.617,0.714,0.582
	c0.162-0.018,0.304-0.096,0.407-0.207c0.088,0.75,0.174,1.496,0.262,2.244c0.051,0.596,0.593,1.305,1.347,1.786
	c0.153,1.086,0.307,2.171,0.46,3.255c0.051,0.483,0.816,1.108,1.697,1.264c1.314,0.183,2.657,0.183,3.973,0
	c0.881-0.153,1.646-0.778,1.696-1.264C205.338,96.655,205.488,95.57,205.645,94.486z"/>
</svg>
