<?xml version="1.0" encoding="utf-8"?>
<!-- Generator: Adobe Illustrator 15.0.0, SVG Export Plug-In . SVG Version: 6.00 Build 0)  -->
<!DOCTYPE svg PUBLIC "-//W3C//DTD SVG 1.1//EN" "http://www.w3.org/Graphics/SVG/1.1/DTD/svg11.dtd">
<svg version="1.1" id="Layer_1" xmlns="http://www.w3.org/2000/svg" xmlns:xlink="http://www.w3.org/1999/xlink" x="0px" y="0px"
	 width="60px" height="60px" viewBox="0 0 60 60" enable-background="new 0 0 60 60" xml:space="preserve">
<g>
	<path fill="#FFFFFF" d="M48.494,19.175H11.506v4.809h1.665v17.385h9.367L20,45.701l1.916,1.123l3.195-5.455h9.778l3.195,5.455
		L40,45.701l-2.539-4.332h9.367V23.984h1.666V19.175z M44.611,39.15H15.39V23.984h29.221V39.15z"/>
	<path fill="#FFFFFF" d="M24.029,27.528v3.716h3.763C27.54,29.297,25.982,27.755,24.029,27.528z"/>
	<path fill="#FFFFFF" d="M23.528,36.652c2.491,0,4.52-1.883,4.798-4.299H22.92v-5.349c-2.392,0.302-4.246,2.321-4.246,4.793
		C18.673,34.479,20.845,36.652,23.528,36.652z"/>
	<rect x="30.6" y="28.145" fill="#FFFFFF" width="10.729" height="1.018"/>
	<rect x="30.6" y="30.272" fill="#FFFFFF" width="10.729" height="1.017"/>
	<rect x="30.6" y="32.396" fill="#FFFFFF" width="10.729" height="1.018"/>
	<rect x="30.6" y="34.523" fill="#FFFFFF" width="10.729" height="1.018"/>
</g>
</svg>
