<?xml version="1.0" encoding="utf-8"?>
<!-- Generator: Adobe Illustrator 15.0.0, SVG Export Plug-In . SVG Version: 6.00 Build 0)  -->
<!DOCTYPE svg PUBLIC "-//W3C//DTD SVG 1.1//EN" "http://www.w3.org/Graphics/SVG/1.1/DTD/svg11.dtd">
<svg version="1.1" id="Layer_1" xmlns="http://www.w3.org/2000/svg" xmlns:xlink="http://www.w3.org/1999/xlink" x="0px" y="0px"
	 width="60px" height="60px" viewBox="0 0 60 60" enable-background="new 0 0 60 60" xml:space="preserve">
<g>
	<path fill="#FFFFFF" d="M47.12,30.449c0-0.889-0.354-1.69-0.929-2.281c0.027,0.175,0.056,0.351,0.056,0.531
		c0,1.264-0.726,2.348-1.771,2.896c-0.674-2.987-2.756-5.577-5.668-7.331c-0.619,0.587-1.33,1.072-2.111,1.437
		c0.404,0.18,0.801,0.374,1.182,0.584c0.533,0.292,0.727,0.957,0.436,1.489c-0.198,0.363-0.576,0.569-0.963,0.569
		c-0.178,0-0.356-0.043-0.524-0.136c-2.586-1.416-5.765-2.053-8.951-1.799c-0.598,0.048-1.133-0.401-1.18-1.005
		c-0.051-0.604,0.401-1.132,1.004-1.181c0.047-0.004,0.094-0.003,0.141-0.007c-0.592-0.57-1.098-1.229-1.49-1.958
		c-0.861,0.172-1.697,0.394-2.49,0.682c-0.604-0.753-1.517-1.243-2.556-1.243c-0.556,0-1.071,0.151-1.528,0.396v3.051
		c-1.926,1.463-3.354,3.333-4.072,5.44h-0.854c-1.086,0-1.969,0.881-1.969,1.969v2.299c0,1.086,0.883,1.969,1.969,1.969h0.854
		c0.719,2.107,2.146,3.979,4.072,5.439v3.75c0,1.086,0.879,1.969,1.967,1.969h2.297c1.088,0,1.971-0.883,1.971-1.969v-0.92
		c1.253,0.277,2.572,0.428,3.938,0.428c1.604,0,3.147-0.207,4.594-0.584v1.078c0,1.086,0.881,1.969,1.968,1.969h2.303
		c1.086,0,1.967-0.883,1.967-1.969v-4.277c2.443-2.108,3.938-4.928,3.938-8.028c0-0.037-0.002-0.072-0.002-0.104
		C46.098,33.217,47.12,31.957,47.12,30.449z M20.175,29.965c-0.479,0.611-1.1,0.92-1.391,0.694c-0.291-0.229-0.137-0.907,0.34-1.518
		c0.479-0.609,1.102-0.921,1.393-0.694C20.806,28.676,20.653,29.356,20.175,29.965z"/>
	<path fill="#FFFFFF" d="M33.352,24.989c3.573,0,6.481-2.91,6.481-6.485c0-3.575-2.908-6.483-6.481-6.483
		c-3.577,0-6.486,2.908-6.486,6.483C26.865,22.079,29.774,24.989,33.352,24.989z M32.598,18.823
		c-0.959-0.594-1.455-1.151-1.455-2.108c0-0.91,0.545-1.661,1.455-1.977v-1.239h1.03v1.119c0.483,0.01,0.91,0.157,1.199,0.314
		l-0.267,1.2c-0.256-0.134-0.559-0.292-1.043-0.292c-0.582,0-0.885,0.34-0.885,0.753c0,0.411,0.158,0.643,0.994,1.139
		c1.032,0.619,1.382,1.322,1.382,2.17c0,1.093-0.618,1.832-1.552,2.073v1.337h-1.031v-1.226c-0.52-0.024-1.006-0.171-1.299-0.315
		l0.244-1.248c0.352,0.205,0.764,0.339,1.262,0.339c0.594,0,0.896-0.354,0.896-0.802C33.529,19.562,33.229,19.211,32.598,18.823z"/>
</g>
</svg>
