<?xml version="1.0" encoding="utf-8"?>
<!-- Generator: Adobe Illustrator 15.0.0, SVG Export Plug-In . SVG Version: 6.00 Build 0)  -->
<!DOCTYPE svg PUBLIC "-//W3C//DTD SVG 1.1//EN" "http://www.w3.org/Graphics/SVG/1.1/DTD/svg11.dtd">
<svg version="1.1" id="Layer_1" xmlns="http://www.w3.org/2000/svg" xmlns:xlink="http://www.w3.org/1999/xlink" x="0px" y="0px"
	 width="60px" height="60px" viewBox="0 0 60 60" enable-background="new 0 0 60 60" xml:space="preserve">
<path fill="#FFFFFF" d="M43.056,32.697c0.225-0.232,0.431-0.479,0.621-0.729l0.896,1.99l7.961-3.577L45.917,15.66l-7.961,3.576
	l0.492,1.09L37.1,19.969l0,0c-0.015-0.002-0.055-0.012-0.106-0.027l-0.745-0.195c-0.205-0.057-0.424-0.079-0.656-0.084
	c-2.102-0.349-5.919-0.665-8.39,1.006c-0.236,0.161-0.48,0.309-0.728,0.447c-0.678-0.478-1.456-0.678-2.203-0.475l-3.198,0.822
	l-0.245-0.146l0.936-2.081l-7.957-3.576L7.189,30.382l7.96,3.577l0.881-1.965c0.391,0.609,0.858,1.166,1.364,1.654
	c-0.344,0.477-0.49,1.059-0.407,1.645c0.157,1.117,1.127,1.959,2.257,1.959c0.105,0,0.214-0.008,0.323-0.021
	c0.198-0.027,0.378-0.09,0.557-0.164c-0.011,0.156-0.007,0.314,0.016,0.475c0.16,1.115,1.131,1.955,2.256,1.955
	c0.106,0,0.217-0.006,0.324-0.021c0.198-0.027,0.381-0.09,0.557-0.164c-0.011,0.156-0.005,0.312,0.017,0.473
	c0.159,1.115,1.129,1.959,2.255,1.959c0.106,0,0.213-0.008,0.323-0.021c0.692-0.1,1.256-0.504,1.601-1.053l3.218,1.938
	c0.775,0.471,1.793,0.221,2.261-0.559s0.218-1.795-0.562-2.264l-0.04-0.023c0.188-0.055,0.361-0.139,0.542-0.211l1.659,0.998
	c0.255,0.156,0.549,0.238,0.846,0.238c0.577,0,1.119-0.309,1.416-0.799c0.226-0.377,0.292-0.82,0.186-1.25
	c-0.106-0.426-0.371-0.787-0.747-1.014l-0.379-0.229c0.121-0.096,0.24-0.197,0.361-0.297l1.485,0.896
	c0.258,0.152,0.55,0.238,0.85,0.238c0.574,0,1.118-0.309,1.415-0.801c0.461-0.764,0.224-1.752-0.521-2.232l0.426-0.275l0.686,0.414
	c0.255,0.156,0.547,0.234,0.847,0.234c0.574,0,1.116-0.301,1.416-0.797c0.361-0.598,0.289-1.334-0.112-1.855
	c0.069-0.068,0.129-0.119,0.206-0.193L43.056,32.697z M14.418,32.039l-5.306-2.386l5.423-12.072l5.307,2.383L14.418,32.039z
	 M45.184,17.581l5.427,12.072l-5.31,2.386l-5.422-12.076L45.184,17.581z M28.361,21.539c0.155-0.069,0.317-0.124,0.48-0.181
	c0.175-0.062,0.352-0.12,0.532-0.168c0.168-0.043,0.332-0.084,0.5-0.118c0.206-0.042,0.411-0.077,0.619-0.103
	c0.146-0.022,0.292-0.045,0.44-0.059c0.332-0.032,0.669-0.055,0.998-0.061c0.022-0.003,0.045-0.005,0.067-0.005
	c0.005,0,0.012,0,0.02,0c1.27-0.021,2.485,0.122,3.371,0.269h0.032c0.651,0.108,1.1,0.21,1.24,0.245l2.434,0.644l0.082-0.049
	l3.807,8.477c-0.279,0.436-0.597,0.868-0.98,1.268l-0.121,0.123c-0.119,0.119-0.24,0.229-0.366,0.334l-9.738-5.867
	c-0.188-0.127-0.379-0.257-0.566-0.385c-0.228-0.064-0.43-0.104-0.633-0.148c0.003-0.002,0.003-0.007,0.008-0.01
	c-0.062-0.013-0.114-0.018-0.174-0.029c-0.068-0.014-0.132-0.023-0.197-0.033c-0.188-0.029-0.369-0.053-0.537-0.067
	c-0.062-0.004-0.124-0.01-0.183-0.012c-0.171-0.008-0.334-0.008-0.488,0c-0.043,0.002-0.088,0.002-0.126,0.005
	c-0.388,0.03-0.735,0.104-1.052,0.206c-0.031,0.01-0.061,0.02-0.089,0.031c-0.128,0.043-0.252,0.09-0.373,0.139
	c-0.043,0.019-0.089,0.036-0.13,0.056c-0.112,0.048-0.227,0.099-0.336,0.15c-0.166,0.078-0.332,0.157-0.508,0.235
	c-1.579,0.72-2.841,0.729-3.609,0.404c-0.158-0.066-0.29-0.15-0.406-0.239c-0.039-0.032-0.077-0.062-0.11-0.096
	c-0.033-0.034-0.063-0.068-0.093-0.104c-0.062-0.083-0.118-0.165-0.148-0.255c-0.069-0.198-0.525-1.788,0.232-1.945
	c0.465-0.095,3.042-0.71,5.23-2.192C27.759,21.816,28.056,21.672,28.361,21.539z M19.42,36.188c-0.672,0.1-1.296-0.383-1.39-1.043
	c-0.046-0.324,0.036-0.648,0.234-0.91c0.194-0.262,0.484-0.432,0.81-0.479c0.059-0.01,0.119-0.012,0.176-0.012
	c0.604,0,1.127,0.453,1.213,1.055C20.555,35.469,20.089,36.094,19.42,36.188z M22.571,38.432c-0.673,0.096-1.293-0.385-1.386-1.041
	c-0.047-0.326,0.036-0.648,0.233-0.914c0.195-0.26,0.485-0.43,0.809-0.475c0.06-0.01,0.119-0.016,0.173-0.016
	c0.606,0,1.13,0.457,1.215,1.057C23.712,37.715,23.242,38.336,22.571,38.432z M25.727,40.676c-0.678,0.098-1.295-0.381-1.389-1.043
	c-0.044-0.324,0.037-0.646,0.235-0.908c0.196-0.262,0.483-0.43,0.809-0.479c0.058-0.006,0.117-0.012,0.176-0.012
	c0.604,0,1.127,0.453,1.213,1.055C26.866,39.959,26.396,40.582,25.727,40.676z"/>
</svg>
