<?xml version="1.0" encoding="utf-8"?>
<!-- Generator: Adobe Illustrator 15.0.0, SVG Export Plug-In . SVG Version: 6.00 Build 0)  -->
<!DOCTYPE svg PUBLIC "-//W3C//DTD SVG 1.1//EN" "http://www.w3.org/Graphics/SVG/1.1/DTD/svg11.dtd">
<svg version="1.1" id="Layer_1" xmlns="http://www.w3.org/2000/svg" xmlns:xlink="http://www.w3.org/1999/xlink" x="0px" y="0px"
	 width="60px" height="60px" viewBox="0 0 60 60" enable-background="new 0 0 60 60" xml:space="preserve">
<path fill="#FFFFFF" d="M44.503,33.268c0.234-0.245,0.449-0.502,0.649-0.766l0.936,2.081l8.324-3.738l-6.917-15.394l-8.32,3.738
	l0.515,1.143l-1.411-0.374l0,0c-0.017-0.004-0.057-0.015-0.113-0.029l-0.777-0.206c-0.215-0.059-0.443-0.081-0.687-0.087
	c-2.196-0.364-6.188-0.693-8.769,1.052c-0.249,0.168-0.505,0.321-0.763,0.468c-0.709-0.499-1.522-0.708-2.303-0.498l-3.344,0.86
	l-0.256-0.153l0.979-2.177l-8.32-3.738L7.007,30.845l8.321,3.738l0.922-2.055c0.409,0.638,0.897,1.219,1.425,1.729
	c-0.358,0.502-0.511,1.109-0.425,1.721c0.165,1.168,1.18,2.048,2.36,2.048c0.109,0,0.224-0.008,0.337-0.023
	c0.206-0.028,0.397-0.094,0.583-0.171c-0.011,0.162-0.007,0.328,0.017,0.494c0.167,1.166,1.182,2.047,2.358,2.047
	c0.111,0,0.226-0.006,0.339-0.022c0.207-0.03,0.398-0.093,0.583-0.172c-0.011,0.164-0.007,0.328,0.017,0.494
	c0.165,1.168,1.181,2.046,2.358,2.046c0.111,0,0.223-0.006,0.337-0.021c0.723-0.104,1.313-0.524,1.674-1.098l3.362,2.024
	c0.814,0.492,1.875,0.229,2.364-0.585c0.49-0.815,0.229-1.877-0.587-2.366l-0.042-0.026c0.198-0.057,0.378-0.144,0.568-0.219
	l1.731,1.045c0.269,0.161,0.576,0.246,0.889,0.246c0.601,0,1.17-0.319,1.479-0.834c0.234-0.395,0.306-0.858,0.194-1.306
	s-0.389-0.823-0.781-1.061l-0.399-0.239c0.128-0.103,0.252-0.206,0.379-0.31l1.555,0.938c0.27,0.16,0.573,0.247,0.887,0.247
	c0.602,0,1.168-0.32,1.479-0.834c0.482-0.8,0.233-1.834-0.546-2.336l0.445-0.285l0.719,0.431c0.265,0.162,0.57,0.247,0.882,0.247
	c0.604,0,1.171-0.32,1.482-0.834c0.376-0.626,0.304-1.396-0.117-1.943c0.072-0.069,0.135-0.124,0.216-0.2L44.503,33.268z
	 M14.565,32.573l-5.548-2.492l5.67-12.622l5.549,2.492L14.565,32.573z M46.731,17.46l5.671,12.622l-5.551,2.492l-5.669-12.622
	L46.731,17.46z M29.141,21.598c0.163-0.072,0.333-0.129,0.503-0.189c0.182-0.063,0.368-0.125,0.557-0.175
	c0.174-0.045,0.347-0.088,0.522-0.124c0.215-0.042,0.43-0.079,0.646-0.107c0.153-0.022,0.306-0.047,0.461-0.063
	c0.349-0.032,0.699-0.056,1.045-0.062c0.022-0.002,0.047-0.004,0.068-0.004c0.007,0,0.013,0,0.019,0
	c1.33-0.023,2.6,0.125,3.526,0.279h0.034c0.681,0.113,1.15,0.221,1.298,0.257l2.543,0.672l0.087-0.052l3.979,8.864
	c-0.293,0.458-0.625,0.906-1.024,1.325l-0.129,0.13c-0.122,0.121-0.249,0.236-0.381,0.348l-10.183-6.133
	c-0.198-0.134-0.395-0.27-0.593-0.403c-0.237-0.067-0.447-0.109-0.66-0.154c0.002-0.003,0.004-0.008,0.008-0.01
	c-0.064-0.014-0.119-0.018-0.182-0.03c-0.071-0.014-0.138-0.024-0.207-0.035c-0.196-0.032-0.385-0.057-0.561-0.071
	c-0.065-0.004-0.129-0.01-0.192-0.012c-0.178-0.008-0.35-0.008-0.511-0.001c-0.043,0.002-0.091,0.002-0.132,0.005
	c-0.406,0.03-0.767,0.107-1.098,0.214c-0.032,0.01-0.065,0.022-0.095,0.032c-0.132,0.046-0.262,0.094-0.389,0.146
	c-0.045,0.019-0.092,0.039-0.136,0.058c-0.118,0.051-0.237,0.103-0.352,0.157c-0.174,0.081-0.348,0.164-0.529,0.245
	c-1.653,0.755-2.973,0.762-3.774,0.423c-0.166-0.068-0.304-0.156-0.424-0.251c-0.041-0.032-0.081-0.064-0.115-0.099
	c-0.037-0.036-0.067-0.073-0.097-0.11c-0.065-0.085-0.123-0.172-0.155-0.266c-0.073-0.207-0.55-1.869,0.243-2.032
	c0.486-0.101,3.182-0.743,5.469-2.291C28.512,21.887,28.822,21.736,29.141,21.598z M19.793,36.913
	c-0.702,0.104-1.354-0.4-1.452-1.091c-0.048-0.338,0.038-0.678,0.245-0.951c0.204-0.273,0.505-0.452,0.844-0.498
	c0.063-0.011,0.125-0.015,0.186-0.015c0.631,0,1.178,0.474,1.266,1.102C20.98,36.162,20.493,36.814,19.793,36.913z M23.089,39.26
	c-0.705,0.099-1.353-0.401-1.451-1.089c-0.049-0.341,0.039-0.679,0.243-0.954c0.206-0.273,0.507-0.451,0.848-0.498
	c0.061-0.01,0.123-0.014,0.181-0.014c0.634,0,1.18,0.474,1.271,1.105C24.28,38.509,23.789,39.16,23.089,39.26z M26.387,41.605
	c-0.708,0.104-1.353-0.4-1.452-1.089c-0.046-0.34,0.04-0.678,0.246-0.951c0.205-0.273,0.505-0.451,0.846-0.5
	c0.061-0.009,0.122-0.013,0.183-0.013c0.631,0,1.178,0.474,1.268,1.104C27.578,40.856,27.087,41.507,26.387,41.605z"/>
</svg>
