<?xml version="1.0" encoding="utf-8"?>
<!-- Generator: Adobe Illustrator 15.0.0, SVG Export Plug-In . SVG Version: 6.00 Build 0)  -->
<!DOCTYPE svg PUBLIC "-//W3C//DTD SVG 1.1//EN" "http://www.w3.org/Graphics/SVG/1.1/DTD/svg11.dtd">
<svg version="1.1" id="Layer_1" xmlns="http://www.w3.org/2000/svg" xmlns:xlink="http://www.w3.org/1999/xlink" x="0px" y="0px"
	 width="60px" height="60px" viewBox="0 0 60 60" enable-background="new 0 0 60 60" xml:space="preserve">
<g>
	<g>
		<path fill="#FFFFFF" d="M20.223,25.636V25.32h1.557l3.002,5.433v-5.116h3.4v10.665c0.252-0.022,0.5-0.062,0.746-0.106V23.62h3.024
			c2.731,0,4.483,1.556,4.89,4.204c0.043-0.371,0.07-0.746,0.07-1.129c0-5.333-4.32-9.654-9.652-9.654
			c-4.971,0-9.062,3.761-9.59,8.595H20.223z"/>
		<path fill="#FFFFFF" d="M32.6,27.13v3.873c0.453-0.284,0.68-0.941,0.68-1.962C33.279,27.716,32.917,27.285,32.6,27.13z"/>
	</g>
	<g>
		<g>
			<path fill="#FFFFFF" d="M9.016,40.812L8.07,38.752c1.322-0.378,2.838-0.925,2.838-2.564c0-2.019-3.006-3.785-3.006-6.96
				c0-2.418,2.207-4.352,4.521-4.877l0.693,2.229c-1.262,0.337-2.858,1.114-2.858,2.648c0,2.417,3.026,3.975,3.026,6.96
				C13.284,38.71,11.539,40.119,9.016,40.812z"/>
			<path fill="#FFFFFF" d="M17.148,40.791c-1.743,0-2.84-1.157-2.84-3.49V26.283h2.104v11.333c0,0.778,0.232,1.304,0.736,1.304
				c0.547,0,0.738-0.546,0.738-1.304V26.283h2.102v11.018C19.988,39.594,18.914,40.791,17.148,40.791z"/>
			<path fill="#FFFFFF" d="M27.008,40.959l-3.785-7.314v7h-2.351V25.968h0.524l4.033,7.296v-6.979h2.104V40.96L27.008,40.959
				L27.008,40.959z"/>
			<path fill="#FFFFFF" d="M31.952,33.919v6.476h-2.378V24.268h2.378c2.731,0,4.353,1.682,4.353,4.773
				C36.305,32.277,34.58,33.919,31.952,33.919z M31.952,26.371v5.445c1.345,0,1.976-1.031,1.976-2.775
				C33.928,27.147,33.255,26.371,31.952,26.371z"/>
			<path fill="#FFFFFF" d="M39.82,40.145l-0.248-1.261h-1.983l-0.228,1.261H35.17l0.289-1.261h-0.826l0.412-1.841h0.787
				l2.439-11.329h0.619l3.1,14.431H39.82z M38.58,33.549l-0.661,3.494h1.304L38.58,33.549z"/>
			<path fill="#FFFFFF" d="M43.385,40.354l-0.84-1.828c1.155-0.355,2.52-0.838,2.52-2.286c0-1.806-2.688-3.382-2.688-6.193
				c0-2.162,1.975-3.863,4.031-4.346l0.607,1.994c-1.111,0.295-2.539,0.986-2.539,2.352c0,2.142,2.686,3.527,2.686,6.193
				C47.162,38.482,45.633,39.743,43.385,40.354z"/>
			<path fill="#FFFFFF" d="M48.32,40.354l-0.838-1.828c1.154-0.355,2.519-0.838,2.519-2.286c0-1.806-2.688-3.382-2.688-6.193
				c0-2.162,1.976-3.863,4.031-4.346l0.608,1.994c-1.112,0.295-2.54,0.986-2.54,2.352c0,2.142,2.686,3.527,2.686,6.193
				C52.098,38.482,50.568,39.743,48.32,40.354z"/>
		</g>
	</g>
</g>
</svg>
