<?xml version="1.0" encoding="utf-8"?>
<!-- Generator: Adobe Illustrator 15.0.0, SVG Export Plug-In . SVG Version: 6.00 Build 0)  -->
<!DOCTYPE svg PUBLIC "-//W3C//DTD SVG 1.1//EN" "http://www.w3.org/Graphics/SVG/1.1/DTD/svg11.dtd">
<svg version="1.1" id="Layer_1" xmlns="http://www.w3.org/2000/svg" xmlns:xlink="http://www.w3.org/1999/xlink" x="0px" y="0px"
	 width="60px" height="60px" viewBox="0 0 60 60" enable-background="new 0 0 60 60" xml:space="preserve">
<g>
	<g>
		<path fill="#FFFFFF" d="M377.321,549.471c-16.063,0-29.133-13.068-29.133-29.131s13.069-29.131,29.133-29.131
			c16.064,0,29.134,13.068,29.134,29.131S393.386,549.471,377.321,549.471z M377.321,493.209c-14.961,0-27.133,12.171-27.133,27.131
			s12.172,27.131,27.133,27.131c14.962,0,27.134-12.171,27.134-27.131S392.283,493.209,377.321,493.209z"/>
		<g>
			<path fill="#FFFFFF" d="M393.848,509.915l-21.255-5.625c-0.299-0.08-0.604-0.119-0.91-0.119c-1.607,0-3.019,1.084-3.431,2.641
				l-1.332,5.035h-4.891c-1.958,0-3.549,1.594-3.549,3.551v13.926c0,1.957,1.591,3.551,3.549,3.551h21.99
				c1.73,0,3.17-1.248,3.482-2.891l0.968,0.258c0.297,0.078,0.602,0.117,0.908,0.117c1.61,0,3.021-1.086,3.432-2.643l3.564-13.465
				C396.871,512.358,395.738,510.413,393.848,509.915z M359.601,517.155h27v3.817h-27V517.155z M368.197,527.635h-7.525v-1.507
				h7.525V527.635z M373.201,527.635h-4.363v-1.507h4.363V527.635z M380.13,527.635h-5.904v-1.507h5.904V527.635z M390.199,527.024
				c-0.119,0.443-0.593,0.719-1.041,0.605l-1.59-0.422v-8.936l4.622,1.225L390.199,527.024z M393.761,513.562l-0.726,2.748
				l-5.522-1.461c-0.267-1.695-1.726-3.002-3.493-3.002h-7.85l-6.033-1.596l0.727-2.746c0.1-0.373,0.436-0.633,0.819-0.633
				c0.073,0,0.145,0.01,0.22,0.029l21.256,5.625C393.61,512.646,393.881,513.112,393.761,513.562z"/>
		</g>
	</g>
	<path fill="#FFFFFF" d="M377.321,549.471c-16.063,0-29.133-13.068-29.133-29.131s13.069-29.131,29.133-29.131
		c16.064,0,29.134,13.068,29.134,29.131S393.386,549.471,377.321,549.471z M377.321,493.209c-14.961,0-27.133,12.171-27.133,27.131
		s12.172,27.131,27.133,27.131c14.962,0,27.134-12.171,27.134-27.131S392.283,493.209,377.321,493.209z"/>
</g>
<g>
	<g>
		<g>
			<path fill="#FFFFFF" d="M321.047,519.738c-0.004-0.035-0.01-0.071-0.018-0.107c-0.008-0.033-0.016-0.065-0.025-0.099
				c-0.012-0.032-0.022-0.065-0.037-0.098c-0.014-0.035-0.03-0.067-0.048-0.102c-0.009-0.014-0.013-0.03-0.021-0.044
				c-0.009-0.015-0.021-0.026-0.031-0.04c-0.021-0.03-0.044-0.062-0.069-0.093c-0.021-0.025-0.045-0.05-0.07-0.074
				c-0.023-0.025-0.05-0.047-0.078-0.07c-0.029-0.023-0.061-0.046-0.094-0.066c-0.014-0.01-0.025-0.02-0.04-0.028l-4.556-2.631
				l-5.338-3.082l0.061-3.994c0.402-0.106,0.764-0.366,0.988-0.755c0.448-0.775,0.184-1.77-0.592-2.218
				c-0.777-0.447-1.77-0.181-2.219,0.595c-0.215,0.371-0.264,0.793-0.173,1.182l-3.466,2.071l-9.941-5.739
				c-0.33-0.191-0.736-0.192-1.07-0.006c-0.332,0.186-0.541,0.533-0.553,0.915c-0.164,6.481,3.217,12.52,8.824,15.759
				c1.587,0.915,3.291,1.576,5.066,1.963c4.434,0.967,9.01,0.2,12.902-2.149v-0.002c0.029-0.017,0.061-0.031,0.09-0.049
				c0.014-0.009,0.025-0.02,0.039-0.03c0.031-0.021,0.062-0.045,0.092-0.069c0.027-0.023,0.053-0.046,0.076-0.07
				c0.024-0.024,0.047-0.051,0.068-0.078c0.025-0.03,0.047-0.061,0.068-0.093c0.01-0.014,0.021-0.026,0.027-0.041
				c0.01-0.014,0.014-0.029,0.021-0.043c0.019-0.034,0.034-0.07,0.048-0.105c0.012-0.031,0.023-0.063,0.033-0.096
				c0.01-0.035,0.016-0.069,0.023-0.104c0.006-0.033,0.01-0.068,0.014-0.104s0.004-0.068,0.004-0.105
				C321.051,519.805,321.05,519.771,321.047,519.738z M308.494,510.648c-0.006,0.441-0.013,0.893-0.02,1.316l-1.11-0.641
				C307.727,511.107,308.115,510.875,308.494,510.648z M316.666,520.26l-2.326-1.337l-14.096-8.103
				c-0.518-0.297-1.179-0.12-1.477,0.399c-0.298,0.517-0.119,1.179,0.398,1.478l14.096,8.102l0.005,0.003l0.399,0.231
				c-1.861,0.286-3.773,0.24-5.658-0.17c-1.556-0.341-3.052-0.92-4.445-1.725c-4.365-2.521-7.166-6.98-7.648-11.928
				c2.889,1.668,18.963,10.949,18.963,10.949l2.854,1.648C317.379,519.969,317.027,520.127,316.666,520.26z"/>
		</g>
		<g>
			<path fill="#FFFFFF" d="M310.264,530.885h-11.564c-0.498,0-0.9,0.402-0.9,0.9c0,0.497,0.402,0.898,0.9,0.898h11.564
				c0.496,0,0.9-0.401,0.9-0.898C311.164,531.287,310.76,530.885,310.264,530.885z"/>
			<circle fill="#FFFFFF" cx="313.699" cy="531.99" r="1.133"/>
			<circle fill="#FFFFFF" cx="316.721" cy="531.99" r="1.133"/>
			<path fill="#FFFFFF" d="M320.994,527.422h-28.727c-0.549,0-0.992,0.506-0.992,1.131v6.686c0,0.626,0.443,1.132,0.992,1.132h1.506
				c0.055,0.566,0.471,1.009,0.982,1.009h2.326c0.511,0,0.926-0.442,0.98-1.009h17.168c0.055,0.566,0.47,1.009,0.98,1.009h2.327
				c0.511,0,0.927-0.442,0.981-1.009h1.475c0.549,0,0.991-0.506,0.991-1.132v-6.686
				C321.985,527.928,321.543,527.422,320.994,527.422z M293.26,534.105c0-1.302,0-3.388,0-4.419c1.634,0,21.978,0,26.74,0
				c0,1.302,0,3.388,0,4.419C318.367,534.105,298.023,534.105,293.26,534.105z"/>
		</g>
	</g>
	<path fill="#FFFFFF" d="M306.808,549.471c-16.063,0-29.133-13.068-29.133-29.131s13.069-29.131,29.133-29.131
		c16.064,0,29.134,13.068,29.134,29.131S322.872,549.471,306.808,549.471z M306.808,493.209c-14.961,0-27.133,12.171-27.133,27.131
		s12.172,27.131,27.133,27.131c14.962,0,27.134-12.171,27.134-27.131S321.77,493.209,306.808,493.209z"/>
</g>
<g>
	<g>
		<g>
			<path fill="#FFFFFF" d="M237.232,528.674H222.57c-0.631,0-1.141,0.511-1.141,1.141c0,0.631,0.51,1.141,1.141,1.141h14.662
				c0.631,0,1.143-0.51,1.143-1.141C238.375,529.185,237.863,528.674,237.232,528.674z"/>
			<circle fill="#FFFFFF" cx="241.588" cy="530.075" r="1.437"/>
			<circle fill="#FFFFFF" cx="245.42" cy="530.075" r="1.437"/>
			<path fill="#FFFFFF" d="M250.837,524.283h-36.421c-0.695,0-1.258,0.641-1.258,1.435v8.476c0,0.794,0.562,1.436,1.258,1.436h1.91
				c0.068,0.718,0.597,1.277,1.244,1.277h2.95c0.647,0,1.173-0.56,1.243-1.277h21.767c0.069,0.718,0.597,1.277,1.243,1.277h2.949
				c0.648,0,1.176-0.56,1.246-1.277h1.868c0.695,0,1.257-0.642,1.257-1.436v-8.476C252.094,524.924,251.532,524.283,250.837,524.283
				z M215.674,532.756c0-1.648,0-4.294,0-5.602c2.072,0,27.865,0,33.904,0c0,1.65,0,4.295,0,5.602
				C247.508,532.756,221.714,532.756,215.674,532.756z"/>
		</g>
		<g>
			<path fill="#FFFFFF" d="M224.645,507.712l1.15,1.94c0.335,0.6,0.646,1.198,0.958,1.749h0.048c0.311-0.623,0.599-1.222,0.91-1.797
				l1.029-1.893h3.953l-3.856,5.582l3.905,6.133h-4.121l-1.174-2.108c-0.336-0.574-0.623-1.174-0.91-1.772h-0.072
				c-0.287,0.623-0.599,1.198-0.887,1.772l-1.102,2.108h-4l3.977-5.966l-3.881-5.749H224.645z"/>
			<path fill="#FFFFFF" d="M233.846,519.427v-2.204l2.012-1.82c3.402-3.043,5.055-4.791,5.104-6.612c0-1.27-0.768-2.276-2.563-2.276
				c-1.342,0-2.516,0.672-3.33,1.295l-1.03-2.611c1.174-0.887,2.994-1.605,5.102-1.605c3.523,0,5.463,2.061,5.463,4.887
				c0,2.611-1.893,4.695-4.145,6.708l-1.438,1.198v0.047h5.869v2.995H233.846z"/>
		</g>
	</g>
	<path fill="#FFFFFF" d="M232.808,549.471c-16.063,0-29.133-13.068-29.133-29.131s13.069-29.131,29.133-29.131
		c16.064,0,29.134,13.068,29.134,29.131S248.872,549.471,232.808,549.471z M232.808,493.209c-14.961,0-27.133,12.171-27.133,27.131
		s12.172,27.131,27.133,27.131c14.962,0,27.134-12.171,27.134-27.131S247.77,493.209,232.808,493.209z"/>
</g>
<g>
	<g>
		<path fill="#FFFFFF" d="M163.248,530.262l-1.49-2.578c-0.156-0.274-0.41-0.48-0.709-0.581c-1.191-0.395-2.347-0.915-3.436-1.544
			c-0.297-0.172-0.659-0.223-0.99-0.135c-0.33,0.089-0.623,0.301-0.795,0.598l-6.263,10.848c-0.003,0.004-0.005,0.009-0.007,0.014
			c-0.014,0.021-0.023,0.045-0.035,0.068c-0.008,0.016-0.016,0.031-0.023,0.047c-0.009,0.021-0.018,0.045-0.025,0.067
			c-0.007,0.018-0.014,0.035-0.02,0.054c-0.007,0.02-0.012,0.039-0.017,0.061c-0.007,0.021-0.013,0.043-0.017,0.064
			c-0.004,0.017-0.006,0.034-0.01,0.052c-0.004,0.025-0.008,0.05-0.012,0.075c-0.001,0.016-0.002,0.033-0.003,0.049
			c-0.003,0.027-0.004,0.054-0.004,0.08c-0.001,0.005-0.001,0.01-0.001,0.016c0,0.013,0.002,0.025,0.002,0.039
			c0,0.023,0.002,0.047,0.004,0.07s0.005,0.045,0.008,0.067c0.002,0.019,0.004,0.036,0.008,0.055
			c0.005,0.026,0.011,0.051,0.017,0.076c0.004,0.015,0.007,0.028,0.011,0.043c0.008,0.026,0.018,0.054,0.025,0.079
			c0.006,0.014,0.01,0.025,0.015,0.039c0.011,0.025,0.021,0.051,0.032,0.076c0.006,0.013,0.013,0.025,0.02,0.038
			c0.012,0.023,0.024,0.048,0.038,0.07c0.007,0.014,0.016,0.026,0.024,0.039c0.014,0.022,0.027,0.044,0.043,0.064
			c0.01,0.013,0.02,0.025,0.029,0.038c0.016,0.021,0.033,0.041,0.051,0.061c0.01,0.012,0.02,0.022,0.029,0.033
			c0.021,0.021,0.043,0.042,0.064,0.062c0.008,0.007,0.016,0.015,0.023,0.021c0.027,0.023,0.057,0.047,0.086,0.068
			c0.004,0.003,0.006,0.005,0.01,0.008c0.136,0.098,0.293,0.17,0.461,0.21c0.004,0.001,0.008,0.001,0.011,0.003
			c0.032,0.007,0.065,0.012,0.099,0.016c0.01,0.002,0.021,0.004,0.031,0.006c0.025,0.004,0.054,0.004,0.082,0.006
			c0.016,0.001,0.032,0.002,0.047,0.003c0.008,0,0.016,0.001,0.023,0.001h15.257c0.462,0,0.888-0.248,1.12-0.646
			c0.23-0.401,0.23-0.893,0-1.293L163.248,530.262z M152.924,536.222c1.518-2.627,4.091-7.083,4.562-7.9
			c0.733,0.368,1.468,0.727,2.236,1.007c0.303,0.523,1.287,2.227,1.287,2.227s1.576,2.732,2.695,4.667
			C162.115,536.222,156.209,536.222,152.924,536.222z"/>
		<path fill="#FFFFFF" d="M180.38,522.959c-0.005-0.042-0.013-0.085-0.021-0.128c-0.01-0.039-0.019-0.078-0.031-0.118
			c-0.012-0.039-0.026-0.078-0.043-0.117c-0.018-0.041-0.037-0.08-0.059-0.121c-0.01-0.016-0.016-0.035-0.025-0.052
			c-0.012-0.018-0.025-0.032-0.037-0.048c-0.025-0.037-0.053-0.075-0.082-0.11c-0.027-0.03-0.055-0.061-0.084-0.089
			c-0.029-0.03-0.061-0.057-0.094-0.084c-0.035-0.028-0.072-0.056-0.111-0.08c-0.018-0.011-0.031-0.023-0.049-0.033l-5.442-3.143
			l-6.378-3.683l0.072-4.771c0.48-0.128,0.914-0.438,1.182-0.902c0.535-0.927,0.219-2.114-0.708-2.649
			c-0.929-0.534-2.112-0.217-2.649,0.71c-0.258,0.444-0.316,0.948-0.207,1.412l-4.141,2.475l-11.876-6.856
			c-0.395-0.229-0.882-0.23-1.278-0.008s-0.648,0.639-0.66,1.094c-0.197,7.744,3.842,14.957,10.541,18.826
			c1.896,1.094,3.932,1.883,6.053,2.346c5.297,1.154,10.763,0.239,15.414-2.568v-0.002c0.035-0.02,0.072-0.037,0.106-0.059
			c0.019-0.011,0.031-0.023,0.048-0.035c0.037-0.025,0.074-0.054,0.109-0.084c0.033-0.027,0.062-0.054,0.092-0.084
			c0.027-0.029,0.055-0.061,0.08-0.093c0.031-0.036,0.058-0.073,0.082-0.112c0.012-0.016,0.025-0.03,0.034-0.047
			c0.011-0.017,0.015-0.037,0.022-0.053c0.021-0.041,0.041-0.084,0.059-0.126c0.014-0.038,0.027-0.075,0.039-0.114
			c0.012-0.041,0.02-0.082,0.027-0.123s0.014-0.082,0.018-0.123c0.004-0.043,0.004-0.083,0.004-0.127
			C180.385,523.038,180.383,522.998,180.38,522.959z M165.385,512.1c-0.008,0.527-0.017,1.067-0.023,1.573l-1.328-0.766
			C164.468,512.648,164.932,512.371,165.385,512.1z M175.146,523.583l-2.779-1.599l-16.838-9.68
			c-0.619-0.354-1.41-0.143-1.766,0.478c-0.355,0.618-0.143,1.409,0.477,1.766l16.838,9.679c0.002,0,0.006,0.002,0.006,0.002
			l0.479,0.277c-2.224,0.342-4.508,0.287-6.76-0.203c-1.859-0.406-3.646-1.1-5.311-2.06c-5.217-3.013-8.562-8.341-9.137-14.249
			c3.449,1.991,22.654,13.08,22.654,13.08l3.408,1.969C175.998,523.235,175.578,523.423,175.146,523.583z"/>
	</g>
	<path fill="#FFFFFF" d="M161.333,549.471c-16.063,0-29.133-13.068-29.133-29.131s13.069-29.131,29.133-29.131
		c16.064,0,29.134,13.068,29.134,29.131S177.397,549.471,161.333,549.471z M161.333,493.209c-14.961,0-27.133,12.171-27.133,27.131
		s12.172,27.131,27.133,27.131c14.962,0,27.134-12.171,27.134-27.131S176.295,493.209,161.333,493.209z"/>
</g>
<g>
	<g>
		<path fill="#FFFFFF" d="M102.844,535.338c0-0.105-0.059-0.153-0.176-0.153h-0.197v0.516h0.088v-0.209h0.051l0.148,0.209h0.104
			l-0.148-0.211C102.783,535.48,102.844,535.441,102.844,535.338z M102.559,535.41v-0.146h0.08c0.059,0,0.117,0.015,0.117,0.073
			c0,0.068-0.064,0.072-0.135,0.072H102.559z"/>
		<path fill="#FFFFFF" d="M102.639,535.012c-0.244,0-0.443,0.199-0.443,0.442c0,0.245,0.199,0.442,0.443,0.442
			c0.246,0,0.443-0.197,0.443-0.442C103.082,535.211,102.885,535.012,102.639,535.012z M102.639,535.809
			c-0.199,0-0.348-0.147-0.348-0.354s0.148-0.354,0.348-0.354s0.346,0.146,0.346,0.354S102.838,535.809,102.639,535.809z"/>
		<path fill="#FFFFFF" d="M71.629,529.893c-0.438-0.438-1.064-0.634-1.754-0.634h-2.4v6.645h2.4c0.689,0,1.316-0.197,1.754-0.636
			c0.746-0.745,0.672-1.716,0.672-2.715C72.301,531.555,72.375,530.639,71.629,529.893z M70.723,534.335
			c-0.223,0.271-0.521,0.41-0.971,0.41h-0.979v-4.33h0.979c0.449,0,0.748,0.141,0.971,0.411c0.242,0.299,0.281,0.719,0.281,1.727
			S70.965,534.036,70.723,534.335z"/>
		<rect x="73.5" y="529.262" fill="#FFFFFF" width="1.297" height="6.642"/>
		<path fill="#FFFFFF" d="M80.861,531.296c0-1.11-0.801-2.034-2.154-2.034h-2.602v6.642h1.297v-2.649h0.932l1.297,2.649h1.5
			l-1.482-2.864C80.293,532.807,80.861,532.229,80.861,531.296z M78.623,532.172h-1.221v-1.754h1.221
			c0.568,0,0.941,0.364,0.941,0.878C79.564,531.808,79.191,532.172,78.623,532.172z"/>
		<polygon fill="#FFFFFF" points="81.969,535.903 86.342,535.903 86.342,534.745 83.266,534.745 83.266,533.133 85.885,533.133 
			85.885,531.977 83.266,531.977 83.266,530.418 86.342,530.418 86.342,529.262 81.969,529.262 		"/>
		<path fill="#FFFFFF" d="M89.523,530.362c0.625,0,0.977,0.373,1.118,0.942h1.314c-0.224-1.353-1.165-2.099-2.444-2.099
			c-0.709,0-1.305,0.242-1.789,0.728c-0.291,0.288-0.467,0.615-0.541,0.998c-0.074,0.373-0.113,0.923-0.113,1.65
			c0,0.729,0.039,1.277,0.113,1.651c0.074,0.372,0.25,0.709,0.541,0.998c0.484,0.485,1.08,0.728,1.789,0.728
			c1.27,0,2.221-0.746,2.444-2.1h-1.314c-0.142,0.569-0.493,0.943-1.118,0.943c-0.355,0-0.637-0.113-0.832-0.346
			c-0.27-0.289-0.326-0.587-0.326-1.875c0-1.286,0.057-1.585,0.326-1.875C88.887,530.475,89.168,530.362,89.523,530.362z"/>
		<polygon fill="#FFFFFF" points="92.311,530.418 94.045,530.418 94.045,535.903 95.342,535.903 95.342,530.418 97.078,530.418 
			97.078,529.262 92.311,529.262 		"/>
		<polygon fill="#FFFFFF" points="101.727,529.262 100.394,533.589 99.059,529.262 97.717,529.262 99.908,535.903 100.879,535.903 
			103.078,529.262 		"/>
		<path fill="#FFFFFF" d="M101.453,507.325h-4.961c3.303,3.432,3.979,7.738,1.572,11.482c-2.724,3.929-10.346,7.501-19.512,8.548
			h23.148c0.861,0,1.383-0.555,1.383-1.293c0,0,0-17.242,0-17.546C103.084,508.085,102.779,507.325,101.453,507.325z"/>
		<path fill="#FFFFFF" d="M68.812,527.355h3.146c13.324-0.655,19.863-5.188,20.211-9.784c0.012-0.164,0.02-0.33,0.016-0.494
			c-0.096-4.572-6.043-9.796-18.016-9.734h-5.289c-0.846,0-1.389,0.619-1.389,1.459v17.159
			C67.492,526.486,67.896,527.355,68.812,527.355z"/>
	</g>
	<path fill="#FFFFFF" d="M84.833,549.471c-16.063,0-29.133-13.068-29.133-29.131s13.069-29.131,29.133-29.131
		c16.064,0,29.134,13.068,29.134,29.131S100.897,549.471,84.833,549.471z M84.833,493.209c-14.961,0-27.133,12.171-27.133,27.131
		s12.172,27.131,27.133,27.131c14.962,0,27.134-12.171,27.134-27.131S99.795,493.209,84.833,493.209z"/>
</g>
<path fill="#FFFFFF" d="M30,59.131C13.936,59.131,0.867,46.062,0.867,30S13.936,0.869,30,0.869S59.133,13.938,59.133,30
	S46.064,59.131,30,59.131z M30,2.869C15.039,2.869,2.867,15.04,2.867,30S15.039,57.131,30,57.131S57.133,44.96,57.133,30
	S44.961,2.869,30,2.869z"/>
<g>
	<g>
		<path fill="#FFFFFF" d="M20.223,25.636v-0.316h1.557l3.002,5.433v-5.116h3.4v10.665c0.252-0.023,0.5-0.063,0.746-0.106V23.62
			h3.024c2.731,0,4.483,1.556,4.89,4.204c0.043-0.371,0.07-0.746,0.07-1.129c0-5.333-4.32-9.654-9.652-9.654
			c-4.971,0-9.062,3.761-9.59,8.595H20.223z"/>
		<path fill="#FFFFFF" d="M32.6,27.13v3.873c0.453-0.284,0.68-0.941,0.68-1.962C33.279,27.716,32.917,27.285,32.6,27.13z"/>
	</g>
	<g>
		<g>
			<path fill="#FFFFFF" d="M9.016,40.812L8.07,38.752c1.322-0.378,2.838-0.925,2.838-2.565c0-2.018-3.006-3.785-3.006-6.96
				c0-2.418,2.207-4.352,4.521-4.877l0.693,2.229c-1.262,0.337-2.858,1.114-2.858,2.648c0,2.418,3.026,3.975,3.026,6.96
				C13.284,38.71,11.539,40.119,9.016,40.812z"/>
			<path fill="#FFFFFF" d="M17.148,40.791c-1.743,0-2.84-1.157-2.84-3.49V26.283h2.104v11.333c0,0.778,0.232,1.304,0.736,1.304
				c0.547,0,0.738-0.546,0.738-1.304V26.283h2.102v11.018C19.988,39.594,18.914,40.791,17.148,40.791z"/>
			<path fill="#FFFFFF" d="M27.008,40.959l-3.785-7.315v7.001h-2.351V25.968h0.524l4.033,7.296v-6.98h2.104v14.676H27.008z"/>
			<path fill="#FFFFFF" d="M31.952,33.919v6.476h-2.378V24.268h2.378c2.732,0,4.353,1.682,4.353,4.773
				C36.305,32.278,34.58,33.919,31.952,33.919z M31.952,26.371v5.445c1.345,0,1.976-1.031,1.976-2.775
				C33.928,27.147,33.255,26.371,31.952,26.371z"/>
			<path fill="#FFFFFF" d="M39.821,40.145l-0.249-1.261h-1.983l-0.228,1.261H35.17l0.289-1.261h-0.826l0.412-1.841h0.787
				l2.439-11.329h0.619l3.1,14.431H39.821z M38.58,33.549l-0.661,3.494h1.303L38.58,33.549z"/>
			<path fill="#FFFFFF" d="M43.385,40.353l-0.84-1.827c1.155-0.356,2.52-0.839,2.52-2.287c0-1.806-2.688-3.381-2.688-6.193
				c0-2.162,1.974-3.863,4.031-4.346l0.608,1.994c-1.112,0.295-2.54,0.986-2.54,2.352c0,2.141,2.686,3.527,2.686,6.193
				C47.162,38.483,45.633,39.743,43.385,40.353z"/>
			<path fill="#FFFFFF" d="M48.321,40.353l-0.839-1.827c1.155-0.356,2.519-0.839,2.519-2.287c0-1.806-2.688-3.381-2.688-6.193
				c0-2.162,1.975-3.863,4.031-4.346l0.608,1.994c-1.112,0.295-2.54,0.986-2.54,2.352c0,2.141,2.686,3.527,2.686,6.193
				C52.098,38.483,50.568,39.743,48.321,40.353z"/>
		</g>
	</g>
</g>
</svg>
