<?xml version="1.0" encoding="utf-8"?>
<!-- Generator: Adobe Illustrator 15.0.0, SVG Export Plug-In . SVG Version: 6.00 Build 0)  -->
<!DOCTYPE svg PUBLIC "-//W3C//DTD SVG 1.1//EN" "http://www.w3.org/Graphics/SVG/1.1/DTD/svg11.dtd">
<svg version="1.1" id="Layer_1" xmlns="http://www.w3.org/2000/svg" xmlns:xlink="http://www.w3.org/1999/xlink" x="0px" y="0px"
	 width="60px" height="60px" viewBox="0 0 60 60" enable-background="new 0 0 60 60" xml:space="preserve">
<g>
	<path fill="#FFFFFF" d="M44.088,24.072l-2.771-1.325l-1.067,0.702c0.969,1.774,1.521,3.806,1.521,5.966
		c0,6.877-5.597,12.474-12.477,12.474c-6.878,0-12.475-5.597-12.475-12.474c0-6.883,5.597-12.478,12.475-12.478
		c3.919,0,7.398,1.833,9.688,4.668l-1.924,1.264c-1.867-2.215-4.646-3.638-7.765-3.638c-5.611,0-10.177,4.57-10.177,10.183
		c0,5.609,4.565,10.179,10.177,10.179c5.614,0,10.185-4.567,10.185-10.179c0-1.695-0.422-3.29-1.158-4.697l-3.225,2.119
		c0.354,0.79,0.555,1.662,0.555,2.578c0,3.503-2.852,6.354-6.355,6.354c-3.503,0-6.35-2.851-6.35-6.354
		c0-3.506,2.847-6.356,6.35-6.356c1.782,0,3.387,0.745,4.538,1.931l-2.17,1.43c-0.649-0.521-1.469-0.84-2.368-0.84
		c-2.118,0-3.835,1.718-3.835,3.835c0,2.113,1.717,3.831,3.835,3.831c2.121,0,3.835-1.718,3.835-3.831
		c0-0.405-0.082-0.787-0.194-1.154l-3.047,2.004l-0.438-0.67l12.118-7.968l2.889,1.327l4.809-3.161l-2.89-1.328l0.856-0.563
		L46.438,16.7l-0.857,0.564l-0.072-3.181l-4.806,3.163l0.073,3.178l-1.008,0.662l-0.082-3.63l0.547-0.361
		c-2.916-2.593-6.739-4.184-10.939-4.184c-9.095,0-16.5,7.404-16.5,16.504c0,9.097,7.405,16.498,16.5,16.498
		c9.098,0,16.5-7.401,16.5-16.498c0-2.03-0.386-3.969-1.061-5.768L44.088,24.072z"/>
</g>
</svg>
